<svg xmlns="http://www.w3.org/2000/svg" viewBox="0 0 878 601"><defs><style>.cls-1{fill:#f5fdff;}.cls-2{fill:#d2e9ff;}.cls-10,.cls-11,.cls-12,.cls-13,.cls-14,.cls-15,.cls-16,.cls-17,.cls-18,.cls-19,.cls-2,.cls-20,.cls-21,.cls-22,.cls-23,.cls-24,.cls-25,.cls-26,.cls-27,.cls-28,.cls-29,.cls-3,.cls-4,.cls-5,.cls-6,.cls-7,.cls-9{stroke:#000;stroke-miterlimit:10;}.cls-10,.cls-11,.cls-16,.cls-17,.cls-2,.cls-24,.cls-25,.cls-26,.cls-27,.cls-3,.cls-4,.cls-5,.cls-6,.cls-7,.cls-9{stroke-width:2px;}.cls-18,.cls-3{fill:#a6c1e8;}.cls-19,.cls-4{fill:#698cb5;}.cls-14,.cls-5,.cls-8{fill:none;}.cls-13,.cls-6{fill:#deebff;}.cls-12,.cls-7{fill:#9dc0ea;}.cls-29,.cls-9{fill:#fff;}.cls-10{fill:#abcdef;}.cls-11{fill:#618bb5;}.cls-15{fill:#8eb2d6;}.cls-16{fill:#e1f1ff;}.cls-17{fill:#aacbe8;}.cls-20{fill:#cadfef;}.cls-21{fill:#c0e0ff;}.cls-23{fill:#9fb9ce;}.cls-24{fill:#79a6d1;}.cls-25{fill:#83a9d6;}.cls-26{fill:#b6d7f2;}.cls-28{fill:#f24a00;}.cls-30{fill:#4c71a5;}</style></defs><g id="레이어_2" data-name="레이어 2"><g id="레이어_1-2" data-name="레이어 1"><rect class="cls-1" width="878" height="601"/><path class="cls-2" d="M364.06,453.89q1.68,0,2.72,3.47a26.33,26.33,0,0,1,1.19,8.29v80.53a26.39,26.39,0,0,1-1.19,8.3q-1,3.46-2.72,3.47h-3.82V517.38h-7.49V558H345V453.89Zm-3.82,23.38h-7.49V494h7.49Z"/><path class="cls-2" d="M374.3,554.51a29.86,29.86,0,0,1-1-8.21V465.54a29.86,29.86,0,0,1,1-8.21c.66-2.29,1.45-3.44,2.37-3.44H380v80.92h10.59V558H376.67C375.75,558,375,556.8,374.3,554.51Z"/><path class="cls-2" d="M408.89,507.88H416v48.41h-.05V558H398.43c-1,0-1.81-1.16-2.51-3.47a28.85,28.85,0,0,1-1.05-8.3V465.65a28.83,28.83,0,0,1,1.05-8.29c.7-2.31,1.53-3.47,2.51-3.47h17.51v23.38H402v57.3h6.92Z"/><path class="cls-2" d="M424.89,558q-.87,0-1.5-3.42a44.79,44.79,0,0,1-.65-8.18V465.49a44.79,44.79,0,0,1,.65-8.18q.63-3.42,1.53-3.42h10.69q.86,0,1.5,3.42a44.87,44.87,0,0,1,.64,8.18v80.86a44.87,44.87,0,0,1-.64,8.18q-.64,3.42-1.5,3.42Zm2.19-23.05h6.34v-58h-6.34Z"/><path class="cls-2" d="M468.52,558h-6.15l-5.53-33.51h-1.68V558h-2.88q-1.2,0-2.07-3.42a34.13,34.13,0,0,1-.86-8.19v-81a34.13,34.13,0,0,1,.86-8.19c.57-2.28,1.26-3.43,2.05-3.43h14.9v59.13a33.63,33.63,0,0,1-.86,8.19c-.57,2.28-1.26,3.42-2.06,3.42H463Zm-13.36-56.59h6.19V476.88h-6.19Z"/><path class="cls-2" d="M479.58,546.36a32.77,32.77,0,0,1-.9,8.22c-.61,2.3-1.33,3.44-2.18,3.44h-3V453.82h6.12Z"/><path class="cls-2" d="M502.91,476.93h-6.18v69.42a28.83,28.83,0,0,1-1,8.18c-.68,2.28-1.49,3.42-2.44,3.42h-3.42v-81h-6.23v-23h19.3Z"/><path class="cls-2" d="M521.49,453.82h7.14V558h-7.14V517.5h-6.9V558h-7.14V453.82h7.14v40.51h6.9Z"/><path class="cls-2" d="M560.76,453.82c1,0,1.78,1.14,2.47,3.44a28.69,28.69,0,0,1,1,8.22V558h-7V477h-5v81h-7V477h-5v81h-7V453.82Z"/><rect class="cls-3" x="241.4" y="240.92" width="77.53" height="87.12" rx="12.33"/><circle class="cls-4" cx="272.03" cy="259.9" r="5.91"/><circle class="cls-4" cx="272.03" cy="309.45" r="5.91"/><circle class="cls-4" cx="251.75" cy="284.28" r="5.91"/><path class="cls-5" d="M266.68,259.59l-10.56.07a4.38,4.38,0,0,0-4.29,4c0,.13,0,.26,0,.4,0,5.66,0,14.11,0,14.11"/><path class="cls-5" d="M266.68,309.27l-10.56-.06a4.39,4.39,0,0,1-4.29-4c0-.13,0-.27,0-.41,0-5.65,0-14.1,0-14.1"/><circle class="cls-4" cx="288.3" cy="259.5" r="5.91"/><circle class="cls-4" cx="288.3" cy="309.05" r="5.91"/><circle class="cls-4" cx="308.58" cy="283.88" r="5.91"/><path class="cls-5" d="M293.65,259.19l10.56.07a4.39,4.39,0,0,1,4.28,4c0,.13,0,.27,0,.4,0,5.66,0,14.11,0,14.11"/><path class="cls-5" d="M293.65,308.88l10.56-.07a4.38,4.38,0,0,0,4.28-4c0-.13,0-.26,0-.4,0-5.66,0-14.11,0-14.11"/><circle class="cls-3" cx="263.81" cy="365.39" r="5.91"/><path class="cls-6" d="M287.3,351.35a6.21,6.21,0,0,1-5,5.84,4.27,4.27,0,0,1-.9.07c-2.39-.08-5.91-2.19-5.91-5.91a5.91,5.91,0,1,1,11.82,0Z"/><path class="cls-6" d="M114.52,297.41c0,4.21-3.6,7.08-6.53,7.61a6.81,6.81,0,0,1-1.17.09c-3.11-.1-7.7-2.85-7.7-7.7a7.7,7.7,0,0,1,15.4,0Z"/><circle class="cls-7" cx="304.52" cy="366.23" r="6.34"/><circle class="cls-7" cx="581.94" cy="290.6" r="6.34"/><circle class="cls-7" cx="134.45" cy="280.58" r="8.26"/><circle class="cls-7" cx="79.26" cy="280.58" r="8.26"/><path class="cls-5" d="M263.12,359.48c-.42-1.15-2.57-7.28.26-9.94a3.9,3.9,0,0,1,1.36-.83,19.91,19.91,0,0,1,11.86-.84"/><path class="cls-5" d="M282.14,357.37a12.92,12.92,0,0,0-1.05,7.84,9.12,9.12,0,0,0,1.29,3.56c2.23,3,9.31,3.31,16.87.78"/><polyline class="cls-5" points="79.26 288.41 81.58 297.85 99 297.85"/><polyline class="cls-5" points="134.26 288.41 131.94 297.85 114.52 297.85"/><path class="cls-6" d="M114.48,322.55c0-4.21-3.59-7.09-6.52-7.61a5.2,5.2,0,0,0-1.17-.09c-3.11.1-7.7,2.84-7.7,7.7a7.7,7.7,0,0,0,15.39,0Z"/><circle class="cls-7" cx="134.42" cy="339.37" r="8.26"/><circle class="cls-7" cx="79.22" cy="339.37" r="8.26"/><polyline class="cls-5" points="79.22 331.55 81.55 322.11 98.97 322.11"/><polyline class="cls-5" points="134.23 331.55 131.91 322.11 114.48 322.11"/><line class="cls-7" x1="106.82" y1="306.47" x2="106.82" y2="313.49"/><path class="cls-6" d="M661.3,506.67c5,0,8.36,4.25,9,7.7a6.2,6.2,0,0,1,.11,1.38c-.12,3.67-3.36,9.08-9.08,9.08a9.08,9.08,0,1,1,0-18.16Z"/><circle class="cls-7" cx="641.45" cy="483.16" r="9.74"/><circle class="cls-7" cx="641.45" cy="548.26" r="9.74"/><polyline class="cls-5" points="650.68 548.26 661.82 545.52 661.82 524.97"/><polyline class="cls-5" points="650.68 483.38 661.82 486.12 661.82 506.67"/><path class="cls-6" d="M697,506.71c-5,0-8.36,4.25-9,7.7a6.67,6.67,0,0,0-.1,1.38c.12,3.67,3.36,9.08,9.08,9.08a9.08,9.08,0,0,0,0-18.16Z"/><circle class="cls-7" cx="716.8" cy="483.2" r="9.74"/><circle class="cls-7" cx="716.8" cy="548.3" r="9.74"/><polyline class="cls-5" points="707.57 548.3 696.43 545.56 696.43 525.01"/><polyline class="cls-5" points="707.57 483.42 696.43 486.16 696.43 506.71"/><line class="cls-7" x1="673.92" y1="515.8" x2="684.33" y2="515.8"/><path class="cls-6" d="M484.1,116.61c0-4.28-3.66-7.21-6.64-7.74a5.4,5.4,0,0,0-1.19-.09c-3.17.1-7.83,2.89-7.83,7.83a7.83,7.83,0,0,0,15.66,0Z"/><path class="cls-6" d="M493.7,70.8c0-4.28-3.66-7.2-6.63-7.74a6.16,6.16,0,0,0-1.2-.09c-3.16.1-7.83,2.9-7.83,7.83a7.83,7.83,0,1,0,15.66,0Z"/><path class="cls-6" d="M529,51.53c0-4.28-3.66-7.2-6.63-7.74a7.11,7.11,0,0,0-1.2-.09c-3.16.11-7.83,2.9-7.83,7.83a7.83,7.83,0,1,0,15.66,0Z"/><path class="cls-6" d="M554.53,50.88c0-4.28-3.66-7.2-6.64-7.74a7,7,0,0,0-1.19-.09c-3.16.1-7.83,2.9-7.83,7.83a7.83,7.83,0,1,0,15.66,0Z"/><path class="cls-6" d="M581.82,75.11c0-4.28-3.66-7.2-6.64-7.74a6.08,6.08,0,0,0-1.19-.09c-3.16.1-7.83,2.9-7.83,7.83a7.83,7.83,0,1,0,15.66,0Z"/><path class="cls-6" d="M579.66,115.5c0-4.28-3.66-7.2-6.64-7.73a6.32,6.32,0,0,0-1.19-.1c-3.16.11-7.83,2.9-7.83,7.83a7.83,7.83,0,1,0,15.66,0Z"/><path class="cls-6" d="M550.62,133.05c0-4.28-3.66-7.21-6.64-7.74a5.36,5.36,0,0,0-1.19-.09c-3.16.1-7.83,2.9-7.83,7.83a7.83,7.83,0,0,0,15.66,0Z"/><path class="cls-6" d="M521.21,132.27c0-4.28-3.66-7.21-6.63-7.74a5.44,5.44,0,0,0-1.2-.09c-3.16.1-7.83,2.9-7.83,7.83a7.83,7.83,0,0,0,15.66,0Z"/><path class="cls-4" d="M245.77,195.81a7.87,7.87,0,0,0-6.35-7.41,5,5,0,0,0-1.15-.09c-3,.1-7.5,2.77-7.5,7.5a7.5,7.5,0,0,0,15,0Z"/><path class="cls-4" d="M278.49,194.74c0-5.63-4.81-9.48-8.73-10.18a8.14,8.14,0,0,0-1.56-.12c-4.17.14-10.3,3.81-10.3,10.3a10.3,10.3,0,1,0,20.59,0Z"/><path class="cls-4" d="M731.47,151.16c0-5.46-4.68-9.2-8.48-9.88a6.82,6.82,0,0,0-1.52-.11c-4,.12-10,3.69-10,10a10,10,0,0,0,20,0Z"/><path class="cls-4" d="M711.47,84.15c0-5.46-4.68-9.2-8.48-9.88a7,7,0,0,0-1.52-.12c-4,.13-10,3.7-10,10a10,10,0,0,0,20,0Z"/><path class="cls-6" d="M706.54,115.25c0-5.47-4.67-9.2-8.47-9.88a7.09,7.09,0,0,0-1.53-.12c-4,.13-10,3.7-10,10a10,10,0,0,0,10,10,10.37,10.37,0,0,0,9.27-6.23A9.75,9.75,0,0,0,706.54,115.25Z"/><path class="cls-6" d="M731.47,53.05c0-5.46-4.68-9.2-8.48-9.88a7.74,7.74,0,0,0-1.52-.12c-4,.13-10,3.7-10,10a10,10,0,0,0,20,0Z"/><path class="cls-8" d="M774.51,520.6a5.6,5.6,0,1,0,4,9.56,5.6,5.6,0,0,0-4-9.56Z"/><path class="cls-8" d="M793.12,528.88a18.28,18.28,0,0,0,.2-2.68,23.66,23.66,0,0,0-.16-2.68,17.78,17.78,0,0,0-.56-2.68l7.52-5.52-3.2-5.76-8.48,3.68a17.72,17.72,0,0,0-4.17-3.48,13.21,13.21,0,0,0-5.12-1.8L778,499h-7l-1.12,9a16.87,16.87,0,0,0-5.08,1.92,17.45,17.45,0,0,0-4.2,3.36l-8.48-3.68-3.2,5.76,7.52,5.52c-.21.91-.39,1.8-.52,2.68a18.06,18.06,0,0,0,0,5.36c.13.88.31,1.77.52,2.68l-7.52,5.52,3.2,5.76,8.48-3.68a20.71,20.71,0,0,0,4.28,3.28,19,19,0,0,0,5,2l1.12,9h7l1.12-9a18.82,18.82,0,0,0,5-2,20.77,20.77,0,0,0,4.29-3.28l8.48,3.68,3.2-5.76-7.52-5.52C792.81,530.65,793,529.76,793.12,528.88Zm-11.25,4.68a10.43,10.43,0,1,1,3-7.36A10,10,0,0,1,781.87,533.56Z"/><path class="cls-7" d="M774.51,515.8a10.38,10.38,0,1,0,7.36,3A10,10,0,0,0,774.51,515.8Zm4,14.36a5.6,5.6,0,1,1,1.64-4A5.4,5.4,0,0,1,778.47,530.16Z"/><path class="cls-7" d="M798.08,527.88c0-.59,0-1.15,0-1.68s0-1.11,0-1.72a12.69,12.69,0,0,0-.2-1.72l8.64-6.16-7.44-13.12-9.44,4.32a13.53,13.53,0,0,0-2.93-2,23.81,23.81,0,0,0-3.24-1.48l-1.6-10.08H767.15l-1.6,10.16a16.65,16.65,0,0,0-3.2,1.44,21.79,21.79,0,0,0-3,2L750,503.48l-7.44,13.12,8.64,6.32a9.55,9.55,0,0,0-.2,1.64c0,.61,0,1.16,0,1.64s0,1,0,1.64a9.55,9.55,0,0,0,.2,1.64l-8.64,6.32L750,548.92l9.44-4.32a22.75,22.75,0,0,0,3,2,21.26,21.26,0,0,0,3.2,1.52l1.6,10.08h14.72l1.6-10.08a13.68,13.68,0,0,0,3.24-1.48,27.66,27.66,0,0,0,2.93-2l9.44,4.32,7.44-13.12-8.64-6.24A12.46,12.46,0,0,0,798.08,527.88Zm2,9.2-3.2,5.76-8.48-3.68a20.77,20.77,0,0,1-4.29,3.28,18.82,18.82,0,0,1-5,2l-1.12,9h-7l-1.12-9a19,19,0,0,1-5-2,20.71,20.71,0,0,1-4.28-3.28l-8.48,3.68-3.2-5.76,7.52-5.52c-.21-.91-.39-1.8-.52-2.68a18.06,18.06,0,0,1,0-5.36c.13-.88.31-1.77.52-2.68l-7.52-5.52,3.2-5.76,8.48,3.68a17.45,17.45,0,0,1,4.2-3.36,16.87,16.87,0,0,1,5.08-1.92l1.12-9h7l1.12,9a13.21,13.21,0,0,1,5.12,1.8,17.72,17.72,0,0,1,4.17,3.48l8.48-3.68,3.2,5.76-7.52,5.52a17.78,17.78,0,0,1,.56,2.68,23.66,23.66,0,0,1,.16,2.68,18.28,18.28,0,0,1-.2,2.68c-.14.88-.31,1.77-.52,2.68Z"/><path class="cls-8" d="M774.51,449.55a5.6,5.6,0,1,0,0,11.2,5.6,5.6,0,1,0,0-11.2Z"/><path class="cls-8" d="M793.12,457.83a18.28,18.28,0,0,0,.2-2.68,23.8,23.8,0,0,0-.16-2.68,17.78,17.78,0,0,0-.56-2.68l7.52-5.52-3.2-5.76-8.48,3.68a18,18,0,0,0-4.17-3.48,13.55,13.55,0,0,0-5.12-1.8L778,428h-7l-1.12,9a16.87,16.87,0,0,0-5.08,1.92,18,18,0,0,0-4.2,3.36l-8.48-3.68-3.2,5.76,7.52,5.52c-.21.91-.39,1.8-.52,2.68a18.06,18.06,0,0,0,0,5.36c.13.88.31,1.78.52,2.68L748.91,466l3.2,5.77,8.48-3.69a20.75,20.75,0,0,0,4.28,3.29,19.3,19.3,0,0,0,5,2l1.12,9h7l1.12-9a19.16,19.16,0,0,0,5-2,20.81,20.81,0,0,0,4.29-3.29l8.48,3.69,3.2-5.77-7.52-5.52C792.81,459.61,793,458.71,793.12,457.83Zm-11.25,4.68a10.43,10.43,0,1,1,3-7.36A10,10,0,0,1,781.87,462.51Z"/><path class="cls-7" d="M798.08,453.65c0-.59,0-1.15,0-1.68s0-1.11,0-1.72a12.69,12.69,0,0,0-.2-1.72l8.64-6.16-7.44-13.12-9.44,4.32a13.7,13.7,0,0,0-2.92-2,25.81,25.81,0,0,0-3.25-1.48L781.87,420H767.15l-1.6,10.16a16.65,16.65,0,0,0-3.2,1.44,22.75,22.75,0,0,0-3,2L750,429.25l-7.44,13.12,8.64,6.32a9.55,9.55,0,0,0-.2,1.64c0,.61,0,1.16,0,1.64s0,1,0,1.64a9.55,9.55,0,0,0,.2,1.64l-8.64,6.32L750,474.69l9.44-4.32a21.79,21.79,0,0,0,3,2,21.26,21.26,0,0,0,3.2,1.52l1.6,10.08h14.72l1.6-10.08a13.93,13.93,0,0,0,3.25-1.48,25.71,25.71,0,0,0,2.92-2l9.44,4.32,7.44-13.12-8.64-6.24A12.46,12.46,0,0,0,798.08,453.65Z"/><path class="cls-9" d="M783.42,443.06A12.63,12.63,0,1,0,787.1,452,12.13,12.13,0,0,0,783.42,443.06Z"/><path class="cls-7" d="M774.51,445.19a6.78,6.78,0,1,0,4.8,2A6.54,6.54,0,0,0,774.51,445.19Z"/><path class="cls-7" d="M646.91,103.85c0-.48,0-.95,0-1.39s0-.92,0-1.43a10.19,10.19,0,0,0-.17-1.43l7.19-5.13-6.19-10.91-7.85,3.59a11.72,11.72,0,0,0-2.43-1.7,22.16,22.16,0,0,0-2.7-1.23l-1.33-8.38H621.19l-1.33,8.45a14.27,14.27,0,0,0-2.67,1.2,17.85,17.85,0,0,0-2.46,1.66l-7.85-3.59-6.19,10.91,7.19,5.26a7.53,7.53,0,0,0-.17,1.36c0,.51,0,1,0,1.37s0,.85,0,1.36a7.65,7.65,0,0,0,.17,1.37l-7.19,5.25,6.19,10.92,7.85-3.6a18.81,18.81,0,0,0,2.46,1.67,18.09,18.09,0,0,0,2.67,1.26l1.33,8.38h12.24l1.33-8.38a11.94,11.94,0,0,0,2.7-1.23,22.36,22.36,0,0,0,2.43-1.7l7.85,3.6,6.19-10.92-7.19-5.19A10.11,10.11,0,0,0,646.91,103.85Z"/><path class="cls-8" d="M104.35,216.9a5.72,5.72,0,1,0,4.05,1.68A5.52,5.52,0,0,0,104.35,216.9Z"/><path class="cls-8" d="M123.36,225.36a19.11,19.11,0,0,0,.2-2.74,22.48,22.48,0,0,0-.16-2.73,16.15,16.15,0,0,0-.58-2.74l7.69-5.64-3.27-5.89-8.67,3.76a18.21,18.21,0,0,0-4.25-3.55,13.62,13.62,0,0,0-5.23-1.84L108,194.83h-7.2L99.61,204a17.23,17.23,0,0,0-5.19,2,18,18,0,0,0-4.29,3.43l-8.67-3.76-3.27,5.89,7.69,5.64c-.22.92-.4,1.84-.53,2.74a17.92,17.92,0,0,0,0,5.47c.13.9.31,1.81.53,2.74l-7.69,5.64,3.27,5.89,8.67-3.76a21.31,21.31,0,0,0,4.37,3.35,19.3,19.3,0,0,0,5.11,2l1.14,9.16H108l1.14-9.16a19.3,19.3,0,0,0,5.11-2,21,21,0,0,0,4.37-3.35l8.67,3.76,3.27-5.89-7.69-5.64C123,227.17,123.22,226.26,123.36,225.36Zm-11.49,4.78a10.65,10.65,0,1,1,3.11-7.52A10.21,10.21,0,0,1,111.87,230.14Z"/><path class="cls-7" d="M104.35,212a10.6,10.6,0,1,0,7.52,3.1A10.24,10.24,0,0,0,104.35,212Zm4.05,14.67a5.73,5.73,0,1,1,1.67-4A5.52,5.52,0,0,1,108.4,226.67Z"/><path class="cls-7" d="M128.42,224.34c0-.6,0-1.17,0-1.72s0-1.13,0-1.75a10.51,10.51,0,0,0-.2-1.76l8.83-6.29-7.6-13.41-9.65,4.41a14.37,14.37,0,0,0-3-2.08,26.67,26.67,0,0,0-3.31-1.51l-1.64-10.3h-15L95.2,200.31a17.09,17.09,0,0,0-3.27,1.47,22.48,22.48,0,0,0-3,2l-9.64-4.41-7.61,13.41,8.83,6.45a9,9,0,0,0-.2,1.68c0,.63,0,1.18,0,1.67s0,1,0,1.68a9,9,0,0,0,.2,1.68l-8.83,6.45,7.61,13.41,9.64-4.41a23.45,23.45,0,0,0,3,2A21.7,21.7,0,0,0,95.2,245l1.63,10.3h15l1.64-10.3a14.46,14.46,0,0,0,3.31-1.51,28.62,28.62,0,0,0,3-2.08l9.65,4.41,7.6-13.41-8.83-6.37A10.52,10.52,0,0,0,128.42,224.34Zm2.09,9.4-3.27,5.89-8.67-3.76a21,21,0,0,1-4.37,3.35,19.3,19.3,0,0,1-5.11,2L108,250.42h-7.2l-1.14-9.16a19.3,19.3,0,0,1-5.11-2,21.31,21.31,0,0,1-4.37-3.35l-8.67,3.76-3.27-5.89,7.69-5.64c-.22-.93-.4-1.84-.53-2.74a17.92,17.92,0,0,1,0-5.47c.13-.9.31-1.82.53-2.74l-7.69-5.64,3.27-5.89,8.67,3.76A18,18,0,0,1,94.42,206a17.23,17.23,0,0,1,5.19-2l1.14-9.16H108l1.14,9.16a13.62,13.62,0,0,1,5.23,1.84,18.21,18.21,0,0,1,4.25,3.55l8.67-3.76,3.27,5.89-7.69,5.64a16.15,16.15,0,0,1,.58,2.74,22.48,22.48,0,0,1,.16,2.73,19.11,19.11,0,0,1-.2,2.74c-.14.9-.32,1.81-.54,2.74Z"/><rect class="cls-7" x="680.21" y="249.95" width="83.68" height="25.36" rx="2.7"/><rect class="cls-7" x="680.21" y="359.15" width="83.68" height="25.36" rx="2.7"/><polygon class="cls-4" points="722.05 296.37 764.02 325.75 722.05 354.39 680.07 325.75 722.05 296.37"/><rect class="cls-4" x="680.21" y="205.65" width="83.68" height="25.36"/><polyline class="cls-5" points="716.47 240.1 722.16 247.3 727.63 240.1"/><line class="cls-5" x1="722.05" y1="246.63" x2="722.05" y2="233.66"/><polyline class="cls-5" points="716.47 284.41 722.16 291.6 727.63 284.41"/><line class="cls-5" x1="722.05" y1="290.93" x2="722.05" y2="277.96"/><polyline class="cls-5" points="664.42 268.21 671.62 262.52 664.42 257.05"/><polyline class="cls-5" points="681.15 325.38 636.49 325.38 636.49 262.63 670.1 262.63"/><polyline class="cls-5" points="777.53 365.33 770.33 371.03 777.53 376.49"/><polyline class="cls-5" points="763.49 325.38 805.96 325.38 805.96 370.91 770.67 370.91"/><rect class="cls-7" x="89.3" y="94.68" width="54.95" height="20.25" rx="1.95" transform="translate(11.97 221.58) rotate(-90)"/><rect class="cls-7" x="176.49" y="94.68" width="54.95" height="20.25" rx="1.95" transform="translate(99.16 308.77) rotate(-90)"/><polygon class="cls-4" points="143.71 104.8 167.17 77.24 190.04 104.8 167.17 132.37 143.71 104.8"/><rect class="cls-4" x="53.92" y="94.68" width="54.95" height="20.25" transform="translate(-23.41 186.2) rotate(-90)"/><polyline class="cls-5" points="98.79 109.26 104.53 104.71 98.79 100.35"/><line class="cls-5" x1="104" y1="104.8" x2="93.64" y2="104.8"/><polyline class="cls-5" points="134.16 109.26 139.91 104.71 134.16 100.35"/><line class="cls-5" x1="139.37" y1="104.8" x2="129.01" y2="104.8"/><polyline class="cls-5" points="121.23 146 116.68 140.25 112.32 146"/><polyline class="cls-5" points="166.88 132.65 166.88 168.3 116.77 168.3 116.77 141.47"/><polyline class="cls-5" points="198.78 66.07 203.32 71.81 207.69 66.07"/><polyline class="cls-5" points="166.88 77.28 166.88 43.37 203.24 43.37 203.24 71.54"/><rect class="cls-7" x="323.88" y="171.74" width="48.16" height="17.75" rx="1.71" transform="translate(167.35 528.58) rotate(-90)"/><rect class="cls-7" x="440" y="171.74" width="48.16" height="17.75" rx="1.71" transform="translate(283.46 644.69) rotate(-90)"/><rect class="cls-7" x="422.51" y="171.74" width="29.08" height="17.75" rx="1.33" transform="translate(256.44 617.67) rotate(-90)"/><polygon class="cls-4" points="378.69 180.62 399.25 156.46 419.29 180.62 399.25 204.78 378.69 180.62"/><rect class="cls-4" x="284.86" y="171.74" width="48.16" height="17.75" transform="translate(128.33 489.56) rotate(-90)"/><polyline class="cls-5" points="328.19 184.52 333.23 180.54 328.19 176.71"/><line class="cls-5" x1="332.76" y1="180.62" x2="323.68" y2="180.62"/><polyline class="cls-5" points="367.5 184.52 372.53 180.54 367.5 176.71"/><line class="cls-5" x1="372.06" y1="180.62" x2="362.99" y2="180.62"/><polyline class="cls-5" points="402.89 214.66 398.91 209.62 395.08 214.66"/><polyline class="cls-5" points="433.14 155.3 437.13 160.34 440.96 155.3"/><path class="cls-6" d="M338.84,56.76c0,6.78-5.79,11.41-10.5,12.25a9,9,0,0,1-1.89.15c-5-.16-12.4-4.59-12.4-12.4a12.4,12.4,0,0,1,24.79,0Z"/><path class="cls-6" d="M248.34,159.39c0,6.78-5.8,11.41-10.51,12.26a9.47,9.47,0,0,1-1.89.14c-5-.16-12.39-4.59-12.39-12.4a12.4,12.4,0,0,1,24.79,0Z"/><polyline class="cls-5" points="314.05 56.76 290.22 56.76 269.7 159.4 247.4 159.4"/><polyline class="cls-5" points="731.47 52.94 741.51 62.05 741.51 142.5 731.47 151.16"/><path class="cls-5" d="M711.73,80.94c2.79-.09,6.23.1,7.11,2.22,1.11,2.67-1.7,6.59-.44,9.33s9.11,1.25,10.67.89a26.13,26.13,0,0,0,12.44-7.11"/><path class="cls-5" d="M706.54,118.27c4.86,4.59,11.55,6,16.35,3.78,2.36-1.1,2.45-3.2,5.13-5.11,3.82-2.72,9-2.61,12.93-2"/><path class="cls-4" d="M761.45,151.11c0-5.47,4.67-9.2,8.47-9.89a7.55,7.55,0,0,1,1.53-.11c4,.13,10,3.7,10,10a10,10,0,0,1-20,0Z"/><path class="cls-10" d="M787,208.13c0-5.47,4.67-9.2,8.48-9.88a7,7,0,0,1,1.52-.12c4,.13,10,3.7,10,10a10,10,0,0,1-20,0Z"/><path class="cls-11" d="M791.87,254.6a7.87,7.87,0,0,1,6.36-7.41,4.91,4.91,0,0,1,1.14-.09c3,.1,7.5,2.77,7.5,7.5a7.5,7.5,0,1,1-15,0Z"/><path class="cls-11" d="M737.55,407.17c0-4.1,3.5-6.9,6.35-7.42a5.47,5.47,0,0,1,1.15-.08c3,.1,7.5,2.77,7.5,7.5a7.5,7.5,0,1,1-15,0Z"/><path class="cls-11" d="M654,439.52c0-4.1,3.51-6.9,6.36-7.41a5,5,0,0,1,1.14-.09c3,.1,7.5,2.77,7.5,7.5a7.5,7.5,0,0,1-15,0Z"/><path class="cls-4" d="M781.45,84.1c0-5.47,4.67-9.21,8.47-9.89a7.55,7.55,0,0,1,1.53-.11c4,.13,10,3.7,10,10a10,10,0,0,1-20,0Z"/><path class="cls-6" d="M786.37,115.2c0-5.47,4.67-9.21,8.48-9.89a7.47,7.47,0,0,1,1.52-.11c4,.13,10,3.69,10,10a10,10,0,0,1-10,10A10.38,10.38,0,0,1,787.1,119,10,10,0,0,1,786.37,115.2Z"/><path class="cls-6" d="M761.45,53c0-5.47,4.67-9.21,8.47-9.89a7.55,7.55,0,0,1,1.53-.11c4,.13,10,3.7,10,10a10,10,0,0,1-20,0Z"/><polyline class="cls-5" points="761.45 52.88 751.4 61.99 751.4 142.44 761.45 151.11"/><path class="cls-5" d="M781.18,80.88c-2.79-.09-6.23.1-7.11,2.23-1.11,2.66,1.7,6.59.44,9.33s-9.11,1.25-10.66.89a26.16,26.16,0,0,1-12.45-7.11"/><path class="cls-5" d="M786.37,118.22c-4.86,4.58-11.55,6-16.35,3.77-2.36-1.09-2.45-3.2-5.13-5.11-3.82-2.71-9-2.6-12.93-2"/><rect class="cls-9" x="337.89" y="240.51" width="220.41" height="131.91"/><rect class="cls-12" x="354.32" y="256.91" width="13.24" height="99.21"/><rect class="cls-12" x="371.85" y="256.91" width="7.13" height="99.21"/><rect class="cls-12" x="383.35" y="256.91" width="7.05" height="99.21"/><rect class="cls-12" x="425.95" y="256.91" width="5.33" height="99.21"/><rect class="cls-12" x="461.71" y="256.91" width="6.2" height="99.21"/><rect class="cls-12" x="448.09" y="256.86" width="6.2" height="99.21"/><rect class="cls-12" x="470.99" y="256.91" width="6.2" height="99.21"/><rect class="cls-12" x="480.83" y="256.91" width="11.07" height="99.21"/><rect class="cls-12" x="496.1" y="256.91" width="5.07" height="99.21"/><rect class="cls-12" x="416.42" y="256.91" width="5.7" height="99.21"/><rect class="cls-12" x="437.57" y="256.91" width="7.42" height="99.21"/><rect class="cls-12" x="508.12" y="256.91" width="16.18" height="99.21"/><rect class="cls-12" x="528.86" y="256.91" width="5.55" height="99.21"/><rect class="cls-12" x="537.63" y="256.91" width="5.55" height="99.21"/><rect class="cls-12" x="402.18" y="256.91" width="10.74" height="99.21"/><path class="cls-5" d="M76.11,371.42V360.49l47.5-.88s22,1.35,16.8,16.6c0,0-1.91,4.48-2.79,6.68-.8,2,11.3,15.94,13.1,18.36a7.69,7.69,0,0,1,.71,1.13c.66,1.49,2.21,5.95-1.62,7.69a67,67,0,0,0-7.07,3.61l-3,21a9.78,9.78,0,0,1-2.63,5.46,6.71,6.71,0,0,1-5.2,2.34c-3-.16-16.29.89-19.49,1.15a2.36,2.36,0,0,0-1.48.67,5.46,5.46,0,0,0-1.47,4.36v3.29H76.11L76,413.28"/><circle class="cls-13" cx="75.99" cy="376.95" r="5.52"/><circle class="cls-12" cx="113.34" cy="382.47" r="5.52"/><polyline class="cls-14" points="81.51 376.95 88.85 376.95 99.05 382.47 107.82 382.47"/><circle class="cls-15" cx="113.34" cy="399.32" r="5.52"/><circle class="cls-13" cx="75.99" cy="392.16" r="5.52"/><polyline class="cls-14" points="81.51 392.17 88.25 392.17 100.74 399.32 107.82 399.32"/><circle class="cls-12" cx="113.34" cy="415.8" r="5.52"/><circle class="cls-13" cx="75.99" cy="407.76" r="5.52"/><polyline class="cls-14" points="81.51 407.76 87.27 407.76 97.36 416.65 107.55 416.65"/><path class="cls-5" d="M514.91,212.86h-8.45l-.69-36.71s1.05-17,12.84-13c0,0,3.46,1.48,5.16,2.16s12.31-8.73,14.18-10.12a5.88,5.88,0,0,1,.87-.55c1.15-.51,4.61-1.71,5.95,1.25a51.16,51.16,0,0,0,2.79,5.46l16.2,2.32a7.45,7.45,0,0,1,4.22,2,5.18,5.18,0,0,1,1.81,4c-.13,2.28.69,12.58.89,15.06a1.84,1.84,0,0,0,.51,1.14,4.28,4.28,0,0,0,3.38,1.14h2.53v25.78l-29.85.09"/><circle class="cls-13" cx="519.17" cy="212.95" r="4.27"/><circle class="cls-12" cx="523.44" cy="184.09" r="4.27"/><polyline class="cls-14" points="519.17 208.69 519.17 203.02 523.44 195.14 523.44 188.36"/><circle class="cls-15" cx="536.46" cy="184.09" r="4.27"/><circle class="cls-13" cx="530.93" cy="212.95" r="4.27"/><polyline class="cls-14" points="530.93 208.69 530.93 203.48 536.46 193.83 536.46 188.36"/><circle class="cls-12" cx="549.2" cy="184.09" r="4.27"/><circle class="cls-13" cx="542.98" cy="212.95" r="4.27"/><polyline class="cls-14" points="542.98 208.69 542.98 204.24 549.85 196.44 549.85 188.56"/><polyline class="cls-5" points="668.95 440.52 729.39 440.52 744.3 414.97"/><rect class="cls-11" x="513.38" y="76.63" width="31.32" height="31.32"/><polyline class="cls-5" points="492.41 75.11 499.46 76.63 502.94 88.29 513.38 88.29"/><polyline class="cls-5" points="484.1 115.5 490.59 115.5 490.59 106.5 502.9 101.69 513.38 101.69"/><polyline class="cls-5" points="514.58 124.53 514.58 119.78 522.95 115.5 522.95 108.78"/><polyline class="cls-5" points="536.35 108.15 546.7 120.65 545.68 125.85"/><path class="cls-5" d="M545.4,99.8c.69-.2,8.18.52,8.18.52l4.32,10.24,6.1,4.94"/><polyline class="cls-5" points="545.4 88.29 553.23 88.29 567.5 79.5"/><polyline class="cls-5" points="545.4 58.71 545.4 63.76 538.61 70.54 538.61 76.01"/><polyline class="cls-5" points="522.26 59.49 518.08 67.28 524.17 76.01"/><circle class="cls-2" cx="200.39" cy="407.61" r="34.63"/><path class="cls-2" d="M200.39,440.9V374.82S157.75,409.43,200.39,440.9Z"/><path class="cls-2" d="M200.61,440.71V374.62S243.47,407,200.61,440.71Z"/><line class="cls-2" x1="165.76" y1="407.61" x2="235.02" y2="407.61"/><rect class="cls-4" x="614.35" y="94.21" width="25.86" height="16.49" rx="2.98"/><rect class="cls-16" x="618.17" y="97.18" width="18.22" height="4.07" rx="0.82"/><rect class="cls-4" x="641.27" y="98.3" width="2.65" height="9.54" rx="0.82"/><rect class="cls-4" x="611.7" y="98.3" width="2.65" height="9.54" rx="0.82"/><line class="cls-17" x1="623.2" y1="106.89" x2="631.36" y2="106.89"/><rect class="cls-18" x="70.8" y="536.73" width="185.86" height="17.25"/><circle class="cls-19" cx="114.62" cy="544.91" r="4.13"/><circle class="cls-19" cx="81.85" cy="544.91" r="4.13"/><circle class="cls-19" cx="147.4" cy="544.91" r="4.13"/><circle class="cls-19" cx="180.17" cy="544.91" r="4.13"/><circle class="cls-19" cx="212.95" cy="544.91" r="4.13"/><circle class="cls-19" cx="245.73" cy="544.91" r="4.13"/><polygon class="cls-19" points="98.08 534.52 86.82 534.52 86.82 532.69 75.81 532.69 75.81 534.52 70.8 534.52 70.8 536.73 98.08 536.73 98.08 534.52"/><polygon class="cls-19" points="119.85 534.52 108.6 534.52 108.6 532.69 97.59 532.69 97.59 534.52 92.57 534.52 92.57 536.73 119.85 536.73 119.85 534.52"/><polygon class="cls-19" points="142.72 534.52 131.47 534.52 131.47 532.69 120.46 532.69 120.46 534.52 115.44 534.52 115.44 536.73 142.72 536.73 142.72 534.52"/><polygon class="cls-19" points="164.64 534.52 153.39 534.52 153.39 532.69 142.38 532.69 142.38 534.52 137.36 534.52 137.36 536.73 164.64 536.73 164.64 534.52"/><polygon class="cls-19" points="187.4 534.52 176.14 534.52 176.14 532.69 165.13 532.69 165.13 534.52 160.12 534.52 160.12 536.73 187.4 536.73 187.4 534.52"/><polygon class="cls-19" points="211.13 534.52 199.87 534.52 199.87 532.69 188.87 532.69 188.87 534.52 183.85 534.52 183.85 536.73 211.13 536.73 211.13 534.52"/><polygon class="cls-19" points="232.9 534.52 221.65 534.52 221.65 532.69 210.64 532.69 210.64 534.52 205.62 534.52 205.62 536.73 232.9 536.73 232.9 534.52"/><polygon class="cls-19" points="256.66 534.52 245.04 534.52 245.04 532.69 233.68 532.69 233.68 534.52 228.5 534.52 228.5 536.73 256.66 536.73 256.66 534.52"/><polygon class="cls-19" points="229.38 556.32 240.63 556.32 240.63 558.16 251.64 558.16 251.64 556.32 256.66 556.32 256.66 554.12 229.38 554.12 229.38 556.32"/><polygon class="cls-19" points="206.5 556.32 217.75 556.32 217.75 558.16 228.76 558.16 228.76 556.32 233.78 556.32 233.78 554.12 206.5 554.12 206.5 556.32"/><polygon class="cls-19" points="184.58 556.32 195.84 556.32 195.84 558.16 206.84 558.16 206.84 556.32 211.86 556.32 211.86 554.12 184.58 554.12 184.58 556.32"/><polygon class="cls-19" points="161.83 556.32 173.08 556.32 173.08 558.16 184.09 558.16 184.09 556.32 189.11 556.32 189.11 554.12 161.83 554.12 161.83 556.32"/><polygon class="cls-19" points="139.49 556.32 150.74 556.32 150.74 558.16 161.75 558.16 161.75 556.32 166.76 556.32 166.76 554.12 139.49 554.12 139.49 556.32"/><polygon class="cls-19" points="117.71 556.32 128.97 556.32 128.97 558.16 139.98 558.16 139.98 556.32 144.99 556.32 144.99 554.12 117.71 554.12 117.71 556.32"/><polygon class="cls-19" points="94.83 556.32 106.09 556.32 106.09 558.16 117.1 558.16 117.1 556.32 122.11 556.32 122.11 554.12 94.83 554.12 94.83 556.32"/><polygon class="cls-19" points="70.8 556.32 82.93 556.32 82.93 558.16 94.79 558.16 94.79 556.32 100.2 556.32 100.2 554.12 70.8 554.12 70.8 556.32"/><rect class="cls-20" x="82.55" y="477.53" width="76.24" height="51.39"/><rect class="cls-19" x="95.91" y="477.53" width="5.85" height="51.39"/><rect class="cls-19" x="117.06" y="477.53" width="9.21" height="10.33"/><rect class="cls-19" x="117.06" y="518.6" width="9.21" height="10.33"/><rect class="cls-21" x="137.83" y="484.47" width="16.92" height="9.7"/><rect class="cls-22" x="139.9" y="485.96" width="1.33" height="6.72"/><rect class="cls-21" x="143.42" y="485.96" width="0.4" height="6.72"/><rect class="cls-21" x="145.38" y="485.96" width="0.33" height="6.72"/><rect class="cls-21" x="147.76" y="485.96" width="0.98" height="6.72"/><rect class="cls-22" x="151.35" y="485.96" width="1.33" height="6.72"/><rect class="cls-23" x="143.81" y="498.21" width="9.67" height="6.56"/><rect class="cls-20" x="169.01" y="477.53" width="76.24" height="51.39"/><rect class="cls-19" x="182.37" y="477.53" width="5.85" height="51.39"/><rect class="cls-19" x="203.52" y="477.53" width="9.21" height="10.33"/><rect class="cls-19" x="203.52" y="518.6" width="9.21" height="10.33"/><rect class="cls-21" x="224.29" y="484.47" width="16.92" height="9.7"/><rect class="cls-22" x="226.36" y="485.96" width="1.33" height="6.72"/><rect class="cls-21" x="229.87" y="485.96" width="0.4" height="6.72"/><rect class="cls-21" x="231.83" y="485.96" width="0.33" height="6.72"/><rect class="cls-21" x="237.29" y="485.96" width="0.33" height="6.72"/><rect class="cls-21" x="234.21" y="485.96" width="0.98" height="6.72"/><rect class="cls-22" x="237.81" y="485.96" width="1.33" height="6.72"/><rect class="cls-23" x="230.27" y="498.21" width="9.67" height="6.56"/><circle class="cls-3" cx="642.75" cy="418.84" r="6.77"/><path class="cls-6" d="M586.76,439.76a7.11,7.11,0,0,1,5.74-6.69,5.87,5.87,0,0,1,1-.08c2.73.09,6.77,2.51,6.77,6.77a6.77,6.77,0,1,1-13.54,0Z"/><circle class="cls-24" cx="562.14" cy="419.77" r="7.26"/><polyline class="cls-5" points="565.84 426.61 574.49 439.76 586.66 439.76"/><polyline class="cls-5" points="600.3 439.76 628.48 439.76 642.75 425.94"/><circle class="cls-25" cx="195.21" cy="202.34" r="19.45"/><circle class="cls-9" cx="195.21" cy="202.34" r="14.95"/><rect class="cls-25" x="212.61" y="210.57" width="24.16" height="6.31" rx="2.2" transform="translate(86.84 -64.05) rotate(20.04)"/><path class="cls-9" d="M186.93,207.23s-3.86-4.9,1-11.67"/><path class="cls-7" d="M689.93,60.34c0,9.64-9.24,17.46-20.64,17.46-7.5,0-14.07-3.39-17.68-8.46a15.45,15.45,0,0,1-3-9c0-9.63,9.24-17.45,20.63-17.45S689.93,50.71,689.93,60.34Z"/><path class="cls-7" d="M653.05,69.52s-1.91,3.65-5.73,4.16,7.95,4.71,12.51.75"/><polyline class="cls-5" points="464.08 204.78 464.08 217.04 398.99 217.04 398.99 210.91"/><polyline class="cls-5" points="399.25 156.46 398.99 137.08 437.05 137.08 437.05 159.05"/><line class="cls-5" x1="445.82" y1="180.62" x2="455.74" y2="180.62"/><path class="cls-26" d="M182.88,285.73c0-5.47-4.67-9.21-8.47-9.89a7.5,7.5,0,0,0-1.52-.11c-4,.13-10,3.7-10,10a10,10,0,1,0,20,0Z"/><line class="cls-26" x1="172.89" y1="295.73" x2="172.89" y2="327.01"/><path class="cls-26" d="M201.84,258.41c0-5.47-4.67-9.2-8.47-9.88a7.09,7.09,0,0,0-1.53-.12c-4,.13-10,3.7-10,10a10,10,0,1,0,20,0Z"/><line class="cls-26" x1="191.84" y1="268.41" x2="191.84" y2="327.01"/><path class="cls-26" d="M220.8,285.73c0-5.47-4.67-9.21-8.48-9.89a7.47,7.47,0,0,0-1.52-.11c-4,.13-10,3.7-10,10a10,10,0,0,0,20,0Z"/><line class="cls-26" x1="210.8" y1="295.73" x2="210.8" y2="327.01"/><line class="cls-26" x1="162.89" y1="326.71" x2="220.8" y2="326.71"/><rect class="cls-6" x="574.12" y="531.86" width="36.18" height="26.02" rx="2.69"/><path class="cls-5" d="M584.43,532.13l-.48-7.85s-.21-4.88,4.7-4.72l8.59-.52s2.68,0,2.85,3.38.38,6.32.38,6.32"/><circle class="cls-27" cx="592.21" cy="545.06" r="2.04"/><rect class="cls-27" x="591.51" y="547.1" width="1.4" height="2.8" rx="0.68"/><circle class="cls-2" cx="634.81" cy="189.9" r="29.25"/><circle class="cls-2" cx="634.81" cy="189.9" r="21.42"/><path class="cls-2" d="M634.81,210.5V169.62S608.43,191,634.81,210.5Z"/><path class="cls-2" d="M634.94,210.38V169.5S661.46,189.51,634.94,210.38Z"/><line class="cls-2" x1="613.38" y1="189.9" x2="656.23" y2="189.9"/><circle class="cls-3" cx="638.93" cy="345.04" r="8"/><circle class="cls-25" cx="296.34" cy="444.01" r="8"/><circle class="cls-25" cx="256.71" cy="409.08" r="8"/><circle class="cls-3" cx="332.88" cy="444.01" r="8"/><line class="cls-25" x1="306.94" y1="444.01" x2="322.81" y2="444.01"/><polyline class="cls-5" points="285.74 444.17 276.37 444.17 261.03 418"/><rect class="cls-28" x="465.08" y="340.3" width="130.52" height="51.99" rx="9.81" transform="translate(-71.34 135.18) rotate(-13.62)"/><rect class="cls-29" x="473.25" y="347.8" width="114.18" height="37" rx="7.76" transform="translate(-71.34 135.18) rotate(-13.62)"/><path class="cls-28" d="M488.71,382.22a2.88,2.88,0,0,0,3.57,1.42c3.11-.76,2.52-4.68,2-7.21a5.66,5.66,0,0,1-4.15,3c-4.56,1.11-7.91-1.44-8.89-5.48-1.07-4.4,1.13-8.48,6.24-9.72,6.23-1.51,9.54,2.87,10.88,8.42,1.53,6.31,1.51,13.15-5.42,14.83-5.13,1.24-8-1.43-9.06-4.1Zm-2.64-9.69c.55,2.28,2.2,3.37,4.27,2.87s3-1.9,2.41-4.37c-.37-1.51-1.54-3.68-4.27-3C486.26,368.55,485.56,370.44,486.07,372.53Z"/><path class="cls-28" d="M507.9,377.57a2.88,2.88,0,0,0,3.57,1.42c3.11-.76,2.52-4.69,2-7.21a5.68,5.68,0,0,1-4.15,3c-4.57,1.11-7.92-1.44-8.9-5.48-1.06-4.4,1.14-8.48,6.24-9.72,6.23-1.51,9.55,2.87,10.89,8.42,1.53,6.31,1.5,13.15-5.42,14.83-5.14,1.24-8-1.43-9.07-4.1Zm-2.64-9.69c.56,2.28,2.2,3.37,4.27,2.87s3-1.91,2.41-4.37c-.36-1.51-1.54-3.68-4.27-3C505.45,363.9,504.76,365.79,505.26,367.88Z"/><path class="cls-28" d="M523.18,379.74l-1.45-6,5.16-1.25,1.45,6Z"/><path class="cls-28" d="M534.73,371.06a2.88,2.88,0,0,0,3.57,1.42c3.12-.75,2.52-4.68,2.05-7.2a5.68,5.68,0,0,1-4.15,3c-4.56,1.1-7.91-1.44-8.89-5.48-1.07-4.4,1.13-8.49,6.23-9.72,6.23-1.51,9.55,2.87,10.89,8.41,1.53,6.32,1.5,13.16-5.42,14.84-5.13,1.24-8-1.43-9.07-4.1Zm-2.64-9.68c.56,2.28,2.21,3.37,4.27,2.87s3-1.91,2.41-4.38c-.36-1.5-1.53-3.67-4.26-3C532.29,357.4,531.59,359.29,532.09,361.38Z"/><path class="cls-28" d="M557.92,354c.93,3.84-.61,7-4.39,7.94-3.57.87-6.47-.78-7.51-5.05-.87-3.62.54-6.95,4.42-7.89C553.91,348.11,556.89,349.71,557.92,354Zm-8.19,2c.54,2.22,1.63,3.24,3.1,2.88s2-1.63,1.47-4-1.74-3.14-3.12-2.8S549.18,353.65,549.73,355.93Zm6.15,15.89L564,346.07l3.52-.85L559.38,371Zm21.49-11.62c.93,3.83-.6,7-4.38,7.94-3.59.87-6.48-.8-7.51-5.05-.88-3.62.53-6.95,4.41-7.89C573.37,354.36,576.35,356,577.37,360.2Zm-8.19,2c.54,2.22,1.63,3.23,3.11,2.88s2-1.63,1.46-4-1.74-3.14-3.12-2.8S568.63,359.92,569.18,362.18Z"/><path class="cls-8" d="M605.74,247.17a10.79,10.79,0,0,0-3.84-.68,11,11,0,0,0-8.11,3.46,11.42,11.42,0,0,0-3.46,8.11,11.35,11.35,0,0,0,4.12,8.71l10.6,8.82L619.66,258l-10.54-8.82A11.34,11.34,0,0,0,605.74,247.17Z"/><path class="cls-8" d="M605.74,247.17a10.79,10.79,0,0,0-3.84-.68,11,11,0,0,0-8.11,3.46,11.42,11.42,0,0,0-3.46,8.11,11.35,11.35,0,0,0,4.12,8.71l10.6,8.82L619.66,258l-10.54-8.82A11.34,11.34,0,0,0,605.74,247.17Z"/><path class="cls-19" d="M622.12,256.8a4.68,4.68,0,0,0-1.2-1.54l-9.74-8.08a16.34,16.34,0,0,0-4.24-2.58,12.88,12.88,0,0,0-4.93-.91,15.89,15.89,0,0,0-7,1.71,15.2,15.2,0,0,0-6,5.45,4.36,4.36,0,0,0-1.58-2.67,4.55,4.55,0,0,0-2.95-1.06H579.9v18.34h4.58a4.3,4.3,0,0,0,1.84-.41,5.08,5.08,0,0,0,1.49-1,15.7,15.7,0,0,0,1.77,3.27,15.22,15.22,0,0,0,2.58,2.81l9.68,8.07a5.4,5.4,0,0,0,1.32.81,3.84,3.84,0,0,0,1.49.28,5.2,5.2,0,0,0,3.67-1.72l13.17-15.87a4.16,4.16,0,0,0,.86-1.49,5.07,5.07,0,0,0,.23-1.48A4.19,4.19,0,0,0,622.12,256.8ZM605.05,276l-10.6-8.82a11.31,11.31,0,0,1-4.12-8.71,11.41,11.41,0,0,1,3.46-8.1,11,11,0,0,1,8.11-3.47,10.79,10.79,0,0,1,3.84.69,11.52,11.52,0,0,1,3.38,2l10.54,8.83Z"/><path class="cls-8" d="M598.74,459.17a10.79,10.79,0,0,0-3.84-.68,11,11,0,0,0-8.11,3.46,11.42,11.42,0,0,0-3.46,8.11,11.35,11.35,0,0,0,4.12,8.71l10.6,8.82L612.66,470l-10.54-8.82A11.34,11.34,0,0,0,598.74,459.17Z"/><path class="cls-8" d="M601.16,458.36a11.8,11.8,0,0,0-12.6,2.94,12,12,0,0,0-3.66,8.55,11.73,11.73,0,0,0,1.12,5,11.58,11.58,0,0,0,3.23,4.17l11.18,9.31,15.41-18.55-11.12-9.31A11.88,11.88,0,0,0,601.16,458.36Z"/><path class="cls-19" d="M618.44,468.53a5,5,0,0,0-1.27-1.64l-10.27-8.52a17.4,17.4,0,0,0-4.47-2.72,13.68,13.68,0,0,0-5.2-1,16.63,16.63,0,0,0-7.43,1.81,16,16,0,0,0-6.29,5.74,4.61,4.61,0,0,0-1.66-2.81,4.76,4.76,0,0,0-3.11-1.12H573.9v19.34h4.84a4.53,4.53,0,0,0,1.93-.42,5.51,5.51,0,0,0,1.57-1.09,17,17,0,0,0,1.87,3.45,16.51,16.51,0,0,0,2.72,3l10.22,8.52a5.43,5.43,0,0,0,1.39.84,3.89,3.89,0,0,0,1.57.31,4.94,4.94,0,0,0,2-.49,5,5,0,0,0,1.82-1.33l13.9-16.74a4.52,4.52,0,0,0,.9-1.57,5,5,0,0,0,.25-1.57A4.4,4.4,0,0,0,618.44,468.53Zm-18,20.27-11.18-9.31a11.58,11.58,0,0,1-3.23-4.17,11.73,11.73,0,0,1-1.12-5,12,12,0,0,1,3.66-8.55,11.56,11.56,0,0,1,8.55-3.66,11.31,11.31,0,0,1,4,.73,11.64,11.64,0,0,1,3.56,2.11l11.12,9.31Z"/><path class="cls-4" d="M301.19,534.65a6.67,6.67,0,1,0,6.62,6.58,6.33,6.33,0,0,0-1.9-4.69A6.46,6.46,0,0,0,301.19,534.65Z"/><path class="cls-4" d="M320.27,527.05a2.86,2.86,0,0,0-2.08-.92h-7.35l-3.65-4.35h-12l-3.65,4.35h-7.35a2.82,2.82,0,0,0-2.1.92,2.92,2.92,0,0,0-.9,2.08v25.65a3.08,3.08,0,0,0,3,3h34a2.92,2.92,0,0,0,2.08-.9,2.86,2.86,0,0,0,.92-2.1V529.13A2.9,2.9,0,0,0,320.27,527.05Zm-4,26.19H286.12V530.49h7.76l3.23-3.86h8.16l3.24,3.86h7.76Z"/><rect class="cls-9" x="388.28" y="410.86" width="33.57" height="33.57" rx="2.48"/><rect class="cls-30" x="397.53" y="420.11" width="15.07" height="15.07" rx="2.64"/><rect class="cls-9" x="489.35" y="410.86" width="33.57" height="33.57" rx="2.48"/><rect class="cls-30" x="500.26" y="419.7" width="4.84" height="15.89" rx="1.53"/><rect class="cls-30" x="507.18" y="419.7" width="4.84" height="15.89" rx="1.53"/><rect class="cls-9" x="438.82" y="410.86" width="33.57" height="33.57" rx="2.48"/><path class="cls-30" d="M450.76,421.13v13a.81.81,0,0,0,1.2.75l10.66-6.47a.9.9,0,0,0,0-1.5L452,420.38A.81.81,0,0,0,450.76,421.13Z"/><path class="cls-7" d="M320.79,473.77a3,3,0,0,0-2.16-.92H283.75a3.14,3.14,0,0,0-3.07,3.08v24.62a3.16,3.16,0,0,0,3.07,3.08h14.37L293.81,508v1.79h14.77V508l-4.31-4.36h14.36a3.16,3.16,0,0,0,3.08-3.08V475.93A3,3,0,0,0,320.79,473.77Zm-4,21.62H285.66V477.58h31.11Z"/><path class="cls-30" d="M392.13,62.36V78.88a1,1,0,0,0,1.52,1l13.51-8.2a1.14,1.14,0,0,0,0-1.91l-13.51-8.31A1,1,0,0,0,392.13,62.36Z"/><path class="cls-7" d="M436.1,45.39a5.84,5.84,0,0,0-4.26-1.82H362.92a6.22,6.22,0,0,0-6.08,6.08V98.3a6.24,6.24,0,0,0,6.08,6.09H391.3L382.79,113v3.55H412V113l-8.52-8.61h28.38a6.26,6.26,0,0,0,6.09-6.09V49.65A5.84,5.84,0,0,0,436.1,45.39ZM428.16,88.1H366.68V52.91h61.48Z"/></g></g></svg>