<svg xmlns="http://www.w3.org/2000/svg" viewBox="0 0 878 601"><defs><style>.cls-1{fill:#f5fdff;}.cls-2{fill:#d2e9ff;}.cls-10,.cls-11,.cls-12,.cls-13,.cls-14,.cls-15,.cls-16,.cls-17,.cls-18,.cls-19,.cls-2,.cls-20,.cls-21,.cls-22,.cls-23,.cls-24,.cls-25,.cls-26,.cls-27,.cls-28,.cls-3,.cls-4,.cls-5,.cls-6,.cls-7,.cls-9{stroke:#000;}.cls-10,.cls-11,.cls-12,.cls-13,.cls-14,.cls-15,.cls-16,.cls-17,.cls-18,.cls-19,.cls-2,.cls-20,.cls-21,.cls-22,.cls-24,.cls-25,.cls-28,.cls-3,.cls-4,.cls-5,.cls-6,.cls-7,.cls-9{stroke-miterlimit:10;}.cls-15,.cls-2,.cls-21,.cls-22,.cls-24,.cls-25,.cls-3,.cls-4,.cls-5,.cls-6,.cls-7,.cls-9{stroke-width:2px;}.cls-16,.cls-3{fill:#a6c1e8;}.cls-17,.cls-4{fill:#698cb5;}.cls-13,.cls-5,.cls-8{fill:none;}.cls-12,.cls-6{fill:#9dc0ea;}.cls-11,.cls-7{fill:#deebff;}.cls-27,.cls-9{fill:#fff;}.cls-14{fill:#8eb2d6;}.cls-15{fill:#618bb5;}.cls-18{fill:#cadfef;}.cls-19{fill:#c0e0ff;}.cls-20{fill:#9fb9ce;}.cls-21{fill:#79a6d1;}.cls-22,.cls-23{fill:#83a9d6;}.cls-23{stroke-miterlimit:10;stroke-width:2px;}.cls-24{fill:#e1f1ff;}.cls-25{fill:#b6d7f2;}.cls-26,.cls-28{fill:#f24a00;}.cls-26,.cls-27{stroke-miterlimit:10;}.cls-29{fill:#4c71a5;}</style></defs><g id="레이어_2" data-name="레이어 2"><g id="레이어_1-2" data-name="레이어 1"><rect class="cls-1" width="878" height="601"/><path class="cls-2" d="M391.24,498.7c.64,0,1.16.65,1.56,2a14.54,14.54,0,0,1,.68,4.68v45.49a14.58,14.58,0,0,1-.68,4.68c-.38,1.31-.9,2-1.56,2h-2.19V534.56h-4.3V557.5H380.3V498.7Zm-2.19,13.2h-4.3v9.45h4.3Z"/><path class="cls-2" d="M397.12,555.53a16.5,16.5,0,0,1-.58-4.64V505.28a16.5,16.5,0,0,1,.58-4.64c.38-1.29.83-1.94,1.36-1.94h1.91v45.7h6.08v13.1h-8C398,557.5,397.52,556.82,397.12,555.53Z"/><path class="cls-2" d="M417,529.19h4.08v27.35h0v1H411c-.58,0-1-.65-1.44-2a15.78,15.78,0,0,1-.61-4.69V505.34a15.76,15.76,0,0,1,.61-4.68c.4-1.31.87-2,1.44-2h10v13.2h-8v32.37h4Z"/><path class="cls-2" d="M426.15,557.5c-.33,0-.62-.64-.86-1.93a24.69,24.69,0,0,1-.37-4.62v-45.7a24.62,24.62,0,0,1,.37-4.62c.24-1.29.53-1.93.88-1.93h6.13c.33,0,.62.64.87,1.93a25.48,25.48,0,0,1,.36,4.62v45.67a25.48,25.48,0,0,1-.36,4.62c-.25,1.29-.54,1.93-.87,1.93Zm1.26-13h3.64V511.72h-3.64Z"/><path class="cls-2" d="M451.19,557.5h-3.53l-3.17-18.93h-1V557.5h-1.65c-.46,0-.85-.64-1.19-1.93a19,19,0,0,1-.49-4.63V505.19a18.9,18.9,0,0,1,.49-4.62c.33-1.29.73-1.94,1.18-1.94h8.55V532a18.9,18.9,0,0,1-.49,4.62c-.33,1.29-.73,1.94-1.18,1.94H448Zm-7.67-32h3.56V511.68h-3.56Z"/><path class="cls-2" d="M457.54,550.93a18.15,18.15,0,0,1-.52,4.64c-.35,1.3-.76,1.94-1.25,1.94h-1.72V498.66h3.51Z"/><path class="cls-2" d="M470.93,511.71h-3.55v39.21a16,16,0,0,1-.57,4.62c-.39,1.29-.86,1.93-1.4,1.93h-2V511.72h-3.58v-13H471Z"/><path class="cls-2" d="M481.59,498.66h4.1V557.5h-4.1V534.63h-4V557.5h-4.09V498.66h4.09v22.88h4Z"/><path class="cls-2" d="M504.13,498.66c.58,0,1,.64,1.42,1.94a15.83,15.83,0,0,1,.57,4.64V557.5h-4V511.75h-2.87V557.5h-4V511.75h-2.87V557.5h-4V498.66Z"/><rect class="cls-3" x="530.07" y="470.94" width="77.53" height="87.12" rx="12.33"/><circle class="cls-4" cx="560.7" cy="489.92" r="5.91"/><circle class="cls-4" cx="560.7" cy="539.47" r="5.91"/><circle class="cls-4" cx="540.42" cy="514.3" r="5.91"/><path class="cls-5" d="M555.35,489.61l-10.56.07a4.39,4.39,0,0,0-4.29,4v14.51"/><path class="cls-5" d="M555.35,539.29l-10.56-.06a4.38,4.38,0,0,1-4.29-4V520.72"/><circle class="cls-4" cx="576.97" cy="489.52" r="5.91"/><circle class="cls-4" cx="576.97" cy="539.07" r="5.91"/><circle class="cls-4" cx="597.25" cy="513.9" r="5.91"/><path class="cls-5" d="M582.32,489.21l10.56.07a4.39,4.39,0,0,1,4.28,4v14.51"/><path class="cls-5" d="M582.32,538.9l10.56-.07a4.37,4.37,0,0,0,4.28-4V520.32"/><circle class="cls-6" cx="798.53" cy="226.02" r="6.34"/><circle class="cls-6" cx="798.53" cy="203.12" r="6.34"/><circle class="cls-6" cx="437.86" cy="95.95" r="6.34"/><circle class="cls-3" cx="277.98" cy="429.84" r="6.19"/><path class="cls-7" d="M302.58,415.14a6.51,6.51,0,0,1-5.24,6.11,4.27,4.27,0,0,1-.94.08c-2.5-.09-6.19-2.3-6.19-6.19a6.19,6.19,0,0,1,12.38,0Z"/><circle class="cls-6" cx="320.61" cy="430.72" r="6.64"/><path class="cls-5" d="M277.26,423.65c-.44-1.2-2.7-7.62.27-10.41a4.16,4.16,0,0,1,1.42-.87,20.93,20.93,0,0,1,12.42-.88"/><path class="cls-5" d="M297.17,421.44a13.59,13.59,0,0,0-1.1,8.21,9.8,9.8,0,0,0,1.35,3.73c2.34,3.14,9.75,3.47,17.67.82"/><path class="cls-7" d="M115.12,277.64c0,4.21-3.6,7.08-6.53,7.61a5.77,5.77,0,0,1-1.17.09c-3.11-.1-7.7-2.85-7.7-7.7a7.7,7.7,0,0,1,15.4,0Z"/><circle class="cls-6" cx="135.05" cy="260.81" r="8.26" transform="translate(-134.69 377.03) rotate(-85.93)"/><circle class="cls-6" cx="79.86" cy="260.81" r="8.26"/><polyline class="cls-5" points="79.86 268.64 82.18 278.08 99.6 278.08"/><polyline class="cls-5" points="134.86 268.64 132.54 278.08 115.12 278.08"/><path class="cls-7" d="M115.08,302.78c0-4.21-3.59-7.09-6.52-7.61a5.77,5.77,0,0,0-1.17-.09c-3.11.1-7.7,2.84-7.7,7.7a7.7,7.7,0,0,0,15.39,0Z"/><circle class="cls-6" cx="135.02" cy="319.6" r="8.26" transform="translate(-193.36 431.62) rotate(-85.93)"/><circle class="cls-6" cx="79.82" cy="319.6" r="8.26"/><polyline class="cls-5" points="79.82 311.79 82.15 302.35 99.57 302.35"/><polyline class="cls-5" points="134.83 311.79 132.51 302.35 115.08 302.35"/><line class="cls-5" x1="107.42" y1="286.7" x2="107.42" y2="293.72"/><path class="cls-7" d="M661.13,505c5,0,8.36,4.25,9,7.7a5.85,5.85,0,0,1,.11,1.38c-.12,3.67-3.36,9.08-9.08,9.08a9.08,9.08,0,1,1,0-18.16Z"/><circle class="cls-6" cx="641.28" cy="481.46" r="9.74"/><circle class="cls-6" cx="641.28" cy="546.56" r="9.74"/><polyline class="cls-5" points="650.51 546.56 661.65 543.82 661.65 523.27"/><polyline class="cls-5" points="650.51 481.68 661.65 484.42 661.65 504.97"/><path class="cls-7" d="M696.83,505c-5,0-8.36,4.25-9,7.7a7.13,7.13,0,0,0-.1,1.38c.12,3.67,3.36,9.08,9.08,9.08a9.08,9.08,0,1,0,0-18.16Z"/><circle class="cls-6" cx="716.63" cy="481.5" r="9.74"/><circle class="cls-6" cx="716.63" cy="546.6" r="9.74"/><polyline class="cls-5" points="707.4 546.6 696.26 543.86 696.26 523.31"/><polyline class="cls-5" points="707.4 481.72 696.26 484.46 696.26 505.01"/><line class="cls-5" x1="673.75" y1="514.1" x2="684.16" y2="514.1"/><path class="cls-4" d="M421.05,95.83c0-4.34-3.71-7.31-6.73-7.85a6,6,0,0,0-1.2-.09c-3.21.11-7.94,2.94-7.94,7.94a7.94,7.94,0,0,0,15.87.49A4,4,0,0,0,421.05,95.83Z"/><path class="cls-8" d="M773,519.43a5.6,5.6,0,1,0,4,1.64A5.6,5.6,0,0,0,773,519.43Z"/><path class="cls-8" d="M791.65,527.71a18.49,18.49,0,0,0,.2-2.68,24.09,24.09,0,0,0-.16-2.68,18.76,18.76,0,0,0-.56-2.68l7.52-5.52-3.2-5.76L787,512.07a17.64,17.64,0,0,0-4.17-3.48,13.24,13.24,0,0,0-5.12-1.8l-1.15-9h-7l-1.12,9a16.81,16.81,0,0,0-5.08,1.92,17.5,17.5,0,0,0-4.2,3.36l-8.48-3.68-3.2,5.76,7.52,5.52c-.21.91-.39,1.8-.52,2.68a17.84,17.84,0,0,0,0,5.36c.13.88.31,1.77.52,2.68L747.45,536l3.2,5.76,8.48-3.68a20.63,20.63,0,0,0,4.28,3.28,18.82,18.82,0,0,0,5,2l1.12,9h7l1.12-9a18.82,18.82,0,0,0,5-2,20.43,20.43,0,0,0,4.29-3.28l8.48,3.68,3.2-5.76-7.52-5.52A24.75,24.75,0,0,0,791.65,527.71Zm-11.25,4.68a10.43,10.43,0,1,1,3-7.36A10,10,0,0,1,780.4,532.39Z"/><path class="cls-6" d="M773,514.63a10.38,10.38,0,1,0,7.36,3A10,10,0,0,0,773,514.63ZM777,529a5.6,5.6,0,1,1,1.64-4,5.43,5.43,0,0,1-1.68,4Z"/><path class="cls-6" d="M796.61,526.71v-3.4a14.15,14.15,0,0,0-.2-1.72l8.64-6.16-7.44-13.12-9.44,4.32a13.93,13.93,0,0,0-2.93-2,24.25,24.25,0,0,0-3.24-1.48l-1.6-10.08H765.68l-1.6,10.16a16.75,16.75,0,0,0-3.2,1.44,21.44,21.44,0,0,0-3,2l-9.35-4.36-7.44,13.12,8.64,6.32a9.07,9.07,0,0,0-.2,1.64v3.28a9.07,9.07,0,0,0,.2,1.64l-8.64,6.32,7.44,13.12,9.44-4.32a21.44,21.44,0,0,0,3,2,20.83,20.83,0,0,0,3.2,1.52l1.6,10.08h14.72l1.6-10.08a13.76,13.76,0,0,0,3.24-1.48,26.56,26.56,0,0,0,2.93-2l9.44,4.32,7.44-13.12-8.64-6.24A14.06,14.06,0,0,0,796.61,526.71Zm2,9.2-3.2,5.76L786.93,538a20.43,20.43,0,0,1-4.29,3.28,18.82,18.82,0,0,1-5,2l-1.12,9h-7l-1.12-9a18.82,18.82,0,0,1-5-2,20.63,20.63,0,0,1-4.28-3.28l-8.48,3.68-3.2-5.76,7.52-5.52c-.21-.91-.39-1.8-.52-2.68a17.84,17.84,0,0,1,0-5.36c.13-.88.31-1.77.52-2.68l-7.52-5.52,3.2-5.76,8.48,3.68a17.5,17.5,0,0,1,4.2-3.36,16.81,16.81,0,0,1,5.08-1.92l1.12-9h7l1.12,9a13.24,13.24,0,0,1,5.12,1.8,17.64,17.64,0,0,1,4.17,3.48l8.48-3.68,3.2,5.76-7.52,5.52a18.76,18.76,0,0,1,.56,2.68,24.09,24.09,0,0,1,.16,2.68,18.49,18.49,0,0,1-.2,2.68c-.14.88-.31,1.77-.52,2.68Z"/><path class="cls-6" d="M796.61,452.48v-3.4a14.15,14.15,0,0,0-.2-1.72l8.64-6.16-7.44-13.12-9.44,4.32a13.87,13.87,0,0,0-2.92-2,26.37,26.37,0,0,0-3.25-1.48l-1.6-10.09H765.68L764.08,429a16.75,16.75,0,0,0-3.2,1.44,23.35,23.35,0,0,0-3,2l-9.35-4.35-7.44,13.12,8.64,6.32a9.07,9.07,0,0,0-.2,1.64v3.28a9.07,9.07,0,0,0,.2,1.64l-8.64,6.32,7.44,13.12L758,469.2a21.44,21.44,0,0,0,3,2,20.83,20.83,0,0,0,3.2,1.52l1.6,10.08h14.72l1.6-10.08a14,14,0,0,0,3.25-1.48,26.44,26.44,0,0,0,2.92-2l9.44,4.32,7.44-13.12-8.64-6.24A14.06,14.06,0,0,0,796.61,452.48Z"/><path class="cls-9" d="M782,441.89a12.63,12.63,0,1,0,3.68,8.94A12.16,12.16,0,0,0,782,441.89Z"/><path class="cls-6" d="M773,444a6.78,6.78,0,1,0,4.8,2A6.57,6.57,0,0,0,773,444Z"/><path class="cls-8" d="M104.61,191.59a5.72,5.72,0,1,0,4,1.68A5.52,5.52,0,0,0,104.61,191.59Z"/><path class="cls-8" d="M123.62,200.05a19.32,19.32,0,0,0,.2-2.74,22.6,22.6,0,0,0-.16-2.73,15.9,15.9,0,0,0-.58-2.74l7.69-5.64-3.27-5.89-8.67,3.76a18.33,18.33,0,0,0-4.25-3.55,13.59,13.59,0,0,0-5.23-1.84l-1.09-9.16h-7.2l-1.19,9.17a17.25,17.25,0,0,0-5.19,2,18,18,0,0,0-4.29,3.43l-8.67-3.76-3.27,5.89,7.69,5.64c-.22.92-.4,1.84-.53,2.74a17.92,17.92,0,0,0,0,5.47c.13.9.31,1.81.53,2.74l-7.69,5.64,3.27,5.89,8.67-3.76A21.23,21.23,0,0,0,94.76,214a19.2,19.2,0,0,0,5.11,2l1.14,9.16h7.25L109.4,216a19.2,19.2,0,0,0,5.11-2,21,21,0,0,0,4.37-3.35l8.67,3.76,3.27-5.89-7.69-5.64C123.26,201.86,123.48,201,123.62,200.05Zm-11.49,4.78a10.65,10.65,0,1,1,3.11-7.52A10.23,10.23,0,0,1,112.13,204.83Z"/><path class="cls-6" d="M104.61,186.69a10.6,10.6,0,1,0,7.52,3.1A10.22,10.22,0,0,0,104.61,186.69Zm4,14.67a5.73,5.73,0,1,1,1.67-4A5.53,5.53,0,0,1,108.66,201.36Z"/><path class="cls-6" d="M128.68,199v-3.47a10.43,10.43,0,0,0-.2-1.76l8.83-6.29-7.6-13.41-9.65,4.41a14.36,14.36,0,0,0-3-2.08,26.69,26.69,0,0,0-3.31-1.51l-1.64-10.3h-15L95.46,175a17.13,17.13,0,0,0-3.27,1.47,21.44,21.44,0,0,0-3,2l-9.64-4.41-7.61,13.41,8.83,6.45a8.57,8.57,0,0,0-.2,1.68V199a8.66,8.66,0,0,0,.2,1.68l-8.83,6.45,7.61,13.41,9.64-4.41a24.07,24.07,0,0,0,3,2,22,22,0,0,0,3.27,1.61L97.09,230h15l1.64-10.3a14.54,14.54,0,0,0,3.31-1.51,29.66,29.66,0,0,0,3-2.08l9.65,4.41,7.6-13.41-8.83-6.37A10.84,10.84,0,0,0,128.68,199Zm2.09,9.4-3.27,5.89-8.67-3.76a21,21,0,0,1-4.37,3.35,19.2,19.2,0,0,1-5.11,2l-1.09,9.2h-7.2L99.92,216a19.2,19.2,0,0,1-5.11-2,21.23,21.23,0,0,1-4.37-3.35l-8.67,3.76-3.27-5.89,7.69-5.64c-.22-.93-.4-1.84-.53-2.74a17.92,17.92,0,0,1,0-5.47c.13-.9.31-1.82.53-2.74l-7.69-5.64,3.27-5.89,8.67,3.76a17.94,17.94,0,0,1,4.24-3.42,17.25,17.25,0,0,1,5.19-2l1.14-9.16h7.25l1.14,9.16a13.59,13.59,0,0,1,5.23,1.84,18.33,18.33,0,0,1,4.25,3.55l8.67-3.76,3.27,5.89-7.69,5.64a15.9,15.9,0,0,1,.58,2.74,22.6,22.6,0,0,1,.16,2.73,19.32,19.32,0,0,1-.2,2.74c-.14.9-.32,1.81-.54,2.74Z"/><path class="cls-6" d="M112.07,123V77.65a2,2,0,0,1,2.19-1.74H132.6a2,2,0,0,1,2.19,1.74V123a2,2,0,0,1-2.19,1.73H114.26A2,2,0,0,1,112.07,123Z"/><path class="cls-6" d="M209.9,123V77.65a2,2,0,0,1,2.19-1.74h18.34a2,2,0,0,1,2.19,1.74V123a2,2,0,0,1-2.19,1.73H212.09A2,2,0,0,1,209.9,123Z"/><polygon class="cls-4" points="153.65 100.31 179.97 75.83 205.63 100.31 179.97 124.8 153.65 100.31"/><rect class="cls-4" x="72.37" y="75.91" width="22.72" height="48.8"/><polyline class="cls-5" points="103.25 104.27 109.69 100.23 103.25 96.36"/><line class="cls-5" x1="109.1" y1="100.31" x2="97.47" y2="100.31"/><polyline class="cls-5" points="142.94 104.27 149.39 100.23 142.94 96.36"/><line class="cls-5" x1="148.78" y1="100.31" x2="137.16" y2="100.31"/><polyline class="cls-5" points="128.43 136.9 123.33 131.8 118.43 136.9"/><polyline class="cls-5" points="179.65 125.05 179.65 156.71 123.43 156.71 123.43 132.88"/><polyline class="cls-5" points="215.44 65.91 220.54 71.01 225.44 65.91"/><polyline class="cls-5" points="179.65 75.87 179.65 45.75 220.45 45.75 220.45 70.77"/><path class="cls-7" d="M399.48,57.55c0,6.78-5.79,11.41-10.5,12.25a8.56,8.56,0,0,1-1.89.15c-5-.16-12.4-4.59-12.4-12.4a12.4,12.4,0,0,1,24.79,0Z"/><path class="cls-7" d="M309,160.18c0,6.78-5.8,11.41-10.51,12.26a9.21,9.21,0,0,1-1.89.14c-5-.16-12.39-4.59-12.39-12.4a12.4,12.4,0,0,1,24.79,0Z"/><polyline class="cls-5" points="374.69 57.55 350.86 57.55 330.34 160.19 308.04 160.19"/><path class="cls-4" d="M734.34,147.2c0-5.15-4.42-8.68-8-9.32a6.23,6.23,0,0,0-1.43-.11c-3.78.11-9.44,3.48-9.44,9.44a9.44,9.44,0,0,0,18.88,0Z"/><path class="cls-4" d="M715.46,84c0-5.15-4.42-8.68-8-9.32a7,7,0,0,0-1.44-.12c-3.77.13-9.43,3.5-9.43,9.44a9.44,9.44,0,1,0,18.87,0Z"/><path class="cls-7" d="M710.81,113.31c0-5.16-4.41-8.68-8-9.32a7,7,0,0,0-1.45-.12c-3.77.13-9.44,3.49-9.44,9.44a9.44,9.44,0,0,0,9.44,9.44,9.79,9.79,0,0,0,8.75-5.88A9.25,9.25,0,0,0,710.81,113.31Z"/><path class="cls-7" d="M734.34,54.61c0-5.15-4.42-8.68-8-9.32a6.85,6.85,0,0,0-1.43-.12c-3.78.13-9.44,3.5-9.44,9.44a9.44,9.44,0,0,0,18.88,0Z"/><polyline class="cls-5" points="734.34 54.51 743.81 63.1 743.81 139.03 734.34 147.2"/><path class="cls-5" d="M715.71,80.93c2.63-.08,5.88.1,6.71,2.1,1,2.52-1.61,6.22-.42,8.8s8.6,1.18,10.07.84A24.64,24.64,0,0,0,743.81,86"/><path class="cls-5" d="M710.81,116.16c4.58,4.33,10.9,5.66,15.43,3.57,2.23-1,2.31-3,4.84-4.82,3.6-2.57,8.49-2.47,12.2-1.89"/><path class="cls-4" d="M762.63,147.15c0-5.16,4.4-8.68,8-9.33a7.76,7.76,0,0,1,1.44-.11c3.78.13,9.44,3.5,9.44,9.44a9.44,9.44,0,1,1-18.87,0Z"/><path class="cls-4" d="M781.5,83.91c0-5.16,4.41-8.69,8-9.33a6.93,6.93,0,0,1,1.44-.1c3.77.12,9.44,3.49,9.44,9.43a9.44,9.44,0,1,1-18.88,0Z"/><path class="cls-7" d="M786.15,113.26c0-5.16,4.4-8.69,8-9.33a6.84,6.84,0,0,1,1.43-.1c3.78.12,9.44,3.48,9.44,9.43a9.44,9.44,0,0,1-9.44,9.44,9.81,9.81,0,0,1-8.75-5.85A9.39,9.39,0,0,1,786.15,113.26Z"/><path class="cls-7" d="M762.63,54.56c0-5.16,4.4-8.69,8-9.33a7,7,0,0,1,1.44-.1c3.78.12,9.44,3.49,9.44,9.43a9.44,9.44,0,1,1-18.87,0Z"/><polyline class="cls-5" points="762.63 54.45 753.14 63.05 753.14 138.97 762.63 147.15"/><path class="cls-5" d="M781.25,80.87c-2.64-.08-5.88.1-6.71,2.11-1,2.51,1.6,6.22.41,8.8s-8.59,1.18-10.06.84a24.64,24.64,0,0,1-11.75-6.71"/><path class="cls-5" d="M786.15,116.11c-4.59,4.33-10.9,5.67-15.43,3.56-2.23-1-2.32-3-4.85-4.82-3.6-2.56-8.49-2.46-12.2-1.89"/><rect class="cls-9" x="266.43" y="190.29" width="346.19" height="203.27"/><rect class="cls-10" x="292.24" y="215.56" width="20.8" height="152.88"/><rect class="cls-10" x="319.77" y="215.56" width="11.2" height="152.88"/><rect class="cls-10" x="337.83" y="215.56" width="11.07" height="152.88"/><rect class="cls-10" x="404.74" y="215.56" width="8.37" height="152.88"/><rect class="cls-10" x="460.91" y="215.56" width="9.74" height="152.88"/><rect class="cls-10" x="439.52" y="215.48" width="9.74" height="152.88"/><rect class="cls-10" x="475.49" y="215.56" width="9.74" height="152.88"/><rect class="cls-10" x="490.94" y="215.56" width="17.39" height="152.88"/><rect class="cls-10" x="514.93" y="215.56" width="7.96" height="152.88"/><rect class="cls-10" x="389.78" y="215.56" width="8.95" height="152.88"/><rect class="cls-10" x="423" y="215.56" width="11.65" height="152.88"/><rect class="cls-10" x="533.81" y="215.56" width="25.41" height="152.88"/><rect class="cls-10" x="566.38" y="215.56" width="8.72" height="152.88"/><rect class="cls-10" x="580.16" y="215.56" width="8.72" height="152.88"/><rect class="cls-10" x="367.41" y="215.56" width="16.87" height="152.88"/><path class="cls-5" d="M76.3,361.12V350.19l47.5-.88s22,1.35,16.8,16.6c0,0-1.91,4.48-2.79,6.68-.8,2,11.3,15.94,13.1,18.36a6.93,6.93,0,0,1,.71,1.13c.66,1.49,2.21,5.95-1.62,7.69a68.15,68.15,0,0,0-7.07,3.61l-3,21a9.71,9.71,0,0,1-2.63,5.46,6.72,6.72,0,0,1-5.2,2.34c-3-.16-16.29.89-19.49,1.15a2.38,2.38,0,0,0-1.48.67,5.48,5.48,0,0,0-1.47,4.36v3.29H76.3L76.19,403"/><circle class="cls-11" cx="76.18" cy="366.65" r="5.52"/><circle class="cls-12" cx="113.53" cy="372.17" r="5.52"/><polyline class="cls-13" points="81.7 366.65 89.04 366.65 99.24 372.17 108.01 372.17"/><circle class="cls-14" cx="113.53" cy="389.02" r="5.52"/><circle class="cls-11" cx="76.18" cy="381.86" r="5.52"/><polyline class="cls-13" points="81.7 381.87 88.44 381.87 100.93 389.02 108.01 389.02"/><circle class="cls-12" cx="113.53" cy="405.5" r="5.52"/><circle class="cls-11" cx="76.18" cy="397.46" r="5.52"/><polyline class="cls-13" points="81.7 397.46 87.46 397.46 97.55 406.35 107.74 406.35"/><path class="cls-5" d="M357.75,169.42H349.3l-.69-36.71s1.05-17,12.84-13c0,0,3.46,1.48,5.16,2.16s12.31-8.73,14.18-10.12a6.68,6.68,0,0,1,.87-.55c1.15-.51,4.61-1.71,5.95,1.25a52.91,52.91,0,0,0,2.79,5.46l16.2,2.32a7.44,7.44,0,0,1,4.22,2,5.16,5.16,0,0,1,1.81,4c-.13,2.28.69,12.58.89,15.06a1.93,1.93,0,0,0,.51,1.14,4.3,4.3,0,0,0,3.38,1.14h2.53v25.78l-29.85.09"/><circle class="cls-11" cx="362.01" cy="169.51" r="4.27"/><circle class="cls-12" cx="366.28" cy="140.65" r="4.27"/><polyline class="cls-13" points="362.01 165.25 362.01 159.58 366.28 151.7 366.28 144.92"/><circle class="cls-14" cx="379.3" cy="140.65" r="4.27"/><circle class="cls-11" cx="373.77" cy="169.51" r="4.27"/><polyline class="cls-13" points="373.77 165.25 373.77 160.04 379.3 150.39 379.3 144.92"/><circle class="cls-12" cx="392.04" cy="140.65" r="4.27"/><circle class="cls-11" cx="385.82" cy="169.51" r="4.27"/><polyline class="cls-13" points="385.82 165.25 385.82 160.8 392.69 153 392.69 145.12"/><path class="cls-15" d="M712.43,411c0-4.1,3.5-6.9,6.35-7.42a5,5,0,0,1,1.15-.08c3,.1,7.5,2.77,7.5,7.5a7.5,7.5,0,0,1-15,0Z"/><path class="cls-15" d="M628.88,443.3c0-4.1,3.51-6.9,6.36-7.41a4.39,4.39,0,0,1,1.14-.09c3,.1,7.5,2.77,7.5,7.5a7.5,7.5,0,1,1-15,0Z"/><polyline class="cls-5" points="643.83 444.3 704.27 444.3 719.18 418.75"/><path class="cls-7" d="M262.33,110.77a5.32,5.32,0,0,0-4.31-5,3.29,3.29,0,0,0-.77-.06c-2.05.06-5.07,1.87-5.07,5.08a5.08,5.08,0,0,0,10.15,0Z"/><path class="cls-7" d="M268.55,81.07a5.33,5.33,0,0,0-4.3-5,3.29,3.29,0,0,0-.77-.06c-2.05.06-5.08,1.88-5.08,5.07a5.08,5.08,0,1,0,10.15,0Z"/><path class="cls-7" d="M291.43,68.58a5.33,5.33,0,0,0-4.3-5,3.94,3.94,0,0,0-.77-.06c-2.05.07-5.08,1.88-5.08,5.07a5.08,5.08,0,1,0,10.15,0v0Z"/><path class="cls-7" d="M308,68.16a5.34,5.34,0,0,0-4.31-5,3.94,3.94,0,0,0-.77,0c-2,.06-5.07,1.88-5.07,5.07a5.08,5.08,0,1,0,10.15,0v0Z"/><path class="cls-7" d="M325.67,83.87a5.34,5.34,0,0,0-4.31-5,3.94,3.94,0,0,0-.77-.06c-2,.07-5.07,1.88-5.07,5.08a5.08,5.08,0,0,0,10.15,0v0Z"/><path class="cls-7" d="M324.27,110.05a5.32,5.32,0,0,0-4.31-5,3.94,3.94,0,0,0-.77-.07c-2.05.07-5.07,1.88-5.07,5.08a5.08,5.08,0,1,0,10.15,0Z"/><path class="cls-7" d="M305.44,121.42a5.34,5.34,0,0,0-4.3-5,3.94,3.94,0,0,0-.77-.05c-2.05.06-5.08,1.88-5.08,5.07a5.08,5.08,0,0,0,10.15,0Z"/><path class="cls-7" d="M286.38,120.92a5.33,5.33,0,0,0-4.3-5,3.29,3.29,0,0,0-.77-.06c-2.05.06-5.08,1.88-5.08,5.08a5.08,5.08,0,0,0,10.15,0Z"/><rect class="cls-15" x="281.31" y="84.85" width="20.3" height="20.3"/><polyline class="cls-5" points="267.71 83.87 272.28 84.85 274.54 92.41 281.31 92.41"/><polyline class="cls-5" points="262.33 110.05 266.54 110.05 266.54 104.21 274.51 101.09 281.31 101.09"/><polyline class="cls-5" points="282.08 115.9 282.08 112.82 287.51 110.05 287.51 105.69"/><polyline class="cls-5" points="296.19 105.28 302.9 113.38 302.24 116.75"/><path class="cls-5" d="M302.06,99.87c.45-.13,5.3.34,5.3.34l2.8,6.63,4,3.21"/><polyline class="cls-5" points="302.06 92.41 307.14 92.41 316.38 86.71"/><polyline class="cls-5" points="302.06 73.24 302.06 76.51 297.66 80.9 297.66 84.45"/><polyline class="cls-5" points="287.06 73.74 284.35 78.79 288.3 84.45"/><circle class="cls-2" cx="206.47" cy="406.35" r="34.63"/><path class="cls-2" d="M206.47,439.64V373.56S163.83,408.17,206.47,439.64Z"/><path class="cls-2" d="M206.69,439.45V373.36S249.55,405.74,206.69,439.45Z"/><line class="cls-5" x1="171.84" y1="406.35" x2="241.1" y2="406.35"/><rect class="cls-16" x="70.61" y="532.91" width="215.05" height="19.96"/><circle class="cls-17" cx="121.31" cy="542.38" r="4.78"/><circle class="cls-17" cx="83.39" cy="542.38" r="4.78"/><circle class="cls-17" cx="159.24" cy="542.38" r="4.78"/><circle class="cls-17" cx="197.16" cy="542.38" r="4.78"/><circle class="cls-17" cx="235.08" cy="542.38" r="4.78"/><circle class="cls-17" cx="273.01" cy="542.38" r="4.78"/><polygon class="cls-17" points="102.17 530.35 89.14 530.35 89.14 528.24 76.41 528.24 76.41 530.35 70.61 530.35 70.61 532.91 102.17 532.91 102.17 530.35"/><polygon class="cls-17" points="127.36 530.35 114.34 530.35 114.34 528.24 101.61 528.24 101.61 530.35 95.8 530.35 95.8 532.91 127.36 532.91 127.36 530.35"/><polygon class="cls-17" points="153.82 530.35 140.81 530.35 140.81 528.24 128.07 528.24 128.07 530.35 122.26 530.35 122.26 532.91 153.82 532.91 153.82 530.35"/><polygon class="cls-17" points="179.19 530.35 166.17 530.35 166.17 528.24 153.43 528.24 153.43 530.35 147.62 530.35 147.62 532.91 179.19 532.91 179.19 530.35"/><polygon class="cls-17" points="205.52 530.35 192.49 530.35 192.49 528.24 179.75 528.24 179.75 530.35 173.96 530.35 173.96 532.91 205.52 532.91 205.52 530.35"/><polygon class="cls-17" points="232.98 530.35 219.95 530.35 219.95 528.24 207.22 528.24 207.22 530.35 201.41 530.35 201.41 532.91 232.98 532.91 232.98 530.35"/><polygon class="cls-17" points="258.17 530.35 245.15 530.35 245.15 528.24 232.41 528.24 232.41 530.35 226.6 530.35 226.6 532.91 258.17 532.91 258.17 530.35"/><polygon class="cls-17" points="285.66 530.35 272.21 530.35 272.21 528.24 259.07 528.24 259.07 530.35 253.08 530.35 253.08 532.91 285.66 532.91 285.66 530.35"/><polygon class="cls-17" points="254.1 555.58 267.11 555.58 267.11 557.71 279.85 557.71 279.85 555.58 285.66 555.58 285.66 553.03 254.1 553.03 254.1 555.58"/><polygon class="cls-17" points="227.62 555.58 240.64 555.58 240.64 557.71 253.38 557.71 253.38 555.58 259.19 555.58 259.19 553.03 227.62 553.03 227.62 555.58"/><polygon class="cls-17" points="202.26 555.58 215.29 555.58 215.29 557.71 228.01 557.71 228.01 555.58 233.82 555.58 233.82 553.03 202.26 553.03 202.26 555.58"/><polygon class="cls-17" points="175.94 555.58 188.95 555.58 188.95 557.71 201.69 557.71 201.69 555.58 207.5 555.58 207.5 553.03 175.94 553.03 175.94 555.58"/><polygon class="cls-17" points="150.09 555.58 163.1 555.58 163.1 557.71 175.84 557.71 175.84 555.58 181.64 555.58 181.64 553.03 150.09 553.03 150.09 555.58"/><polygon class="cls-17" points="124.89 555.58 137.91 555.58 137.91 557.71 150.65 557.71 150.65 555.58 156.45 555.58 156.45 553.03 124.89 553.03 124.89 555.58"/><polygon class="cls-17" points="98.41 555.58 111.44 555.58 111.44 557.71 124.18 557.71 124.18 555.58 129.98 555.58 129.98 553.03 98.41 553.03 98.41 555.58"/><polygon class="cls-17" points="70.61 555.58 84.64 555.58 84.64 557.71 98.37 557.71 98.37 555.58 104.63 555.58 104.63 553.03 70.61 553.03 70.61 555.58"/><rect class="cls-18" x="84.2" y="464.41" width="88.21" height="59.46"/><rect class="cls-17" x="99.66" y="464.41" width="6.77" height="59.46"/><rect class="cls-17" x="124.13" y="464.41" width="10.66" height="11.95"/><rect class="cls-17" x="124.13" y="511.93" width="10.66" height="11.95"/><rect class="cls-19" x="148.17" y="472.44" width="19.58" height="11.22"/><rect class="cls-10" x="150.56" y="474.17" width="1.54" height="7.78"/><rect class="cls-19" x="154.63" y="474.17" width="0.46" height="7.78"/><rect class="cls-19" x="156.9" y="474.17" width="0.38" height="7.78"/><rect class="cls-19" x="159.66" y="474.17" width="1.13" height="7.78"/><rect class="cls-10" x="163.81" y="474.17" width="1.54" height="7.78"/><rect class="cls-20" x="155.09" y="488.34" width="11.19" height="7.59"/><rect class="cls-18" x="184.24" y="464.41" width="88.21" height="59.46"/><rect class="cls-17" x="199.7" y="464.41" width="6.77" height="59.46"/><rect class="cls-17" x="224.17" y="464.41" width="10.66" height="11.95"/><rect class="cls-17" x="224.17" y="511.93" width="10.66" height="11.95"/><rect class="cls-19" x="248.21" y="472.44" width="19.58" height="11.22"/><rect class="cls-10" x="250.6" y="474.17" width="1.54" height="7.78"/><rect class="cls-19" x="254.66" y="474.17" width="0.46" height="7.78"/><rect class="cls-19" x="256.93" y="474.17" width="0.38" height="7.78"/><rect class="cls-19" x="263.25" y="474.17" width="0.38" height="7.78"/><rect class="cls-19" x="259.68" y="474.17" width="1.13" height="7.78"/><rect class="cls-10" x="263.85" y="474.17" width="1.54" height="7.78"/><rect class="cls-20" x="255.13" y="488.34" width="11.19" height="7.59"/><circle class="cls-3" cx="542.29" cy="52.47" r="6.77"/><path class="cls-7" d="M486.3,73.39A7.12,7.12,0,0,1,492,66.7a4.82,4.82,0,0,1,1-.08c2.73.09,6.77,2.51,6.77,6.77a6.77,6.77,0,1,1-13.54,0v0Z"/><circle class="cls-21" cx="461.68" cy="53.4" r="7.26"/><polyline class="cls-5" points="465.38 60.24 474.03 73.39 486.2 73.39"/><polyline class="cls-5" points="499.84 73.39 528.02 73.39 542.29 59.57"/><circle class="cls-3" cx="579.76" cy="434.57" r="4.64"/><path class="cls-7" d="M541.39,448.91a4.87,4.87,0,0,1,3.93-4.58,4,4,0,0,1,.69-.06,4.9,4.9,0,0,1,4.64,4.64,4.64,4.64,0,1,1-9.28,0v0Z"/><circle class="cls-21" cx="524.52" cy="435.21" r="4.98"/><polyline class="cls-5" points="527.05 439.9 532.98 448.91 541.32 448.91"/><polyline class="cls-5" points="550.67 448.91 569.98 448.91 579.76 439.44"/><path class="cls-4" d="M259.68,144.9a7.86,7.86,0,0,0-6.35-7.41,4.47,4.47,0,0,0-1.15-.09c-3,.1-7.5,2.77-7.5,7.5a7.5,7.5,0,1,0,15,0Z"/><circle class="cls-22" cx="219.05" cy="159.39" r="14.49"/><circle class="cls-9" cx="219.05" cy="159.39" r="11.14"/><rect class="cls-23" x="237.72" y="161" width="4.7" height="18" rx="1.64" transform="translate(-17.2 312.63) rotate(-64.31)"/><path class="cls-9" d="M212.55,162.41s-2.5-3.92,1.6-8.58"/><path class="cls-6" d="M633.76,72.57V69.75a9.79,9.79,0,0,0-.17-1.43l7.19-5.13-6.19-10.91-7.85,3.59a11.41,11.41,0,0,0-2.43-1.7,21.91,21.91,0,0,0-2.7-1.23l-1.33-8.38H608L606.71,53a14.85,14.85,0,0,0-2.67,1.2,19.28,19.28,0,0,0-2.46,1.66l-7.85-3.59-6.19,10.91,7.19,5.26a8.87,8.87,0,0,0-.17,1.36v2.73a9,9,0,0,0,.17,1.37l-7.19,5.25,6.19,10.92,7.85-3.6A19.35,19.35,0,0,0,604,88.15a18,18,0,0,0,2.67,1.26L608,97.79h12.24l1.33-8.38a11.56,11.56,0,0,0,2.7-1.23,21.58,21.58,0,0,0,2.43-1.7l7.85,3.6,6.19-10.92L633.59,74A9.39,9.39,0,0,0,633.76,72.57Z"/><rect class="cls-4" x="601.2" y="62.93" width="25.86" height="16.49" rx="2.98"/><rect class="cls-24" x="605.02" y="65.9" width="18.22" height="4.07" rx="0.82"/><rect class="cls-4" x="628.12" y="67.02" width="2.65" height="9.54" rx="0.82"/><rect class="cls-4" x="598.55" y="67.02" width="2.65" height="9.54" rx="0.82"/><line class="cls-5" x1="610.05" y1="75.61" x2="618.21" y2="75.61"/><path class="cls-6" d="M690.16,64.28c0,9.64-9.24,17.46-20.64,17.46-7.5,0-14.07-3.39-17.68-8.46a15.57,15.57,0,0,1-3-9c0-9.63,9.24-17.45,20.63-17.45S690.16,54.65,690.16,64.28Z"/><path class="cls-6" d="M653.28,73.46s-1.91,3.65-5.73,4.16,8,4.71,12.51.75"/><rect class="cls-6" x="477.84" y="113.25" width="17.75" height="48.16" rx="1.71"/><rect class="cls-6" x="593.95" y="113.24" width="17.75" height="48.16" rx="1.71"/><rect class="cls-6" x="566.93" y="122.79" width="17.75" height="29.08" rx="1.33"/><polygon class="cls-4" points="517.44 137.33 538 113.17 558.04 137.33 538 161.49 517.44 137.33"/><rect class="cls-4" x="438.82" y="113.25" width="17.75" height="48.16"/><polyline class="cls-5" points="466.94 141.23 471.98 137.25 466.94 133.42"/><line class="cls-5" x1="471.51" y1="137.33" x2="462.43" y2="137.33"/><polyline class="cls-5" points="506.25 141.23 511.28 137.25 506.25 133.42"/><line class="cls-5" x1="510.81" y1="137.33" x2="501.74" y2="137.33"/><polyline class="cls-5" points="541.64 171.37 537.66 166.33 533.83 171.37"/><polyline class="cls-5" points="571.89 112.01 575.88 117.05 579.71 112.01"/><polyline class="cls-5" points="602.83 161.49 602.83 173.75 537.74 173.75 537.74 167.62"/><polyline class="cls-5" points="538 113.17 537.74 93.79 575.8 93.79 575.8 115.76"/><line class="cls-5" x1="584.57" y1="137.33" x2="594.49" y2="137.33"/><path class="cls-25" d="M211.23,314.81c0-5.47-4.67-9.21-8.47-9.89a7.08,7.08,0,0,0-1.52-.11c-4,.13-10,3.7-10,10a10,10,0,0,0,20,0Z"/><line class="cls-5" x1="201.24" y1="324.81" x2="201.24" y2="356.09"/><path class="cls-25" d="M230.19,287.49c0-5.47-4.67-9.2-8.47-9.88a6.58,6.58,0,0,0-1.53-.12c-4,.13-10,3.7-10,10a10,10,0,0,0,20,0Z"/><line class="cls-5" x1="220.19" y1="297.49" x2="220.19" y2="356.09"/><path class="cls-25" d="M249.15,314.81c0-5.47-4.67-9.21-8.48-9.89a7.08,7.08,0,0,0-1.52-.11c-4,.13-10,3.7-10,10a10,10,0,0,0,20,0Z"/><line class="cls-5" x1="239.15" y1="324.81" x2="239.15" y2="356.09"/><line class="cls-5" x1="191.24" y1="355.79" x2="249.15" y2="355.79"/><path class="cls-25" d="M784.29,286.16a6,6,0,0,0-4.82-5.63,4.1,4.1,0,0,0-.86-.06c-2.28.07-5.69,2.11-5.69,5.69a5.69,5.69,0,1,0,11.38,0Z"/><line class="cls-5" x1="778.61" y1="291.85" x2="778.61" y2="309.65"/><path class="cls-25" d="M795.08,270.61a6,6,0,0,0-4.82-5.62,4.15,4.15,0,0,0-.87-.07c-2.27.08-5.69,2.11-5.69,5.69a5.69,5.69,0,0,0,11.38,0Z"/><line class="cls-5" x1="789.39" y1="276.3" x2="789.39" y2="309.65"/><path class="cls-25" d="M805.87,286.16a6,6,0,0,0-4.82-5.63,4.25,4.25,0,0,0-.87-.06c-2.27.07-5.69,2.11-5.69,5.69a5.69,5.69,0,0,0,11.38,0Z"/><line class="cls-5" x1="800.18" y1="291.85" x2="800.18" y2="309.65"/><line class="cls-5" x1="772.92" y1="309.48" x2="805.87" y2="309.48"/><circle class="cls-2" cx="661.55" cy="162.36" r="24.75"/><circle class="cls-2" cx="661.55" cy="162.36" r="18.12"/><path class="cls-2" d="M661.55,179.79V145.2S639.23,163.29,661.55,179.79Z"/><path class="cls-2" d="M661.66,179.69V145.1S684.1,162,661.66,179.69Z"/><line class="cls-5" x1="643.42" y1="162.36" x2="679.67" y2="162.36"/><path class="cls-6" d="M699.21,234h68c1.29,0,2.34,1.36,2.34,3v22.55c0,1.68-1,3.05-2.34,3.05h-68c-1.29,0-2.34-1.37-2.34-3.05V237C696.87,235.35,697.92,234,699.21,234Z"/><path class="cls-6" d="M699.21,357.37h68c1.29,0,2.34,1.36,2.34,3.05V383c0,1.68-1,3-2.34,3h-68c-1.29,0-2.34-1.37-2.34-3V360.42C696.87,358.73,697.92,357.37,699.21,357.37Z"/><polygon class="cls-4" points="733.2 286.43 769.63 319.63 733.2 351.99 696.75 319.63 733.2 286.43"/><rect class="cls-4" x="696.87" y="183.93" width="72.65" height="28.65"/><polyline class="cls-5" points="728.35 222.86 733.29 230.99 738.04 222.86"/><line class="cls-5" x1="733.2" y1="230.24" x2="733.2" y2="215.58"/><polyline class="cls-5" points="728.35 272.92 733.29 281.05 738.04 272.92"/><line class="cls-5" x1="733.2" y1="280.29" x2="733.2" y2="265.63"/><polyline class="cls-5" points="683.16 254.62 689.41 248.19 683.16 242.01"/><polyline class="cls-5" points="697.68 319.21 658.91 319.21 658.91 248.31 688.09 248.31"/><polyline class="cls-5" points="781.37 364.35 775.11 370.79 781.37 376.96"/><polyline class="cls-5" points="769.17 319.21 806.05 319.21 806.05 370.65 775.41 370.65"/><path class="cls-15" d="M627.05,248.31a7.87,7.87,0,0,1,6.36-7.41,5.43,5.43,0,0,1,1.14-.09c3,.1,7.5,2.77,7.5,7.5a7.5,7.5,0,0,1-15,0Z"/><ellipse class="cls-22" cx="408.68" cy="441.21" rx="7.53" ry="7.32"/><ellipse class="cls-22" cx="365.47" cy="414.84" rx="7.53" ry="7.32"/><ellipse class="cls-3" cx="450.04" cy="441.21" rx="7.53" ry="7.32"/><line class="cls-5" x1="420.48" y1="442.19" x2="438.79" y2="442.19"/><polyline class="cls-5" points="394.75 442.19 385.93 442.19 371.48 424.53"/><path class="cls-26" d="M466.32,364.62l166-42.08c8.11-2.05,16.27,3.16,18.24,11.64l11.74,50.69c2,8.48-3,17-11.13,19.08L485.17,446c-8.11,2.05-16.27-3.16-18.24-11.64L455.2,383.7C453.23,375.22,458.21,366.68,466.32,364.62Z"/><path class="cls-27" d="M478.2,374l147.64-37.43a11.93,11.93,0,0,1,14.43,9.21l7.79,33.63a12.56,12.56,0,0,1-8.8,15.1L491.61,432a11.92,11.92,0,0,1-14.42-9.21l-7.79-33.63A12.55,12.55,0,0,1,478.2,374Z"/><path class="cls-28" d="M494.62,410a4.36,4.36,0,0,0,5.5,2.29c4.79-1.22,3.88-7.54,3.08-11.61a8.76,8.76,0,0,1-6.39,4.83c-7,1.79-12.18-2.32-13.69-8.83-1.65-7.09,1.74-13.66,9.61-15.66,9.59-2.43,14.69,4.62,16.75,13.57,2.36,10.16,2.33,21.18-8.34,23.89-7.9,2-12.32-2.31-14-6.61Zm-4.06-15.61c.84,3.68,3.38,5.43,6.57,4.63s4.62-3.07,3.71-7c-.57-2.44-2.37-5.93-6.57-4.84-3.42.84-4.5,3.88-3.71,7.25Z"/><path class="cls-28" d="M524.17,402.46a4.36,4.36,0,0,0,5.5,2.29c4.79-1.22,3.88-7.56,3.08-11.62a8.81,8.81,0,0,1-6.39,4.84c-7,1.79-12.2-2.32-13.71-8.83-1.63-7.09,1.76-13.67,9.61-15.66C531.85,371,537,378.1,539,387c2.36,10.17,2.31,21.19-8.35,23.9-7.91,2-12.31-2.31-14-6.61Zm-4.06-15.61c.86,3.67,3.38,5.43,6.57,4.62s4.62-3.07,3.71-7c-.55-2.43-2.37-5.93-6.57-4.83-3.42.84-4.48,3.88-3.71,7.25Z"/><path class="cls-28" d="M547.7,406l-2.23-9.67,7.94-2,2.23,9.66Z"/><path class="cls-28" d="M565.48,392a4.36,4.36,0,0,0,5.5,2.29c4.8-1.21,3.88-7.54,3.16-11.6a8.77,8.77,0,0,1-6.39,4.83c-7,1.78-12.18-2.32-13.69-8.82-1.65-7.09,1.74-13.68,9.59-15.67,9.59-2.43,14.71,4.63,16.77,13.55,2.35,10.19,2.31,21.21-8.35,23.91-7.9,2-12.32-2.3-14-6.6Zm-4.06-15.59c.86,3.67,3.4,5.43,6.57,4.62s4.62-3.08,3.71-7.06c-.55-2.41-2.35-5.91-6.56-4.83-3.41.85-4.49,3.9-3.72,7.27Z"/><path class="cls-28" d="M601.19,364.49c1.43,6.18-.94,11.27-6.76,12.79-5.5,1.4-10-1.26-11.56-8.14-1.34-5.83.83-11.19,6.8-12.71C595,355,599.61,357.57,601.19,364.49Zm-12.61,3.22c.83,3.58,2.51,5.22,4.77,4.64s3.08-2.63,2.27-6.45-2.68-5-4.81-4.51-3.08,2.53-2.23,6.21Zm9.47,25.6,12.5-41.6,5.42-1.37-12.53,41.54Zm33.09-18.72c1.43,6.17-.92,11.28-6.74,12.79-5.53,1.4-10-1.29-11.57-8.13-1.35-5.84.82-11.2,6.79-12.72,5.36-1.46,10,1.18,11.52,8Zm-12.61,3.22c.83,3.58,2.51,5.21,4.79,4.64s3.08-2.62,2.25-6.44-2.68-5.06-4.81-4.51-3.08,2.52-2.23,6.17Z"/><path class="cls-17" d="M671.49,213.92a4.76,4.76,0,0,0-1.23-1.59l-10-8.33a17,17,0,0,0-4.37-2.66,13.39,13.39,0,0,0-5.08-.94,16.47,16.47,0,0,0-7.22,1.76,15.62,15.62,0,0,0-6.19,5.63,4.54,4.54,0,0,0-1.63-2.76,4.69,4.69,0,0,0-3-1.09H628v18.91h4.73a4.42,4.42,0,0,0,1.89-.42,5.33,5.33,0,0,0,1.54-1,16.18,16.18,0,0,0,1.83,3.37,15.57,15.57,0,0,0,2.66,2.9l10,8.32a5.94,5.94,0,0,0,1.36.84,4.25,4.25,0,0,0,1.54.29,5.37,5.37,0,0,0,3.78-1.78L670.85,219a4.25,4.25,0,0,0,.88-1.53,5,5,0,0,0,.24-1.53A4.33,4.33,0,0,0,671.49,213.92Zm-17.6,19.8L643,224.63a11.59,11.59,0,0,1-.68-17.34,11.51,11.51,0,0,1,12.32-2.87,12,12,0,0,1,3.49,2.07l10.87,9.1Z"/><rect class="cls-9" x="375.87" y="457.38" width="33.57" height="33.57" rx="2.48"/><rect class="cls-29" x="385.12" y="466.63" width="15.07" height="15.07" rx="2.64"/><rect class="cls-9" x="476.94" y="457.38" width="33.57" height="33.57" rx="2.48"/><rect class="cls-29" x="487.85" y="466.22" width="4.84" height="15.89" rx="1.53"/><rect class="cls-29" x="494.77" y="466.22" width="4.84" height="15.89" rx="1.53"/><rect class="cls-9" x="426.41" y="457.38" width="33.57" height="33.57" rx="2.48"/><path class="cls-29" d="M438.35,467.65v13a.81.81,0,0,0,1.2.75l10.66-6.47a.91.91,0,0,0,.25-1.25,1,1,0,0,0-.25-.25l-10.62-6.53a.82.82,0,0,0-1.12.25A.81.81,0,0,0,438.35,467.65Z"/><path class="cls-4" d="M328.48,531.41a7.41,7.41,0,1,0,7.35,7.46v-.15a7,7,0,0,0-2.11-5.21A7.15,7.15,0,0,0,328.48,531.41Z"/><path class="cls-4" d="M349.67,523a3.14,3.14,0,0,0-2.31-1H339.2l-4.06-4.84H321.81L317.76,522H309.6a3.11,3.11,0,0,0-2.34,1,3.23,3.23,0,0,0-1,2.31v28.49a3.43,3.43,0,0,0,3.34,3.33h37.76a3.25,3.25,0,0,0,2.31-1,3.18,3.18,0,0,0,1-2.33V525.28A3.21,3.21,0,0,0,349.67,523Zm-4.44,29.09H311.74V526.79h8.62L324,522.5H333l3.6,4.29h8.62Z"/><path class="cls-6" d="M350.25,463.79a3.35,3.35,0,0,0-2.4-1H309.11a3.48,3.48,0,0,0-3.41,3.42v27.34a3.51,3.51,0,0,0,3.41,3.43h16l-4.79,4.85v2h16.41v-2L331.9,497h16a3.51,3.51,0,0,0,3.42-3.42V466.19A3.34,3.34,0,0,0,350.25,463.79Zm-4.45,24H311.23V468h34.55Z"/><path class="cls-29" d="M209.84,211.27v14.61a.89.89,0,0,0,.74,1,.93.93,0,0,0,.61-.12l11.95-7.26a1,1,0,0,0,.29-1.39.92.92,0,0,0-.29-.3l-11.95-7.35a.9.9,0,0,0-1.22.29A.93.93,0,0,0,209.84,211.27Z"/><path class="cls-6" d="M248.74,196.25a5.19,5.19,0,0,0-3.77-1.61H184a5.52,5.52,0,0,0-5.38,5.38v43a5.52,5.52,0,0,0,5.38,5.39h25.11l-7.53,7.62v3.14h25.84v-3.14l-7.54-7.62H245a5.55,5.55,0,0,0,5.39-5.39V200A5.15,5.15,0,0,0,248.74,196.25Zm-7,37.79H187.33V202.91h54.39Z"/></g></g></svg>