<svg xmlns="http://www.w3.org/2000/svg" viewBox="0 0 800 779"><defs><style>.cls-1{fill:#ffd13e;}.cls-2{opacity:0.2;}.cls-3,.cls-4{fill:none;stroke:#000;stroke-miterlimit:10;}.cls-3{stroke-width:20px;}.cls-4{stroke-width:15px;}</style></defs><g id="레이어_2" data-name="레이어 2"><g id="레이어_1-2" data-name="레이어 1"><rect class="cls-1" width="800" height="779"/><path class="cls-2" d="M277,642V353l20.51,21.73L318,353l20.5,21.73L359,353l20.5,21.73L400,353l20.51,21.73L441,353l20.51,21.73L482,353l20.51,21.73L523,353V642l-20.51-21.73L482,642l-20.5-21.73L441,642l-20.5-21.73L400,642l-20.51-21.73L359,642l-20.51-21.73L318,642l-20.51-21.73Zm40-77.86H484.42V542.41H317Zm0-55.78H484.42V486.64H317Zm0-56.13H484.42V430.5H317ZM297.47,605.42H502.53V389.58H297.47Zm0-215.84v0Z"/><rect width="800" height="150"/><line class="cls-3" x1="254.68" y1="301" x2="69.18" y2="486.5"/><line class="cls-3" x1="728.68" y1="487.5" x2="543.18" y2="302"/><path d="M191.37,461.72C197,473.39,203,484.93,209,496.42a8.33,8.33,0,0,0,11.46,3.86c4.23-2.14,5.62-6.68,3.76-11.55-.74-1.94-2.65-3.48-2.1-6.21,55.6,29.66,115.07,42.73,177.61,42.81s122.15-13.15,178.08-42.08a25.06,25.06,0,0,1-1.91,5.2c-2.17,5-.65,9.77,3.76,11.91,4.22,2.05,9,.54,11.39-4.09,6-11.5,12-23,17.63-34.71,2.94-6.09-.82-12-7.62-12.31-12.64-.54-25.29-.9-38-1.18-6-.14-9.65,3.15-9.75,8.27s3.55,8.41,9.49,8.73c2.87.15,5.74,0,8.61,0l.07,1.41c-57.77,31.49-120,44-185.37,41.78-55.76-1.86-108.69-14.8-157.73-41.88,0-.44.09-.87.13-1.31,2.91,0,5.83.14,8.73,0,5.87-.34,9.53-3.91,9.32-8.9s-3.91-8.24-9.94-8.1q-18.72.44-37.45,1.16C192.11,449.51,188.3,455.39,191.37,461.72Z"/><rect class="cls-3" x="100" y="50" width="600" height="158" rx="25.32"/><path class="cls-4" d="M535.28,264H257.72c-6.2,0-8.22-3.74-11.22-10.29l-15-36.48c0-5.8,20-11.23,26.22-11.23H535.28c6.2,0,33.22,4.7,33.22,10.49l-22,37.22C541.5,261.19,541.48,264,535.28,264Z"/></g></g></svg>