<svg xmlns="http://www.w3.org/2000/svg" viewBox="0 0 775.9 40.39"><defs><style>.cls-1{fill:none;stroke:#657996;stroke-miterlimit:10;}.cls-2{fill:#e52e2e;}.cls-3{fill:#052c69;}.cls-4{fill:#4976b7;}</style></defs><g id="레이어_2" data-name="레이어 2"><g id="레이어_1-2" data-name="레이어 1"><line class="cls-1" x1="240" y1="39.89" y2="39.89"/><path class="cls-2" d="M163.05,13.75V1.12h5.7V14.33c0,4.49,1.33,6.08,4,6.08s4-1.59,4-6.08V1.12h5.49V13.75c0,8-3.19,11.61-9.53,11.61S163.05,21.7,163.05,13.75Z"/><path class="cls-2" d="M187.57,1.05h8.33c5.24,0,9.55,1.86,9.55,7.72s-4.36,8.17-9.4,8.17h-2.76v8h-5.72Zm8.2,11.36c2.78,0,4.12-1.25,4.12-3.63s-1.54-3.23-4.35-3.23h-2.37v6.86Z"/><path class="cls-3" d="M55.75,12.16a1.7,1.7,0,0,1-.56,1.34,2.18,2.18,0,0,1-1.51.5H50.27V9.67H48.52v.14a4.34,4.34,0,0,1-1.12,3.07,3.9,3.9,0,0,1-3,1.17H38.63a3.9,3.9,0,0,1-3-1.17,4.26,4.26,0,0,1-1.12-3.07V5.35a4.24,4.24,0,0,1,1.12-3.07,4,4,0,0,1,3-1.17h5.75a4,4,0,0,1,3,1.17,4.27,4.27,0,0,1,1.11,3.07v.16h1.75V1.25h5.49Zm0,12.16a1.64,1.64,0,0,1-.46,1.25A1.7,1.7,0,0,1,54,26H37.92a1.56,1.56,0,0,1-1.7-1.7v-9.7H41.7v1.45h8.59V14.62h5.49ZM40,8.44a1.58,1.58,0,0,0,.27,1.08,1,1,0,0,0,.71.27h1.07a1,1,0,0,0,.7-.27A1.49,1.49,0,0,0,43,8.44V6.73a1.51,1.51,0,0,0-.28-1.11,1,1,0,0,0-.7-.24H41a1.05,1.05,0,0,0-.71.24A1.57,1.57,0,0,0,40,6.73ZM50.27,21.81V20.3H41.68v1.51Z"/><path class="cls-3" d="M73,18.62V24a1.74,1.74,0,0,1-.68,1.39A2.32,2.32,0,0,1,70.8,26H67.54V18.62h-7.3a1.84,1.84,0,0,1-1.25-.4A1.59,1.59,0,0,1,58.57,17v-2.5H81.7V17a1.62,1.62,0,0,1-.43,1.25,1.84,1.84,0,0,1-1.25.4ZM59.87,1.25H80.38V11.38a1.48,1.48,0,0,1-.4,1.13,1.69,1.69,0,0,1-1.18.35H61.43a1.69,1.69,0,0,1-1.18-.35,1.46,1.46,0,0,1-.38-1.13Zm5.48,7.5h9.57V5.44H65.35Z"/><path class="cls-3" d="M87.45,21.75V18.89h5.44v2.86h3.75V18.89H102v2.86h4.06v2.19a1.85,1.85,0,0,1-.6,1.46,2.2,2.2,0,0,1-1.53.54H85.22a2.2,2.2,0,0,1-1.53-.54,1.84,1.84,0,0,1-.61-1.46V21.75ZM92,2.33V0H97.5V2.33h7.84V5A1.46,1.46,0,0,1,105,6.14a1.69,1.69,0,0,1-1.17.35H85.34a1.69,1.69,0,0,1-1.17-.35A1.46,1.46,0,0,1,83.78,5V2.33ZM105.1,13.65a4,4,0,0,1-1.4,3.15,4.84,4.84,0,0,1-3.38,1.25H88.85a4.89,4.89,0,0,1-3.38-1.25,4,4,0,0,1-1.39-3.15V11.56a4.06,4.06,0,0,1,1.39-3.15,4.89,4.89,0,0,1,3.38-1.25h11.47a4.89,4.89,0,0,1,3.38,1.25,4,4,0,0,1,1.4,3.15Zm-15.46-1a1.25,1.25,0,0,0,.34.94,1.7,1.7,0,0,0,1.25.36h6.7a1.7,1.7,0,0,0,1.25-.36,1.25,1.25,0,0,0,.34-.94v-.09a1.29,1.29,0,0,0-.34-1,1.81,1.81,0,0,0-1.25-.34H91.24a1.86,1.86,0,0,0-1.25.34,1.29,1.29,0,0,0-.34,1Z"/><path class="cls-3" d="M129.32,20.65a1.4,1.4,0,0,1-.37,1.1,1.64,1.64,0,0,1-1.15.32H114.27v.63h15.26v1.81a1.52,1.52,0,0,1-.4,1.15,1.77,1.77,0,0,1-1.25.37H110.37a1.75,1.75,0,0,1-1.25-.37,1.49,1.49,0,0,1-.4-1.15V19h15V18.4H110.24a1.69,1.69,0,0,1-1.15-.32,1.38,1.38,0,0,1-.37-1.11V15.14h3.75v-.79h-3.23A1.83,1.83,0,0,1,108,14a1.64,1.64,0,0,1-.44-1.25V10.54h23.12V12.7a1.6,1.6,0,0,1-.44,1.25,1.88,1.88,0,0,1-1.25.39H126a1.49,1.49,0,0,1-.24.79h3.52Zm.58-14.14A3,3,0,0,1,128.65,9a5,5,0,0,1-3.22,1H112.72a5,5,0,0,1-3.23-1,3,3,0,0,1-1.25-2.5V4.63a3.09,3.09,0,0,1,1.25-2.58,5,5,0,0,1,3.23-1h12.73a5,5,0,0,1,3.23,1,3.11,3.11,0,0,1,1.25,2.57Zm-6.47-.46a2.19,2.19,0,0,0,.84-.11.43.43,0,0,0,.23-.38.41.41,0,0,0-.23-.36,2.21,2.21,0,0,0-.84-.13h-8.68a2.31,2.31,0,0,0-.86.13.39.39,0,0,0-.25.36.42.42,0,0,0,.25.38,2.29,2.29,0,0,0,.86.11Zm-5.6,8.3a1.59,1.59,0,0,1-.24.79h3.08v-.79Z"/><path class="cls-3" d="M139.74,11.25a6.49,6.49,0,0,1-3.2,2.5,10.88,10.88,0,0,1-4.34,1.07V10.44a5.31,5.31,0,0,0,3.2-1.76q1.5-1.57,1.5-5.47v-2h5.6V3.21c0,2.6.48,4.41,1.42,5.46a5,5,0,0,0,3.15,1.77v4.42a10.43,10.43,0,0,1-4.25-1.07A6.25,6.25,0,0,1,139.74,11.25Zm14.25,11a3.54,3.54,0,0,1-1.25,2.92,5,5,0,0,1-3.2,1H138a5,5,0,0,1-3.19-1,3.48,3.48,0,0,1-1.25-2.92V19.35a3.45,3.45,0,0,1,1.25-2.9,5,5,0,0,1,3.19-1h11.51a5,5,0,0,1,3.2,1,3.47,3.47,0,0,1,1.25,2.9Zm-5.51-1.56a1,1,0,0,0-.25-.7,1.54,1.54,0,0,0-1.1-.27h-6.76a1.52,1.52,0,0,0-1.1.27,1,1,0,0,0-.25.7v.19a1,1,0,0,0,.25.7,1.59,1.59,0,0,0,1.1.27h6.76a1.49,1.49,0,0,0,1.1-.27,1,1,0,0,0,.25-.7Zm5.21-7.65a1.69,1.69,0,0,1-.57,1.34,2.22,2.22,0,0,1-1.52.5h-3.43V8.44h-2A1.58,1.58,0,0,1,145.08,8a1.46,1.46,0,0,1-.43-1.1V4.28h3.52v-3h5.48Z"/><line class="cls-1" x1="507.95" y1="39.89" x2="267.95" y2="39.89"/><path class="cls-3" d="M319.62,21.75V10.11h5.51V21.75h11.44v2.19a1.85,1.85,0,0,1-.6,1.46,2.2,2.2,0,0,1-1.54.54H315.68a2.17,2.17,0,0,1-1.52-.54,1.81,1.81,0,0,1-.61-1.46V21.75Zm-4.84-20.5H335.3V12.63a24.61,24.61,0,0,1-.37,4.1,11.68,11.68,0,0,1-1.25,3.75h-5.37a13.41,13.41,0,0,0,1.17-3.95,29.37,29.37,0,0,0,.32-4V5.49H316.38A1.65,1.65,0,0,1,315.26,5a1.62,1.62,0,0,1-.5-1.25Z"/><path class="cls-3" d="M340.13,5.38A1.71,1.71,0,0,1,338.88,5a1.59,1.59,0,0,1-.5-1.25V1.25h10.68V4.81a10.23,10.23,0,0,1-2.5,7.41c-1.7,1.77-4.43,2.64-8.15,2.64V10.54a5.69,5.69,0,0,0,4.16-1.25,5.41,5.41,0,0,0,1.19-3.9ZM360.6,24.21a1.73,1.73,0,0,1-.63,1.34,2.19,2.19,0,0,1-1.49.52h-3.37V19.62H342.25a1.73,1.73,0,0,1-1.19-.33,1.46,1.46,0,0,1-.41-1.19V15.43h19.9Zm0-11.1a1.6,1.6,0,0,1-.63,1.25,2.12,2.12,0,0,1-1.42.51h-3V10h-.73v3.21a1.51,1.51,0,0,1-.51,1.19,2,2,0,0,1-1.44.46h-3.05V1.25h5V5.51h.73V1.25h5Z"/><path class="cls-2" d="M420,13.75V1.12h5.69V14.33c0,4.49,1.34,6.08,4,6.08s4-1.59,4-6.08V1.12h5.48V13.75c0,8-3.2,11.61-9.52,11.61S420,21.7,420,13.75Z"/><path class="cls-2" d="M444.47,1.05h8.34c5.24,0,9.55,1.86,9.55,7.72S458,16.94,453,16.94H450.2v8h-5.73Zm8.16,11.36c2.79,0,4.12-1.25,4.12-3.63s-1.54-3.23-4.35-3.23h-2.27v6.86Z"/><path class="cls-3" d="M363,1.25h13.41v13a1.49,1.49,0,0,1-.38,1.14,1.74,1.74,0,0,1-1.18.35H364.6a1.72,1.72,0,0,1-1.18-.35,1.53,1.53,0,0,1-.39-1.14ZM365.47,26a1.8,1.8,0,0,1-1.31-.45,1.67,1.67,0,0,1-.48-1.25V16.68h5.52v5.13h13.9v2.5a1.65,1.65,0,0,1-.49,1.25,1.85,1.85,0,0,1-1.33.45Zm3-14.51h2.35V5.46H368.5Zm14.48-5h3.57v3a1.44,1.44,0,0,1-.5,1.25,2.22,2.22,0,0,1-1.39.38H383v6.13a1.7,1.7,0,0,1-.56,1.34,2.22,2.22,0,0,1-1.52.5h-3.4V1.25H383Z"/><path class="cls-3" d="M388.62,15.72a1.88,1.88,0,0,1-1.25-.38,1.61,1.61,0,0,1-.44-1.25v-2.5h9V9.35a14.56,14.56,0,0,1-1.58.65,19.86,19.86,0,0,1-6.44,1V7.14a12.48,12.48,0,0,0,5.37-1.25,4.61,4.61,0,0,0,1.25-.78h-4.67a1.74,1.74,0,0,1-1.18-.35,1.48,1.48,0,0,1-.4-1.13V1.13h20.55v2.5a1.44,1.44,0,0,1-.4,1.13,1.69,1.69,0,0,1-1.17.35h-4.63a5.24,5.24,0,0,0,1.25.78,12.52,12.52,0,0,0,5.38,1.25V11a19.83,19.83,0,0,1-6.48-1c-.51-.17-1-.36-1.41-.54v2.1h8.75v2.5a1.64,1.64,0,0,1-.42,1.25,1.85,1.85,0,0,1-1.25.39Zm20.13,8.49a1.69,1.69,0,0,1-.62,1.34,2.17,2.17,0,0,1-1.48.52h-3.39V20.72H389.72a1.87,1.87,0,0,1-1.19-.33,1.52,1.52,0,0,1-.4-1.18V16.54h20.62ZM398.53,7.38A7.13,7.13,0,0,1,396,9.3h5A6.93,6.93,0,0,1,398.53,7.38Z"/><line class="cls-1" x1="775.9" y1="39.89" x2="535.9" y2="39.89"/><path class="cls-4" d="M667.33,2.78h5.89c6.25,0,10.36,3,10.36,10.12s-4.12,10.34-10.08,10.34h-6.17ZM673,19.29c3.3,0,5.63-1.53,5.63-6.39S676.25,6.65,673,6.65h-.67v12.6Z"/><path class="cls-4" d="M686.45,12.86c0-6.71,3.75-10.5,9.37-10.5s9.39,3.82,9.39,10.5-3.75,10.73-9.39,10.73S686.45,19.57,686.45,12.86Zm13.75,0c0-4-1.68-6.25-4.38-6.25s-4.34,2.34-4.34,6.25,1.65,6.49,4.34,6.49S700.2,16.85,700.2,12.86Z"/><path class="cls-4" d="M707.07,2.78h5l1.25,9.32.83,6.49h.05c.38-2.16.8-4.36,1.25-6.49l2.1-9.32h4.15l2.13,9.32c.42,2.09.78,4.29,1.25,6.49h.15c.25-2.2.53-4.36.77-6.49l1.32-9.32H732l-3.55,20.46H722.2l-1.75-8.91c-.34-1.57-.62-3.22-.8-4.76h-.14c-.25,1.54-.5,3.19-.8,4.76l-1.79,8.91h-6Z"/><path class="cls-4" d="M734.71,2.78h5l5.09,9.86,2,4.53H747a64.69,64.69,0,0,1-.67-7.5V2.78H751V23.24h-5l-5-9.88-2-4.47h-.13c.21,2.27.63,5.09.63,7.56v6.79h-4.68Z"/><path class="cls-3" d="M582.08,12.16a1.67,1.67,0,0,1-.56,1.34A2.18,2.18,0,0,1,580,14H576.6V9.67h-1.75v.14a4.34,4.34,0,0,1-1.12,3.07,3.9,3.9,0,0,1-3,1.17H565a3.9,3.9,0,0,1-3-1.17,4.28,4.28,0,0,1-1.1-3.07V5.35A4.22,4.22,0,0,1,562,2.28a4,4,0,0,1,3-1.17h5.78a4,4,0,0,1,3,1.17,4.24,4.24,0,0,1,1.12,3.07v.16h1.75V1.25h5.48Zm0,12.16a1.6,1.6,0,0,1-.46,1.25,1.7,1.7,0,0,1-1.25.45H564.2a1.55,1.55,0,0,1-1.73-1.35,2,2,0,0,1,0-.35v-9.7H568v1.45h8.59V14.62H582ZM566.33,8.44a1.58,1.58,0,0,0,.27,1.08,1,1,0,0,0,.7.27h1.08a1,1,0,0,0,.7-.27,1.49,1.49,0,0,0,.28-1.08V6.73a1.51,1.51,0,0,0-.28-1.11,1,1,0,0,0-.7-.24H567.3a1,1,0,0,0-.7.24,1.62,1.62,0,0,0-.27,1.11ZM576.6,21.81V20.3H568v1.51Z"/><path class="cls-3" d="M599.36,18.62V24a1.78,1.78,0,0,1-.69,1.39,2.3,2.3,0,0,1-1.54.59h-3.26V18.62h-7.3a1.84,1.84,0,0,1-1.25-.4A1.59,1.59,0,0,1,584.9,17v-2.5h23.17V17a1.59,1.59,0,0,1-.42,1.25,1.84,1.84,0,0,1-1.25.4ZM586.2,1.25h20.5V11.38a1.43,1.43,0,0,1-.39,1.13,1.66,1.66,0,0,1-1.18.35H587.76a1.69,1.69,0,0,1-1.18-.35,1.46,1.46,0,0,1-.38-1.13Zm5.5,7.5h9.57V5.44H591.7Z"/><path class="cls-3" d="M609.86,1.25h13.75V4a10,10,0,0,1-3.26,7.61q-3.27,3-10.44,3V10.4a11,11,0,0,0,6-1.31,3.76,3.76,0,0,0,2-3.28V5.44h-6.35A1.7,1.7,0,0,1,610.37,5a1.64,1.64,0,0,1-.5-1.25Zm20.49,21a3.53,3.53,0,0,1-1.25,2.91,5,5,0,0,1-3.2,1H614.38a5,5,0,0,1-3.18-1A3.5,3.5,0,0,1,610,22.23V19.35a3.45,3.45,0,0,1,1.25-2.9,4.94,4.94,0,0,1,3.18-1H625.9a4.88,4.88,0,0,1,3.2,1,3.47,3.47,0,0,1,1.25,2.9Zm-5.52-1.57a1,1,0,0,0-.23-.7,1.53,1.53,0,0,0-1.12-.27H616.7a1.54,1.54,0,0,0-1.1.27,1,1,0,0,0-.27.7v.19a1,1,0,0,0,.27.7,1.59,1.59,0,0,0,1.1.27h6.75a1.56,1.56,0,0,0,1.11-.27,1,1,0,0,0,.24-.7Zm5-15h3.58V8.75a1.48,1.48,0,0,1-.5,1.25,2.39,2.39,0,0,1-1.4.38h-1.68V13a1.69,1.69,0,0,1-.56,1.33,2.18,2.18,0,0,1-1.51.5h-3.4V1.25h5.47Z"/><path class="cls-3" d="M642.7,21.75V17.21h5.46v4.54h8.75v2.19a1.91,1.91,0,0,1-.59,1.46,2.25,2.25,0,0,1-1.55.54H636a2.17,2.17,0,0,1-1.52-.54,1.89,1.89,0,0,1-.62-1.46V21.75ZM655.67,4a1.42,1.42,0,0,1-.41,1.14,1.75,1.75,0,0,1-1.25.37H640.67v6.42h15.26v2.68a1.42,1.42,0,0,1-.4,1.15,1.66,1.66,0,0,1-1.25.37H636.76a1.71,1.71,0,0,1-1.25-.37,1.49,1.49,0,0,1-.4-1.15V1.25h20.51Z"/></g></g></svg>