<?xml version="1.0" encoding="utf-8"?>
<!-- Generator: Adobe Illustrator 24.3.0, SVG Export Plug-In . SVG Version: 6.00 Build 0)  -->
<svg version="1.1" id="레이어_1" xmlns="http://www.w3.org/2000/svg" xmlns:xlink="http://www.w3.org/1999/xlink" x="0px"
	 y="0px" viewBox="0 0 879 602" style="enable-background:new 0 0 879 602;" xml:space="preserve">
<style type="text/css">
	.st0{fill:#F2C300;}
	.st1{fill:none;stroke:#000000;stroke-width:4;stroke-miterlimit:10;}
	.st2{fill:#878787;stroke:#000000;stroke-miterlimit:10;}
	.st3{fill:none;stroke:#000000;stroke-miterlimit:10;}
	.st4{fill:#878787;stroke:#000000;stroke-width:1;stroke-miterlimit:10.0002;}
	.st5{stroke:#000000;stroke-miterlimit:10;}
	.st6{fill:#EFCB7B;stroke:#000000;stroke-miterlimit:10;}
	.st7{fill:#D39C2F;stroke:#000000;stroke-miterlimit:10;}
	.st8{fill:#FFFFFF;stroke:#000000;stroke-miterlimit:10;}
	.st9{fill:#E1F9FF;stroke:#000000;stroke-miterlimit:10;}
</style>
<g>
	<rect x="0.5" y="0.5" class="st0" width="878" height="601"/>
	<polyline class="st1" points="217.1,196.6 662,196.6 613.3,164.9 	"/>
	<path d="M380.1,138.3c1.4,0,2.8,0.2,4.2,0.5c1.3,0.3,2.4,0.9,3.5,1.7c1,0.8,1.8,1.8,2.4,3c0.6,1.4,0.9,2.8,0.9,4.3
		c0,1.4-0.3,2.7-0.8,4c-0.6,1.4-1.3,2.7-2.1,4c-0.9,1.4-1.9,2.6-3,3.9c-1.1,1.3-2.3,2.5-3.4,3.7s-2.3,2.3-3.5,3.3s-2.1,2-3.1,2.8
		h16.4v4.4h-22.9v-4.5c0.7-0.7,1.7-1.5,2.8-2.5s2.4-2.1,3.7-3.4s2.6-2.6,3.9-3.9c1.2-1.3,2.4-2.7,3.5-4.1c1-1.3,1.8-2.6,2.6-4
		c0.6-1.1,0.9-2.3,1-3.6c0.1-1.5-0.5-3-1.7-3.9c-1.3-0.8-2.8-1.3-4.3-1.2c-1.5,0-3.1,0.3-4.5,0.9c-1.6,0.6-3.2,1.3-4.8,2.2L370,141
		c1.5-0.8,3.1-1.4,4.7-1.9C376.4,138.6,378.2,138.3,380.1,138.3z"/>
	<path d="M403.8,153.3c0.9-1,2-1.8,3.2-2.3c1.2-0.4,2.4-0.6,3.6-0.6c1.6,0,3.1,0.3,4.5,1c1.3,0.6,2.4,1.5,3.3,2.6
		c0.9,1.2,1.6,2.5,2,3.9c0.5,1.5,0.7,3.1,0.7,4.6c0,1.6-0.2,3.3-0.8,4.8c-0.5,1.4-1.3,2.7-2.3,3.8s-2.3,2-3.6,2.6
		c-1.6,0.6-3.2,1-4.9,0.9c-2,0-3.9-0.1-5.8-0.5c-1.5-0.3-3-0.7-4.4-1.3l0.2-5c1.4,0.7,3,1.3,4.6,1.6c1.6,0.4,3.3,0.6,4.9,0.6
		c1.1,0,2.1-0.2,3.1-0.6c0.8-0.4,1.6-0.9,2.2-1.6c0.6-0.7,1-1.6,1.3-2.5c0.3-1,0.4-2,0.4-3c0.1-1.9-0.4-3.8-1.5-5.4
		c-1.2-1.4-3-2.1-4.8-2c-1.4,0-2.7,0.4-3.9,1.1c-1.3,0.8-2.2,2.1-2.6,3.5h-4.9l0.8-20.5h20.2v4.5H404l-0.3,9.6L403.8,153.3z"/>
	<path d="M453.2,149.3h-0.1l-8.5,24.7H441l-8.4-24.6h-0.1V174h-5v-33.9h6.7l8.6,25.7l8.9-25.7h6.3V174h-4.8V149.3z"/>
	<path d="M463.5,178.3l13.3-41.1h4.9l-13.3,41.1L463.5,178.3L463.5,178.3z"/>
	<path d="M496.9,159c-1.2-0.4-2.6-0.8-3.9-1.3c-1.3-0.4-2.6-1.1-3.8-1.9c-1.1-0.8-2.1-1.7-2.8-2.9c-0.8-1.3-1.2-2.8-1.1-4.3
		c0-1.4,0.3-2.9,1-4.1c0.7-1.2,1.7-2.1,2.8-2.9c1.2-0.8,2.5-1.4,3.9-1.7c1.4-0.4,2.9-0.6,4.4-0.6c1.8,0,3.6,0.2,5.3,0.6
		c1.5,0.4,3.1,0.9,4.5,1.4l-0.8,4.7c-0.6-0.3-1.2-0.5-1.8-0.7c-0.7-0.2-1.4-0.5-2.2-0.7c-0.8-0.2-1.5-0.4-2.4-0.5
		c-0.8-0.1-1.5-0.2-2.3-0.2c-0.9,0-1.7,0.1-2.5,0.2c-0.8,0.1-1.6,0.4-2.4,0.7c-0.7,0.3-1.3,0.8-1.8,1.4c-0.5,0.7-0.7,1.5-0.7,2.3
		c0,0.9,0.3,1.7,0.8,2.4c0.6,0.7,1.2,1.3,2,1.7c0.9,0.5,1.8,0.9,2.8,1.2c1,0.4,2.1,0.6,3.1,0.9c1.4,0.4,2.7,0.8,4.1,1.3
		c1.3,0.5,2.5,1.1,3.6,1.8c1,0.7,1.9,1.6,2.6,2.7c0.7,1.2,1,2.5,1,3.9c0.1,1.6-0.3,3.2-1.2,4.6c-0.8,1.2-1.8,2.3-3.1,3
		c-1.4,0.8-2.9,1.3-4.4,1.6c-1.8,0.3-3.5,0.5-5.3,0.5c-1.1,0-2.1-0.1-3.1-0.2c-1.1-0.2-2.2-0.4-3.2-0.6c-1-0.2-2-0.5-2.9-0.9
		c-0.8-0.3-1.5-0.6-2.2-1l0.7-4.9c1.5,0.9,3.2,1.6,4.9,2.1c2.1,0.6,4.2,0.9,6.3,0.9c1.1,0,2.1,0,3.1-0.2c0.9-0.1,1.9-0.4,2.7-0.8
		c0.8-0.4,1.4-0.9,1.9-1.6c0.5-0.7,0.7-1.6,0.7-2.4c0-0.6-0.1-1.3-0.4-1.8c-0.3-0.6-0.8-1-1.4-1.4c-0.8-0.5-1.7-0.9-2.6-1.2
		C499.9,160,498.5,159.5,496.9,159z"/>
	<polyline class="st2" points="330.8,373.7 313.7,373.7 319.3,383.4 322.3,383.4 322.3,463.2 315.9,463.2 315.9,472.2 330.8,472.2 	
		"/>
	<line class="st3" x1="315.9" y1="472.2" x2="330.8" y2="472.2"/>
	<polyline class="st2" points="330.8,373.7 347.9,373.7 342.3,383.4 339.4,383.4 339.4,463.2 345.7,463.2 345.7,472.2 330.8,472.2 	
		"/>
	<line class="st3" x1="345.7" y1="472.2" x2="330.8" y2="472.2"/>
	<polyline class="st2" points="113.4,373.7 96.3,373.7 101.9,383.4 104.9,383.4 104.9,463.2 98.5,463.2 98.5,472.2 113.4,472.2 	"/>
	<line class="st3" x1="98.5" y1="472.2" x2="113.4" y2="472.2"/>
	<polyline class="st2" points="113.4,373.7 130.5,373.7 124.9,383.4 122,383.4 122,463.2 128.3,463.2 128.3,472.2 113.4,472.2 	"/>
	<line class="st3" x1="128.3" y1="472.2" x2="113.4" y2="472.2"/>
	<polyline class="st2" points="548.2,373.7 531.1,373.7 536.7,383.4 539.7,383.4 539.7,463.2 533.3,463.2 533.3,472.2 548.2,472.2 	
		"/>
	<line class="st3" x1="533.3" y1="472.2" x2="548.2" y2="472.2"/>
	<polyline class="st2" points="548.2,373.7 565.3,373.7 559.7,383.4 556.7,383.4 556.7,463.2 563.1,463.2 563.1,472.2 548.2,472.2 	
		"/>
	<line class="st3" x1="563.1" y1="472.2" x2="548.2" y2="472.2"/>
	<polyline class="st2" points="765.6,373.7 748.5,373.7 754.1,383.4 757,383.4 757,463.2 750.7,463.2 750.7,472.2 765.6,472.2 	"/>
	<line class="st3" x1="750.7" y1="472.2" x2="765.6" y2="472.2"/>
	<polyline class="st2" points="765.6,373.7 782.7,373.7 777.1,383.4 774.1,383.4 774.1,463.2 780.5,463.2 780.5,472.2 765.6,472.2 	
		"/>
	<line class="st3" x1="780.5" y1="472.2" x2="765.6" y2="472.2"/>
	<rect x="48.3" y="339.7" class="st2" width="782.8" height="29.2"/>
	<circle class="st2" cx="68.4" cy="354.3" r="7"/>
	<ellipse class="st4" cx="124.8" cy="354.3" rx="7" ry="7"/>
	<circle class="st2" cx="181.2" cy="354.3" r="7"/>
	<circle class="st2" cx="237.6" cy="354.3" r="7"/>
	<circle class="st2" cx="294.1" cy="354.3" r="7"/>
	<circle class="st2" cx="350.5" cy="354.3" r="7"/>
	<circle class="st2" cx="406.9" cy="354.3" r="7"/>
	<circle class="st2" cx="463.3" cy="354.3" r="7"/>
	<circle class="st2" cx="519.7" cy="354.3" r="7"/>
	<circle class="st2" cx="576.1" cy="354.3" r="7"/>
	<circle class="st2" cx="632.5" cy="354.3" r="7"/>
	<circle class="st2" cx="689" cy="354.3" r="7"/>
	<circle class="st2" cx="745.4" cy="354.3" r="7"/>
	<circle class="st2" cx="801.8" cy="354.3" r="7"/>
	<polygon class="st5" points="94.5,335.4 75.5,335.4 75.5,332.3 56.8,332.3 56.8,335.4 48.3,335.4 48.3,339.1 94.5,339.1 	"/>
	<polygon class="st5" points="131.7,335.4 112.6,335.4 112.6,332.3 94,332.3 94,335.4 85.5,335.4 85.5,339.1 131.7,339.1 	"/>
	<polygon class="st5" points="171,335.4 152,335.4 152,332.3 133.3,332.3 133.3,335.4 124.8,335.4 124.8,339.1 171,339.1 	"/>
	<polygon class="st5" points="207.8,335.4 188.8,335.4 188.8,332.3 170.2,332.3 170.2,335.4 161.7,335.4 161.7,339.1 207.8,339.1 	
		"/>
	<polygon class="st5" points="246.6,335.4 227.5,335.4 227.5,332.3 208.9,332.3 208.9,335.4 200.4,335.4 200.4,339.1 246.6,339.1 	
		"/>
	<polygon class="st5" points="283.6,335.4 264.6,335.4 264.6,332.3 246,332.3 246,335.4 237.5,335.4 237.5,339.1 283.6,339.1 	"/>
	<polygon class="st5" points="322.1,335.4 303.1,335.4 303.1,332.3 284.5,332.3 284.5,335.4 276,335.4 276,339.1 322.1,339.1 	"/>
	<polygon class="st5" points="362.3,335.4 343.2,335.4 343.2,332.3 324.6,332.3 324.6,335.4 316.1,335.4 316.1,339.1 362.3,339.1 	
		"/>
	<polygon class="st5" points="399.1,335.4 380.1,335.4 380.1,332.3 361.5,332.3 361.5,335.4 353,335.4 353,339.1 399.1,339.1 	"/>
	<polygon class="st5" points="437.9,335.4 418.8,335.4 418.8,332.3 400.2,332.3 400.2,335.4 391.7,335.4 391.7,339.1 437.9,339.1 	
		"/>
	<polygon class="st5" points="474.9,335.4 455.9,335.4 455.9,332.3 437.3,332.3 437.3,335.4 428.8,335.4 428.8,339.1 474.9,339.1 	
		"/>
	<polygon class="st5" points="513.5,335.4 494.4,335.4 494.4,332.3 475.8,332.3 475.8,335.4 467.3,335.4 467.3,339.1 513.5,339.1 	
		"/>
	<polygon class="st5" points="551.2,335.4 532.2,335.4 532.2,332.3 513.6,332.3 513.6,335.4 505.1,335.4 505.1,339.1 551.2,339.1 	
		"/>
	<polygon class="st5" points="588.1,335.4 569.1,335.4 569.1,332.3 550.4,332.3 550.4,335.4 541.9,335.4 541.9,339.1 588.1,339.1 	
		"/>
	<polygon class="st5" points="626.8,335.4 607.8,335.4 607.8,332.3 589.1,332.3 589.1,335.4 580.7,335.4 580.7,339.1 626.8,339.1 	
		"/>
	<polygon class="st5" points="663.9,335.4 644.9,335.4 644.9,332.3 626.2,332.3 626.2,335.4 617.7,335.4 617.7,339.1 663.9,339.1 	
		"/>
	<polygon class="st5" points="702.4,335.4 683.4,335.4 683.4,332.3 664.7,332.3 664.7,335.4 656.2,335.4 656.2,339.1 702.4,339.1 	
		"/>
	<polygon class="st5" points="742.5,335.4 723.5,335.4 723.5,332.3 704.9,332.3 704.9,335.4 696.4,335.4 696.4,339.1 742.5,339.1 	
		"/>
	<polygon class="st5" points="779.4,335.4 760.4,335.4 760.4,332.3 741.7,332.3 741.7,335.4 733.2,335.4 733.2,339.1 779.4,339.1 	
		"/>
	<polygon class="st5" points="818.1,335.4 799.1,335.4 799.1,332.3 780.4,332.3 780.4,335.4 772,335.4 772,339.1 818.1,339.1 	"/>
	<polygon class="st5" points="790.8,335.4 807.5,335.4 807.5,332.3 823.8,332.3 823.8,335.4 831.2,335.4 831.2,339.1 790.8,339.1 	
		"/>
	<polygon class="st5" points="831.2,372.6 812.1,372.6 812.1,375.7 793.5,375.7 793.5,372.6 785,372.6 785,368.9 831.2,368.9 	"/>
	<polygon class="st5" points="737.7,372.6 756.7,372.6 756.7,375.7 775.3,375.7 775.3,372.6 783.8,372.6 783.8,368.9 737.7,368.9 	
		"/>
	<polygon class="st5" points="697.8,372.6 716.8,372.6 716.8,375.7 735.5,375.7 735.5,372.6 744,372.6 744,368.9 697.8,368.9 	"/>
	<polygon class="st5" points="660.7,372.6 679.7,372.6 679.7,375.7 698.3,375.7 698.3,372.6 706.8,372.6 706.8,368.9 660.7,368.9 	
		"/>
	<polygon class="st5" points="621.3,372.6 640.4,372.6 640.4,375.7 659,375.7 659,372.6 667.5,372.6 667.5,368.9 621.3,368.9 	"/>
	<polygon class="st5" points="584.5,372.6 603.5,372.6 603.5,375.7 622.2,375.7 622.2,372.6 630.6,372.6 630.6,368.9 584.5,368.9 	
		"/>
	<polygon class="st5" points="545.8,372.6 564.8,372.6 564.8,375.7 583.4,375.7 583.4,372.6 591.9,372.6 591.9,368.9 545.8,368.9 	
		"/>
	<polygon class="st5" points="508.7,372.6 527.7,372.6 527.7,375.7 546.3,375.7 546.3,372.6 554.8,372.6 554.8,368.9 508.7,368.9 	
		"/>
	<polygon class="st5" points="470.2,372.6 489.2,372.6 489.2,375.7 507.9,375.7 507.9,372.6 516.3,372.6 516.3,368.9 470.2,368.9 	
		"/>
	<polygon class="st5" points="430,372.6 449.1,372.6 449.1,375.7 467.7,375.7 467.7,372.6 476.2,372.6 476.2,368.9 430,368.9 	"/>
	<polygon class="st5" points="393.2,372.6 412.2,372.6 412.2,375.7 430.9,375.7 430.9,372.6 439.3,372.6 439.3,368.9 393.2,368.9 	
		"/>
	<polygon class="st5" points="354.5,372.6 373.5,372.6 373.5,375.7 392.1,375.7 392.1,372.6 400.6,372.6 400.6,368.9 354.5,368.9 	
		"/>
	<polygon class="st5" points="317.4,372.6 336.4,372.6 336.4,375.7 355,375.7 355,372.6 363.5,372.6 363.5,368.9 317.4,368.9 	"/>
	<polygon class="st5" points="278.9,372.6 297.9,372.6 297.9,375.7 316.5,375.7 316.5,372.6 325,372.6 325,368.9 278.9,368.9 	"/>
	<polygon class="st5" points="241.1,372.6 260.1,372.6 260.1,375.7 278.7,375.7 278.7,372.6 287.2,372.6 287.2,368.9 241.1,368.9 	
		"/>
	<polygon class="st5" points="204.2,372.6 223.3,372.6 223.3,375.7 241.9,375.7 241.9,372.6 250.4,372.6 250.4,368.9 204.2,368.9 	
		"/>
	<polygon class="st5" points="165.5,372.6 184.6,372.6 184.6,375.7 203.2,375.7 203.2,372.6 211.7,372.6 211.7,368.9 165.5,368.9 	
		"/>
	<polygon class="st5" points="128.4,372.6 147.5,372.6 147.5,375.7 166.1,375.7 166.1,372.6 174.6,372.6 174.6,368.9 128.4,368.9 	
		"/>
	<polygon class="st5" points="89.9,372.6 109,372.6 109,375.7 127.6,375.7 127.6,372.6 136.1,372.6 136.1,368.9 89.9,368.9 	"/>
	<polygon class="st5" points="51.8,372.6 70.8,372.6 70.8,375.7 89.5,375.7 89.5,372.6 98,372.6 98,368.9 51.8,368.9 	"/>
	<polygon points="47.8,368.4 59.6,368.4 59.6,373.1 51,373.1 51,376.2 47.8,376.2 	"/>
	<g>
		<rect x="85.5" y="242.5" class="st6" width="129" height="87"/>
		<rect x="108.1" y="242.5" class="st7" width="9.9" height="87"/>
		<rect x="143.9" y="242.5" class="st7" width="15.6" height="17.5"/>
		<rect x="143.9" y="312" class="st7" width="15.6" height="17.5"/>
		<rect x="179" y="257.6" class="st8" width="28.6" height="16.4"/>
		<g>
			<rect x="182.5" y="260.1" width="2.2" height="11.4"/>
			<rect x="188.5" y="260.1" width="0.7" height="11.4"/>
			<rect x="186.9" y="260.1" width="0.6" height="11.4"/>
			<rect x="191.8" y="260.1" width="0.6" height="11.4"/>
			<rect x="201" y="260.1" width="0.6" height="11.4"/>
			<rect x="196.1" y="260.1" width="0.6" height="11.4"/>
			<rect x="185.3" y="260.1" width="0.6" height="11.4"/>
			<rect x="194.1" y="260.1" width="1.3" height="11.4"/>
			<rect x="190.1" y="260.1" width="1.3" height="11.4"/>
			<rect x="197.5" y="260.1" width="1.7" height="11.4"/>
			<rect x="201.9" y="260.1" width="2.2" height="11.4"/>
		</g>
		<rect x="189.2" y="277.5" class="st9" width="16.4" height="11.1"/>
	</g>
	<g>
		<rect x="466.1" y="242.5" class="st6" width="129" height="87"/>
		<rect x="488.7" y="242.5" class="st7" width="9.9" height="87"/>
		<rect x="524.5" y="242.5" class="st7" width="15.6" height="17.5"/>
		<rect x="524.5" y="312" class="st7" width="15.6" height="17.5"/>
		<rect x="559.6" y="257.6" class="st8" width="28.6" height="16.4"/>
		<g>
			<rect x="563.1" y="260.1" width="2.2" height="11.4"/>
			<rect x="569.1" y="260.1" width="0.7" height="11.4"/>
			<rect x="567.5" y="260.1" width="0.6" height="11.4"/>
			<rect x="572.4" y="260.1" width="0.6" height="11.4"/>
			<rect x="581.6" y="260.1" width="0.6" height="11.4"/>
			<rect x="576.7" y="260.1" width="0.6" height="11.4"/>
			<rect x="565.9" y="260.1" width="0.6" height="11.4"/>
			<rect x="574.7" y="260.1" width="1.3" height="11.4"/>
			<rect x="570.7" y="260.1" width="1.3" height="11.4"/>
			<rect x="578.1" y="260.1" width="1.7" height="11.4"/>
			<rect x="582.5" y="260.1" width="2.2" height="11.4"/>
		</g>
		<rect x="569.8" y="277.5" class="st9" width="16.4" height="11.1"/>
	</g>
	<g>
		<rect x="275.8" y="242.5" class="st6" width="129" height="87"/>
		<rect x="298.4" y="242.5" class="st7" width="9.9" height="87"/>
		<rect x="334.2" y="242.5" class="st7" width="15.6" height="17.5"/>
		<rect x="334.2" y="312" class="st7" width="15.6" height="17.5"/>
		<rect x="369.3" y="257.6" class="st8" width="28.6" height="16.4"/>
		<g>
			<rect x="372.8" y="260.1" width="2.2" height="11.4"/>
			<rect x="378.8" y="260.1" width="0.7" height="11.4"/>
			<rect x="377.2" y="260.1" width="0.6" height="11.4"/>
			<rect x="382.1" y="260.1" width="0.6" height="11.4"/>
			<rect x="391.3" y="260.1" width="0.6" height="11.4"/>
			<rect x="386.4" y="260.1" width="0.6" height="11.4"/>
			<rect x="375.6" y="260.1" width="0.6" height="11.4"/>
			<rect x="384.4" y="260.1" width="1.3" height="11.4"/>
			<rect x="380.4" y="260.1" width="1.3" height="11.4"/>
			<rect x="387.8" y="260.1" width="1.7" height="11.4"/>
			<rect x="392.2" y="260.1" width="2.2" height="11.4"/>
		</g>
		<rect x="379.5" y="277.5" class="st9" width="16.4" height="11.1"/>
	</g>
	<g>
		<rect x="656.4" y="242.5" class="st6" width="129" height="87"/>
		<rect x="679" y="242.5" class="st7" width="9.9" height="87"/>
		<rect x="714.8" y="242.5" class="st7" width="15.6" height="17.5"/>
		<rect x="714.8" y="312" class="st7" width="15.6" height="17.5"/>
		<rect x="749.9" y="257.6" class="st8" width="28.6" height="16.4"/>
		<g>
			<rect x="753.4" y="260.1" width="2.2" height="11.4"/>
			<rect x="759.4" y="260.1" width="0.7" height="11.4"/>
			<rect x="757.8" y="260.1" width="0.6" height="11.4"/>
			<rect x="762.7" y="260.1" width="0.6" height="11.4"/>
			<rect x="771.9" y="260.1" width="0.6" height="11.4"/>
			<rect x="767" y="260.1" width="0.6" height="11.4"/>
			<rect x="756.2" y="260.1" width="0.6" height="11.4"/>
			<rect x="765" y="260.1" width="1.3" height="11.4"/>
			<rect x="761" y="260.1" width="1.3" height="11.4"/>
			<rect x="768.4" y="260.1" width="1.7" height="11.4"/>
			<rect x="772.8" y="260.1" width="2.2" height="11.4"/>
		</g>
		<rect x="760" y="277.5" class="st9" width="16.4" height="11.1"/>
	</g>
</g>
</svg>
