<svg xmlns="http://www.w3.org/2000/svg" viewBox="0 0 775.91 32.41"><defs><style>.cls-1{fill:none;stroke:#657996;stroke-miterlimit:10;}.cls-2{fill:#e52e2e;}.cls-3{fill:#052c69;}.cls-4{fill:#4976b7;}</style></defs><g id="레이어_2" data-name="레이어 2"><g id="레이어_1-2" data-name="레이어 1"><line class="cls-1" x1="200" y1="31.91" y2="31.91"/><path class="cls-2" d="M134.91,11V.9h4.56V11.46c0,3.6,1.06,4.87,3.17,4.87s3.21-1.27,3.21-4.87V.9h4.39V11c0,6.41-2.55,9.29-7.62,9.29S134.91,17.36,134.91,11Z"/><path class="cls-2" d="M154.52.84h6.67c4.19,0,7.64,1.49,7.64,6.18s-3.49,6.53-7.52,6.53H159.1v6.36h-4.58Zm6.56,9.09c2.23,0,3.3-1,3.3-2.91s-1.23-2.58-3.48-2.58H159V9.93Z"/><path class="cls-3" d="M49.07,9.73a1.36,1.36,0,0,1-.45,1.07,1.75,1.75,0,0,1-1.21.4H44.68V7.74h-1.4v.11a3.43,3.43,0,0,1-.89,2.45,3.13,3.13,0,0,1-2.4.94H35.37A3.13,3.13,0,0,1,33,10.3a3.39,3.39,0,0,1-.89-2.45V4.28A3.38,3.38,0,0,1,33,1.82a3.16,3.16,0,0,1,2.4-.93H40a3.16,3.16,0,0,1,2.4.93,3.42,3.42,0,0,1,.89,2.46v.13h1.4V1h4.39Zm0,9.73a1.31,1.31,0,0,1-.37,1,1.4,1.4,0,0,1-1,.36H34.8a1.36,1.36,0,0,1-1-.36,1.35,1.35,0,0,1-.36-1V11.7h4.39v1.16h6.87V11.7h4.39ZM36.47,6.75a1.27,1.27,0,0,0,.21.87.8.8,0,0,0,.57.21h.86a.76.76,0,0,0,.56-.21,1.22,1.22,0,0,0,.22-.87V5.38c0-.46-.07-.75-.22-.88a.8.8,0,0,0-.56-.2h-.86a.84.84,0,0,0-.57.2,1.25,1.25,0,0,0-.21.88Zm8.21,10.7V16.24H37.81v1.21Z"/><path class="cls-3" d="M62.89,14.9v4.32a1.42,1.42,0,0,1-.54,1.11,1.86,1.86,0,0,1-1.24.47H58.5V14.9H52.66a1.5,1.5,0,0,1-1-.32,1.29,1.29,0,0,1-.34-1v-2H69.83v2a1.29,1.29,0,0,1-.35,1,1.5,1.5,0,0,1-1,.32ZM52.36,1H68.77V9.1a1.17,1.17,0,0,1-.32.91,1.35,1.35,0,0,1-.94.28H53.61a1.35,1.35,0,0,1-.94-.28,1.17,1.17,0,0,1-.31-.91ZM56.75,7H64.4V4.35H56.75Z"/><path class="cls-3" d="M74.43,17.4V15.11h4.35V17.4h3V15.11H86.1V17.4h3.25v1.75a1.5,1.5,0,0,1-.48,1.17,1.76,1.76,0,0,1-1.23.43h-15a1.75,1.75,0,0,1-1.22-.43,1.48,1.48,0,0,1-.49-1.17V17.4ZM78.06,1.86V0h4.41V1.86h6.27V4a1.17,1.17,0,0,1-.31.91,1.35,1.35,0,0,1-.94.28H72.74a1.37,1.37,0,0,1-.94-.28A1.17,1.17,0,0,1,71.49,4V1.86Zm10.49,9.06a3.23,3.23,0,0,1-1.12,2.52,3.88,3.88,0,0,1-2.71,1H75.55a3.9,3.9,0,0,1-2.71-1,3.26,3.26,0,0,1-1.11-2.52V9.25a3.26,3.26,0,0,1,1.11-2.52,3.9,3.9,0,0,1,2.71-1h9.17a3.88,3.88,0,0,1,2.71,1,3.23,3.23,0,0,1,1.12,2.52Zm-12.37-.8a1,1,0,0,0,.27.75,1.38,1.38,0,0,0,1,.29h5.36a1.36,1.36,0,0,0,1-.29,1,1,0,0,0,.27-.75v-.07a1,1,0,0,0-.27-.76,1.41,1.41,0,0,0-1-.27H77.46a1.44,1.44,0,0,0-1,.27,1,1,0,0,0-.27.76Z"/><path class="cls-3" d="M107.92,16.52a1.13,1.13,0,0,1-.29.88,1.33,1.33,0,0,1-.92.26H95.88v.5h12.21v1.45a1.21,1.21,0,0,1-.32.92,1.42,1.42,0,0,1-1,.29H92.76a1.4,1.4,0,0,1-1-.29,1.21,1.21,0,0,1-.32-.92V15.22h12v-.5H92.66a1.31,1.31,0,0,1-.92-.26,1.1,1.1,0,0,1-.3-.88V12.11h3v-.63H91.86a1.49,1.49,0,0,1-1-.31,1.31,1.31,0,0,1-.35-1V8.43H109v1.73a1.28,1.28,0,0,1-.35,1,1.48,1.48,0,0,1-1,.31H105.3a1.18,1.18,0,0,1-.19.63h2.81Zm.47-11.31a2.44,2.44,0,0,1-1,2,4,4,0,0,1-2.58.77H94.64a4,4,0,0,1-2.58-.77,2.44,2.44,0,0,1-1-2V3.7a2.49,2.49,0,0,1,1-2.06A4,4,0,0,1,94.64.86h10.19a4,4,0,0,1,2.58.78,2.49,2.49,0,0,1,1,2.06Zm-5.18-.37a1.78,1.78,0,0,0,.67-.09.34.34,0,0,0,.19-.3.33.33,0,0,0-.19-.29,1.74,1.74,0,0,0-.67-.1H96.27a1.86,1.86,0,0,0-.69.1.32.32,0,0,0-.2.29.33.33,0,0,0,.2.3,1.9,1.9,0,0,0,.69.09Zm-4.48,6.64a1.27,1.27,0,0,1-.19.63H101v-.63Z"/><path class="cls-3" d="M116.26,9A5.18,5.18,0,0,1,113.7,11a8.86,8.86,0,0,1-3.47.86V8.35a4.22,4.22,0,0,0,2.56-1.41c.8-.84,1.2-2.29,1.2-4.37V.93h4.48V2.57c0,2.08.38,3.53,1.13,4.37a4,4,0,0,0,2.52,1.41v3.54a8.36,8.36,0,0,1-3.4-.86A5,5,0,0,1,116.26,9Zm11.4,8.82a2.82,2.82,0,0,1-1,2.33,4,4,0,0,1-2.56.81h-9.21a4,4,0,0,1-2.55-.81,2.78,2.78,0,0,1-1-2.33V15.48a2.74,2.74,0,0,1,1-2.32,4,4,0,0,1,2.55-.82h9.21a4,4,0,0,1,2.56.82,2.79,2.79,0,0,1,1,2.32Zm-4.41-1.25a.8.8,0,0,0-.2-.56c-.13-.15-.42-.22-.88-.22h-5.41a1.23,1.23,0,0,0-.88.22.8.8,0,0,0-.2.56v.15a.8.8,0,0,0,.2.56,1.28,1.28,0,0,0,.88.22h5.41a1.24,1.24,0,0,0,.88-.22.8.8,0,0,0,.2-.56Zm4.17-6.12a1.34,1.34,0,0,1-.46,1.07,1.73,1.73,0,0,1-1.21.4H123V6.75h-1.58a1.26,1.26,0,0,1-.89-.34,1.15,1.15,0,0,1-.34-.88V3.42H123V1h4.39Z"/><line class="cls-1" x1="487.95" y1="31.91" x2="287.95" y2="31.91"/><path class="cls-2" d="M413.87,11V.9h4.55V11.46c0,3.6,1.07,4.87,3.17,4.87s3.22-1.27,3.22-4.87V.9h4.39V11c0,6.41-2.56,9.29-7.62,9.29S413.87,17.36,413.87,11Z"/><path class="cls-2" d="M433.47.84h6.67c4.19,0,7.64,1.49,7.64,6.18s-3.48,6.53-7.51,6.53h-2.22v6.36h-4.58ZM440,9.93c2.23,0,3.29-1,3.29-2.91s-1.23-2.58-3.48-2.58H438V9.93Z"/><path class="cls-3" d="M333.59,17.4V8.09H338V17.4h9.15v1.75a1.5,1.5,0,0,1-.48,1.17,1.74,1.74,0,0,1-1.23.43h-15a1.75,1.75,0,0,1-1.22-.43,1.48,1.48,0,0,1-.49-1.17V17.4ZM329.72,1h16.41V10.1a18.92,18.92,0,0,1-.29,3.28,9.45,9.45,0,0,1-1,3h-4.3a10.78,10.78,0,0,0,.94-3.16,23.53,23.53,0,0,0,.25-3.17V4.39H331A1.32,1.32,0,0,1,330.1,4a1.3,1.3,0,0,1-.4-1Z"/><path class="cls-3" d="M350,4.3A1.37,1.37,0,0,1,349,4a1.25,1.25,0,0,1-.4-1V1h8.54V3.85a8.16,8.16,0,0,1-2,5.93c-1.36,1.41-3.54,2.11-6.52,2.11l0-3.46a4.52,4.52,0,0,0,3.33-1,4.32,4.32,0,0,0,.95-3.12Zm16.37,15.07a1.35,1.35,0,0,1-.5,1.07,1.78,1.78,0,0,1-1.19.42h-2.7V15.7H351.69a1.44,1.44,0,0,1-.95-.27,1.17,1.17,0,0,1-.33-.95V12.34h15.92Zm0-8.88a1.26,1.26,0,0,1-.5,1,1.74,1.74,0,0,1-1.14.41H362.3V8h-.58v2.57a1.22,1.22,0,0,1-.41.95,1.64,1.64,0,0,1-1.15.37h-2.44V1h4V4.41h.58V1h4Z"/><path class="cls-3" d="M368.27,1H379v10.4a1.17,1.17,0,0,1-.31.91,1.37,1.37,0,0,1-.94.28h-8.18a1.37,1.37,0,0,1-.94-.28,1.2,1.2,0,0,1-.31-.91Zm2,19.83a1.45,1.45,0,0,1-1.05-.36,1.32,1.32,0,0,1-.38-1V13.34h4.41v4.11h11.12v2a1.29,1.29,0,0,1-.39,1,1.51,1.51,0,0,1-1.06.36Zm2.42-11.61h1.88V4.37h-1.88Zm11.59-4h2.85V7.65a1.15,1.15,0,0,1-.4,1,1.79,1.79,0,0,1-1.11.3h-1.34v4.91a1.37,1.37,0,0,1-.45,1.07,1.83,1.83,0,0,1-1.22.4h-2.72V1h4.39Z"/><path class="cls-3" d="M388.79,12.58a1.5,1.5,0,0,1-1-.31,1.3,1.3,0,0,1-.35-1v-2h7.2V7.48a11.56,11.56,0,0,1-1.27.52,16,16,0,0,1-5.15.82V5.71a9.88,9.88,0,0,0,4.3-1,3.78,3.78,0,0,0,1-.62h-3.74a1.41,1.41,0,0,1-.94-.28,1.17,1.17,0,0,1-.32-.91v-2h16.44v2a1.17,1.17,0,0,1-.32.91,1.41,1.41,0,0,1-.94.28H400a4,4,0,0,0,1,.62,9.91,9.91,0,0,0,4.3,1V8.82A15.91,15.91,0,0,1,400.12,8c-.41-.14-.78-.29-1.13-.43V9.25h7v2a1.3,1.3,0,0,1-.34,1,1.5,1.5,0,0,1-1,.31Zm16.1,6.79a1.34,1.34,0,0,1-.49,1.07,1.8,1.8,0,0,1-1.19.42H400.5V16.58H389.67a1.47,1.47,0,0,1-.95-.27,1.18,1.18,0,0,1-.32-.94V13.23h16.49ZM396.72,5.9a5.7,5.7,0,0,1-2,1.54h4A5.44,5.44,0,0,1,396.72,5.9Z"/><line class="cls-1" x1="775.91" y1="31.91" x2="575.91" y2="31.91"/><path class="cls-4" d="M685.51,2.22h4.71c5,0,8.29,2.4,8.29,8.1s-3.3,8.27-8.07,8.27h-4.93ZM690,15.43c2.64,0,4.51-1.22,4.51-5.11s-1.87-5-4.51-5h-.53V15.4Z"/><path class="cls-4" d="M700.8,10.29c0-5.37,3-8.4,7.5-8.4s7.51,3.05,7.51,8.4-3,8.58-7.51,8.58S700.8,15.66,700.8,10.29Zm11,0c0-3.17-1.34-5-3.5-5s-3.47,1.87-3.47,5,1.32,5.19,3.47,5.19S711.8,13.48,711.8,10.29Z"/><path class="cls-4" d="M717.3,2.22h4l1,7.46.66,5.19H723c.31-1.73.64-3.49,1-5.19l1.68-7.46H729l1.71,7.46c.33,1.67.62,3.43,1,5.19h.12c.2-1.76.42-3.49.61-5.19l1.06-7.46h3.74l-2.84,16.37h-5L728,11.46c-.27-1.25-.49-2.57-.64-3.8h-.11c-.2,1.23-.4,2.55-.64,3.8l-1.43,7.13h-4.78Z"/><path class="cls-4" d="M739.41,2.22h4l4.07,7.89,1.61,3.63h.11a52.43,52.43,0,0,1-.53-6V2.22h3.74V18.59h-4l-4-7.9L742.8,7.11h-.1c.17,1.82.5,4.07.5,6.05v5.43h-3.74Z"/><path class="cls-3" d="M617.31,9.73a1.36,1.36,0,0,1-.45,1.07,1.77,1.77,0,0,1-1.21.4h-2.73V7.74h-1.4v.11a3.43,3.43,0,0,1-.89,2.45,3.13,3.13,0,0,1-2.4.94H603.6a3.14,3.14,0,0,1-2.4-.94,3.43,3.43,0,0,1-.88-2.45V4.28a3.42,3.42,0,0,1,.88-2.46,3.17,3.17,0,0,1,2.4-.93h4.63a3.16,3.16,0,0,1,2.4.93,3.42,3.42,0,0,1,.89,2.46v.13h1.4V1h4.39Zm0,9.73a1.31,1.31,0,0,1-.37,1,1.4,1.4,0,0,1-1,.36H603a1.24,1.24,0,0,1-1.38-1.36V11.7h4.39v1.16h6.87V11.7h4.39ZM604.71,6.75a1.27,1.27,0,0,0,.21.87.78.78,0,0,0,.56.21h.87a.76.76,0,0,0,.56-.21,1.22,1.22,0,0,0,.22-.87V5.38c0-.46-.07-.75-.22-.88a.8.8,0,0,0-.56-.2h-.87a.82.82,0,0,0-.56.2,1.25,1.25,0,0,0-.21.88Zm8.21,10.7V16.24h-6.87v1.21Z"/><path class="cls-3" d="M631.13,14.9v4.32a1.43,1.43,0,0,1-.55,1.11,1.84,1.84,0,0,1-1.23.47h-2.61V14.9H620.9a1.5,1.5,0,0,1-1-.32,1.29,1.29,0,0,1-.34-1v-2h18.54v2a1.29,1.29,0,0,1-.34,1,1.5,1.5,0,0,1-1,.32ZM620.6,1H637V9.1a1.17,1.17,0,0,1-.31.91,1.35,1.35,0,0,1-.94.28h-13.9a1.35,1.35,0,0,1-.94-.28,1.17,1.17,0,0,1-.31-.91ZM625,7h7.66V4.35H625Z"/><path class="cls-3" d="M639.53,1h11V3.2a8,8,0,0,1-2.61,6.09q-2.61,2.43-8.35,2.43V8.32a8.77,8.77,0,0,0,4.76-1.05,3,3,0,0,0,1.61-2.62v-.3h-5.08a1.35,1.35,0,0,1-.92-.36,1.28,1.28,0,0,1-.4-1Zm16.39,16.78a2.8,2.8,0,0,1-1,2.33,4,4,0,0,1-2.56.81h-9.21a4,4,0,0,1-2.55-.81,2.8,2.8,0,0,1-1-2.33V15.48a2.77,2.77,0,0,1,1-2.32,4,4,0,0,1,2.55-.82h9.21a3.93,3.93,0,0,1,2.56.82,2.76,2.76,0,0,1,1,2.32Zm-4.41-1.25a.79.79,0,0,0-.19-.56,1.23,1.23,0,0,0-.89-.22H645a1.23,1.23,0,0,0-.88.22.76.76,0,0,0-.21.56v.15a.76.76,0,0,0,.21.56,1.28,1.28,0,0,0,.88.22h5.4a1.28,1.28,0,0,0,.89-.22.79.79,0,0,0,.19-.56Zm4-12h2.86V7a1.18,1.18,0,0,1-.4,1,1.84,1.84,0,0,1-1.12.3h-1.34v2.12a1.37,1.37,0,0,1-.45,1.07,1.8,1.8,0,0,1-1.21.4h-2.72V1h4.38Z"/><path class="cls-3" d="M665.8,17.4V13.77h4.37V17.4h7v1.75a1.53,1.53,0,0,1-.47,1.17,1.77,1.77,0,0,1-1.24.43h-15a1.75,1.75,0,0,1-1.22-.43,1.51,1.51,0,0,1-.49-1.17V17.4ZM676.18,3.18a1.17,1.17,0,0,1-.33.92,1.38,1.38,0,0,1-1,.29H664.18V9.53h12.21v2.14a1.16,1.16,0,0,1-.32.92,1.35,1.35,0,0,1-1,.3H661.05a1.38,1.38,0,0,1-1-.3,1.19,1.19,0,0,1-.32-.92V1h16.41Z"/></g></g></svg>