<svg xmlns="http://www.w3.org/2000/svg" viewBox="0 0 796.81 140.49"><defs><style>.cls-1{fill:#fff;}.cls-2{fill:#e84745;}</style></defs><g id="레이어_2" data-name="레이어 2"><g id="Layer_1" data-name="Layer 1"><path class="cls-1" d="M401.34,53.39c0,12,3.5,24,13.82,30.05l-6,7.46c-6.36-3.73-10.4-9.94-12.73-17.47-2.49,8.15-6.68,15.14-13.12,19.18l-6.06-7.53c10.41-6.61,14.13-19.42,14.13-31.69V49.9H379.91V41.59h31.84V49.9H401.34Zm14.52-17.78h9.55V102.7h-9.55V67.14h-9.08V58.83h9.08ZM440,34.37v71.52h-9.7V34.37Z"/><path class="cls-1" d="M489.71,64.89c0,15.76-8,25.62-18.8,25.62s-18.79-9.86-18.79-25.62,8-25.47,18.79-25.47S489.71,49.2,489.71,64.89Zm-27.72,0c0,10.63,3.65,16.3,8.92,16.3s8.93-5.67,8.93-16.3-3.64-16.23-8.93-16.23S462,54.33,462,64.89Zm47.36-30.52v71.75H499.1V34.37Z"/><path class="cls-1" d="M558.66,35.61h9.55v67.17h-9.55V69.08h-5.59c-.93,14-6.76,22.36-15.45,22.36-9.48,0-15.46-9.78-15.46-26s6-25.94,15.46-25.94c8.46,0,14.21,7.93,15.37,21.28h5.67ZM543.83,65.43c0-11-2.25-16.31-6.21-16.31s-6.22,5.36-6.22,16.31,2.33,16.38,6.22,16.38S543.83,76.46,543.83,65.43Zm39.06-31.06v71.52h-9.71V34.37Z"/><path class="cls-1" d="M632.58,64.89c0,15.76-8,25.62-18.79,25.62S595,80.65,595,64.89s8-25.47,18.79-25.47S632.58,49.2,632.58,64.89Zm-27.72,0c0,10.63,3.65,16.3,8.93,16.3s8.93-5.67,8.93-16.3-3.65-16.23-8.93-16.23S604.86,54.33,604.86,64.89Zm47.37-30.52v71.75H642V34.37Z"/><path class="cls-1" d="M692.29,56.73c0,10.33,5.67,22,17.4,27l-5.44,7.84c-8.07-3.34-13.74-10.17-16.93-18.33-3.18,8.62-8.93,15.92-17.08,19.57L664.73,85C676.45,79.72,682,67.6,682,56.73V54.25h-14.9V46.09H682V36.16h10.25v9.93h14.6v8.16h-14.6Zm31.45-22.28V106H713.49V34.45Z"/><path class="cls-1" d="M774.06,52.15c0,11.49,1.32,23.84,10.48,30.91l-6.21,7.37c-4.66-3.65-7.53-8.93-9.24-15.29-1.71,6.6-4.74,12.26-9.71,16.07-5-3.81-7.92-9.47-9.7-15.84-1.71,6.06-4.43,11.18-8.78,14.68l-6.6-7c9.09-7.07,10.41-19.49,10.41-30.91v-12h9.62v12c0,8.23.7,17.63,5,24.93,4.27-7.22,5-16.54,5-24.93v-12h9.71Zm22.75-17.7V106H786.56V34.45Z"/><rect class="cls-2" x="142.01" y="57.05" width="69.75" height="21.06"/><rect class="cls-1" x="142.78" width="28.56" height="50.02"/><rect class="cls-1" x="142.78" y="85.14" width="28.56" height="51.91"/><rect class="cls-1" x="125.87" width="9.63" height="137.05"/><path class="cls-1" d="M45.74,91.69H.05C-1.16,121,20.07,139,45.74,140V91.69Z"/><path class="cls-1" d="M65.71,0l-.12,140.49c21.87,0,38.61-13.88,39.05-36.93V0Z"/><path class="cls-1" d="M330.75,95.05a27.65,27.65,0,1,1,0-55.29c.62,0,1.22.05,1.83.09V.26C330.7.1,328.81,0,326.89,0a67.41,67.41,0,0,0,0,134.81c1.92,0,3.81-.1,5.69-.26V95C332,95,331.37,95.05,330.75,95.05Z"/><rect class="cls-1" x="211.76" width="35.28" height="137.05"/><rect class="cls-1" x="200.02" width="5.65" height="50.02"/><rect class="cls-1" x="200.02" y="85.14" width="5.65" height="51.91"/></g></g></svg>