<svg id="레이어_1" data-name="레이어 1" xmlns="http://www.w3.org/2000/svg" xmlns:xlink="http://www.w3.org/1999/xlink" viewBox="0 0 512 512"><defs><style>.cls-1{fill:none;}.cls-2{fill:url(#무제_그라디언트_167);}.cls-3{fill:url(#무제_그라디언트_167-2);}.cls-4{fill:url(#무제_그라디언트_167-3);}.cls-5{fill:url(#무제_그라디언트_167-4);}.cls-6{fill:url(#무제_그라디언트_167-5);}.cls-7{fill:#fff;}.cls-8{fill:url(#무제_그라디언트_167-6);}.cls-9{fill:url(#무제_그라디언트_12);}</style><linearGradient id="무제_그라디언트_167" x1="180.59" y1="306.01" x2="180.59" y2="361.29" gradientUnits="userSpaceOnUse"><stop offset="0.05" stop-color="#02bdff"/><stop offset="0.49" stop-color="#2e88ff"/><stop offset="1" stop-color="#3085ff"/></linearGradient><linearGradient id="무제_그라디언트_167-2" x1="330.62" y1="306.01" x2="330.62" y2="361.29" xlink:href="#무제_그라디언트_167"/><linearGradient id="무제_그라디언트_167-3" x1="255.69" y1="357.74" x2="255.69" y2="371.74" xlink:href="#무제_그라디언트_167"/><linearGradient id="무제_그라디언트_167-4" x1="255.69" y1="330.75" x2="255.69" y2="344.32" xlink:href="#무제_그라디언트_167"/><linearGradient id="무제_그라디언트_167-5" x1="258.83" y1="271.4" x2="258.83" y2="284.92" xlink:href="#무제_그라디언트_167"/><linearGradient id="무제_그라디언트_167-6" x1="256" y1="118.52" x2="256" y2="428.79" xlink:href="#무제_그라디언트_167"/><linearGradient id="무제_그라디언트_12" x1="256" y1="143.73" x2="256" y2="155.24" gradientUnits="userSpaceOnUse"><stop offset="0" stop-color="#02bdff"/><stop offset="0.8" stop-color="#2e88ff"/><stop offset="1" stop-color="#3085ff"/></linearGradient></defs><path class="cls-1" d="M377.64,185.53c0-.34,0-.65,0-.95v24.34Q377.62,197.24,377.64,185.53Z"/><path class="cls-1" d="M377.06,373.82c-1.05-.55-1.69.68-2.4,1.26-8.71,7-17,14.64-26.24,20.94-4.53,3.11-6,6.19-5.36,11.09.05.32,0,.65,0,1,.22,4.2,2.35,6.38,6.6,6.43q10.59.12,21.2,0c4.39-.05,6.59-2.25,6.66-6.68.1-5.32,0-10.65,0-16h0c0-5.11,0-10.22,0-15.33C377.57,375.59,378,374.33,377.06,373.82Z"/><path class="cls-1" d="M330.56,320a13.47,13.47,0,0,0-13.65,13.65,13.77,13.77,0,0,0,13.79,14,14.15,14.15,0,0,0,13.95-14A13.74,13.74,0,0,0,330.56,320Z"/><path class="cls-1" d="M180.5,320a13.68,13.68,0,0,0-13.8,13.92,13.87,13.87,0,0,0,27.73-.19A13.53,13.53,0,0,0,180.5,320Z"/><path class="cls-1" d="M368.67,362.2c6-4.81,9.06-10.77,9-18.61-.18-17.63,0-35.27,0-52.91,0-5.42,0-5.43-5.33-5.43q-40.84,0-81.67,0c-6.78,0-10.27-2.39-10.31-6.93s3.42-6.95,10.14-7c27.76,0,55.53,0,83.29.06,3,0,3.94-.9,3.93-3.89q-.09-27.3,0-54.6h-243q0,27.08,0,54.14c0,4.28,0,4.29,4.39,4.29h87.86a25.43,25.43,0,0,1,3.91.14,6.73,6.73,0,0,1,.27,13.29,36.49,36.49,0,0,1-6.18.44q-42.94,0-85.9,0c-3.15,0-4.45.74-4.42,4.17q.21,27.6,0,55.21a20.27,20.27,0,0,0,7.6,16.57c8.27,6.91,16.65,13.71,24.75,20.8a25.29,25.29,0,0,0,17.83,6.59c23.62-.23,47.25-.08,70.88-.08,23.85,0,47.69-.12,71.53.07a24.41,24.41,0,0,0,16.73-6Q356.15,372.17,368.67,362.2Zm-188.25-.91a27.75,27.75,0,0,1-27.64-27.69,27.81,27.81,0,0,1,55.62,0A27.7,27.7,0,0,1,180.42,361.29Zm78.24-89.89a7.11,7.11,0,0,1,7,6.76,6.85,6.85,0,0,1-6.93,6.76,6.71,6.71,0,0,1-6.8-6.84A6.86,6.86,0,0,1,258.66,271.4Zm-18.85,59.38q16-.06,32,0c4.61,0,7.5,2.69,7.49,6.75s-2.91,6.72-7.52,6.76c-5.33.06-10.66,0-16,0s-10.66,0-16,0c-4.67-.05-7.59-2.62-7.66-6.64C232.05,333.48,235,330.79,239.81,330.78Zm46,34.32a6.81,6.81,0,0,1-6.87,6.53c-4.23.19-8.47.07-12.71.08H255.51c-7.39,0-14.78,0-22.17,0-3.91,0-6.4-1.71-7.42-4.71a6.71,6.71,0,0,1,4.27-8.64,15.47,15.47,0,0,1,5.16-.59q20.37,0,40.74,0A20.1,20.1,0,0,1,280,358C283.76,358.77,286,361.59,285.84,365.1Zm17.1-31.62a27.69,27.69,0,0,1,55.37.25,27.41,27.41,0,0,1-27.91,27.56A27.7,27.7,0,0,1,302.94,333.48Z"/><path class="cls-1" d="M359.65,132.37c-34.5.37-69,.14-103.53.14q-52.41,0-104.83,0c-10,0-16.52,6.53-16.64,16.55-.05,4.89.1,9.8-.06,14.69-.05,1.66.23,2.74,1.11,3.33h4.08V137.54h227V167.1h9.85c.8-.54,1.08-1.5,1-3-.12-4.57-.31-9.17,0-13.71C378.46,139.38,369.7,132.26,359.65,132.37Z"/><path class="cls-1" d="M399.61,211.6a9,9,0,0,0-8,8.8c-.12,2.49,0,5,0,7.49h0c0,2.61.09,5.21,0,7.81-.09,2.19.68,3.24,3,3.12s4.35,0,6.51-.06c4.34-.16,7.45-2.53,8.48-6.74a30.91,30.91,0,0,0,.16-13.23C408.68,213.78,404.69,211.12,399.61,211.6Z"/><path class="cls-1" d="M120.62,220.14a9,9,0,0,0-8.26-8.56c-5-.35-8.79,2.31-9.73,7.15a31.6,31.6,0,0,0,.1,13.24,8.31,8.31,0,0,0,7.46,6.71c2.7.21,5.42.07,8.13.11,1.62,0,2.38-.73,2.36-2.37,0-2.72,0-5.43,0-8.14h0C120.65,225.57,120.78,222.84,120.62,220.14Z"/><path class="cls-1" d="M167.21,398.83c-4.45-2.18-8.06-5.51-11.82-8.63L134.73,373c0,12.69-.09,24.42.06,36.14,0,3.29,2.61,5.33,6.21,5.38,7,.09,13.92,0,20.88.06,3,0,5.7-.7,6.64-3.64a18.36,18.36,0,0,0,0-11.17C168.38,399.35,167.69,399.06,167.21,398.83Z"/><path class="cls-2" d="M180.62,306a28.05,28.05,0,0,0-27.84,27.59A27.81,27.81,0,1,0,180.62,306Zm.23,41.61a14.07,14.07,0,0,1-14.15-13.74A13.68,13.68,0,0,1,180.5,320a13.53,13.53,0,0,1,13.93,13.73A13.94,13.94,0,0,1,180.85,347.62Z"/><path class="cls-3" d="M358.31,333.73a27.69,27.69,0,1,0-27.91,27.56A27.59,27.59,0,0,0,358.31,333.73ZM330.7,347.62a13.77,13.77,0,0,1-13.79-14A13.47,13.47,0,0,1,330.56,320a13.74,13.74,0,0,1,14.09,13.66A14.15,14.15,0,0,1,330.7,347.62Z"/><path class="cls-4" d="M280,358a20.1,20.1,0,0,0-3.88-.27q-20.37,0-40.74,0a15.47,15.47,0,0,0-5.16.59,6.71,6.71,0,0,0-4.27,8.64c1,3,3.51,4.68,7.42,4.71,7.39.06,14.78,0,22.17,0h10.75c4.24,0,8.48.11,12.71-.08a6.81,6.81,0,0,0,6.87-6.53C286,361.59,283.76,358.77,280,358Z"/><path class="cls-5" d="M239.78,344.3c5.32.05,10.65,0,16,0s10.65,0,16,0c4.61,0,7.52-2.72,7.52-6.76s-2.88-6.73-7.49-6.75q-16-.06-32,0c-4.82,0-7.76,2.7-7.69,6.88C232.19,341.68,235.11,344.25,239.78,344.3Z"/><path class="cls-6" d="M258.77,284.92a6.85,6.85,0,0,0,6.93-6.76,7.11,7.11,0,0,0-7-6.76,6.86,6.86,0,0,0-6.69,6.68A6.71,6.71,0,0,0,258.77,284.92Z"/><path class="cls-7" d="M134.88,183.36h-.41v29.56h.17q0-13.6-.07-27.2A7.29,7.29,0,0,1,134.88,183.36Z"/><path class="cls-7" d="M377.6,183.36h-.19a5.9,5.9,0,0,1,.19,1.22Z"/><path class="cls-7" d="M377.6,212.92v0Z"/><path class="cls-7" d="M231.86,149.17q24.16,0,48.33,0c7.9,0,13.59,2.87,16.94,8.55h12.33a7.71,7.71,0,0,0,7.71-7.71h0a7.71,7.71,0,0,0-7.71-7.7H202.54a7.71,7.71,0,0,0-7.71,7.7h0a7.71,7.71,0,0,0,7.71,7.71h12.92C218.68,152.19,224.36,149.18,231.86,149.17Z"/><path class="cls-7" d="M280.19,149.16q-24.17,0-48.33,0c-7.5,0-13.18,3-16.4,8.54h81.67C293.78,152,288.09,149.17,280.19,149.16Z"/><path class="cls-8" d="M422.86,214.18c-3.71-12.37-17.05-19.61-28.93-15.53-2.95,1-2.37-1.14-2.37-2.65,0-15.35,0-30.7,0-46.05,0-18.35-12.93-31.39-31.19-31.4q-104.19-.06-208.38,0c-18.3,0-31.25,13-31.28,31.31,0,15.35-.06,30.7,0,46,0,2.71-.51,3.26-3.29,2.54-15-3.93-28.74,6.84-28.82,22.43,0,3.16,0,6.32,0,9.47a21.37,21.37,0,0,0,5.93,14.8c5.48,6,12.48,7.87,20.37,7.66,6.39-.16,5.76-.57,5.76,5.79q0,74.46,0,148.94c0,12,8.75,20.8,20.78,21,6.75.08,13.5.05,20.25,0,12.68-.08,21.3-8.72,21.39-21.37,0-4.72,0-4.72,4.9-4.72h136.2a18.11,18.11,0,0,0,1.95,0c2.34-.24,3.15.92,2.95,3.1-.07.86,0,1.74,0,2.61.16,10.14,6.82,18.53,16.86,19.83a128.09,128.09,0,0,0,29.29,0,11.75,11.75,0,0,0,3.74-1.1q12.53-5.79,12.54-19.64,0-75.12-.07-150.24c0-3.27.85-4.49,4.21-4.25a29.71,29.71,0,0,0,13.49-1.65c7.44-3,11.72-8.74,14.2-16.09v-19.6A9.73,9.73,0,0,1,422.86,214.18Zm-302.19,14.1c0,2.71,0,5.42,0,8.14,0,1.64-.74,2.39-2.36,2.37-2.71,0-5.43.1-8.13-.11a8.31,8.31,0,0,1-7.46-6.71,31.6,31.6,0,0,1-.1-13.24c.94-4.84,4.75-7.5,9.73-7.15a9,9,0,0,1,8.26,8.56c.16,2.7,0,5.43,0,8.14Zm47.85,182.64c-.94,2.94-3.67,3.67-6.64,3.64-7-.08-13.92,0-20.88-.06-3.6-.05-6.17-2.09-6.21-5.38-.15-11.72-.06-23.45-.06-36.14l20.66,17.22c3.76,3.12,7.37,6.45,11.82,8.63.48.23,1.17.52,1.29.92A18.36,18.36,0,0,1,168.52,410.92Zm158.67-22.39c-23.84-.19-47.68-.07-71.53-.07-23.63,0-47.26-.15-70.88.08A25.29,25.29,0,0,1,167,382c-8.1-7.09-16.48-13.89-24.75-20.8a20.27,20.27,0,0,1-7.6-16.57q.18-27.6,0-55.21c0-3.43,1.27-4.18,4.42-4.17q42.94.14,85.9,0a36.49,36.49,0,0,0,6.18-.44,6.73,6.73,0,0,0-.27-13.29,25.43,25.43,0,0,0-3.91-.14H139c-4.37,0-4.39,0-4.39-4.29q0-27.08,0-54.14h-.17V183.36H377.6v1.22c0,.3,0,.61,0,.95q0,11.7,0,23.39v4h0q0,27.3,0,54.6c0,3-.91,3.9-3.93,3.89-27.76-.1-55.53-.06-83.29-.06-6.72,0-10.18,2.38-10.14,7s3.53,6.93,10.31,6.93q40.83,0,81.67,0c5.32,0,5.32,0,5.33,5.43,0,17.64-.13,35.28,0,52.91.08,7.84-2.94,13.8-9,18.61q-12.53,10-24.75,20.29A24.41,24.41,0,0,1,327.19,388.53Zm50.4,3.32h0c0,5.33.07,10.66,0,16-.07,4.43-2.27,6.63-6.66,6.68q-10.61.11-21.2,0c-4.25-.05-6.38-2.23-6.6-6.43,0-.32,0-.65,0-1-.67-4.9.83-8,5.36-11.09,9.21-6.3,17.53-13.9,26.24-20.94.71-.58,1.35-1.81,2.4-1.26s.51,1.77.51,2.7C377.61,381.63,377.59,386.74,377.59,391.85Zm.06-241.44c-.33,4.54-.14,9.14,0,13.71,0,1.48-.24,2.44-1,3H135.7c-.88-.59-1.16-1.67-1.11-3.33.16-4.89,0-9.8.06-14.69.12-10,6.62-16.54,16.64-16.55q52.41-.06,104.83,0c34.51,0,69,.23,103.53-.14C369.7,132.26,378.46,139.38,377.65,150.41ZM409.49,232c-1,4.21-4.14,6.58-8.48,6.74-2.16.09-4.34-.06-6.51.06s-3.07-.93-3-3.12c.12-2.6,0-5.2,0-7.81h0c0-2.5-.1-5,0-7.49a9,9,0,0,1,8-8.8c5.08-.48,9.07,2.18,10,7.19A30.91,30.91,0,0,1,409.49,232Z"/><path class="cls-9" d="M309.46,142.3H202.54a7.71,7.71,0,0,0-7.71,7.7h0a7.71,7.71,0,0,0,7.71,7.71H309.46a7.71,7.71,0,0,0,7.71-7.71h0A7.71,7.71,0,0,0,309.46,142.3Z"/></svg>