<?xml version="1.0" encoding="utf-8"?>
<!-- Generator: Adobe Illustrator 24.3.0, SVG Export Plug-In . SVG Version: 6.00 Build 0)  -->
<svg version="1.1" id="Layer_1" xmlns="http://www.w3.org/2000/svg" xmlns:xlink="http://www.w3.org/1999/xlink" x="0px" y="0px"
	 viewBox="0 0 798 493.4" style="enable-background:new 0 0 798 493.4;" xml:space="preserve">
<style type="text/css">
	.st0{fill:none;}
	.st1{fill:#FFFFFF;stroke:#FFFFFF;stroke-miterlimit:10;}
</style>
<polyline class="st0" points="2525.5,315.2 3801.1,315.2 3801.1,1023.8 2525.5,1023.8 "/>
<g>
	<circle class="st1" cx="57.4" cy="57.4" r="56.9"/>
	<circle class="st1" cx="57.4" cy="246.7" r="56.9"/>
	<circle class="st1" cx="57.4" cy="436.1" r="56.9"/>
	<path class="st1" d="M785.5,104.5H199.8c-6.6,0-12-5.4-12-12V22.3c0-6.6,5.4-12,12-12h585.8c6.6,0,12,5.4,12,12v70.2
		C797.5,99.1,792.1,104.5,785.5,104.5z"/>
	<path class="st1" d="M785.5,293.8H199.8c-6.6,0-12-5.4-12-12v-70.2c0-6.6,5.4-12,12-12h585.8c6.6,0,12,5.4,12,12v70.2
		C797.5,288.4,792.1,293.8,785.5,293.8z"/>
	<path class="st1" d="M785.5,483.2H199.8c-6.6,0-12-5.4-12-12v-70.2c0-6.6,5.4-12,12-12h585.8c6.6,0,12,5.4,12,12v70.2
		C797.5,477.8,792.1,483.2,785.5,483.2z"/>
</g>
</svg>
