<svg xmlns="http://www.w3.org/2000/svg" viewBox="0 0 95.64 95.48"><defs><style>.cls-1{fill:#052c69;}</style></defs><g id="레이어_2" data-name="레이어 2"><g id="레이어_1-2" data-name="레이어 1"><path class="cls-1" d="M48,9.79v3c0,1.49,0,3,0,4.48,0-1.49,0-3,0-4.48Z"/><path class="cls-1" d="M55.64,9.87c0,1,0,1.94,0,2.91s0,2,0,3c0-1,0-2,0-3S55.67,10.84,55.64,9.87Z"/><path class="cls-1" d="M60.42,12.73c0-1.46,0-2.91,0-4.37,0,1.46,0,2.91,0,4.37,0,1.94,0,3.88,0,5.82C60.41,16.61,60.42,14.67,60.42,12.73Z"/><path class="cls-1" d="M20.82,44.59h0Z"/><path class="cls-1" d="M47.71,60.33h0Z"/><path class="cls-1" d="M45,28.6h2.81l4.18,0-4.18,0Z"/><path class="cls-1" d="M35.24,44.6c1.15,0,2.29,0,3.43,0-1.14,0-2.28,0-3.43,0s-2.19,0-3.29,0C33.05,44.58,34.15,44.6,35.24,44.6Z"/><path class="cls-1" d="M9.87,44.6h0c-1.1,0-2.2,0-3.29,0C7.67,44.58,8.77,44.6,9.87,44.6Z"/><path class="cls-1" d="M95.58,91.21c.41-3.76-2.75-5.75-6.13-5.54-1.76.1-1.84,0-1.84-1.79,0-6.54.07-13.07.08-19.61,0-2.87,0-5.74-.08-8.62a1.81,1.81,0,0,1,1.17-2,9.18,9.18,0,0,0,4.09-13.12c-2.14-3.4-4.3-6.78-6.36-10.22a3.34,3.34,0,0,0-3.24-1.77c-6,.06-12.11,0-18.16.05-1.16,0-1.3-.49-1.3-1.41s0-1.66,1.28-1.63c2.07.07,4.15,0,6.23,0,3.27,0,5.22-1.91,5.23-5.16q0-7.62,0-15.25c0-3.26-2-5.19-5.19-5.19H24.42C21,0,19.22,1.86,19.17,5.25c-.07,5-.09,10.06,0,15.1,0,3.18,1.34,4.67,4.48,5.15a47.75,47.75,0,0,0,6.87.11c.43,0,1.07-.15,1.21.3a3.67,3.67,0,0,1,0,2.34c-.23.57-.94.34-1.44.34-5.92,0-11.85.05-17.77,0a3.5,3.5,0,0,0-3.43,1.95C7.39,33.43,5.66,36.3,3.72,39a11,11,0,0,0-2.06,5.49C1.32,48.22,3,52.44,6.9,53.68,8,54,8.05,54.85,8,55.78Q8,70,8,84.15c0,1.61-.13,1.72-1.79,1.6C2.48,85.48.65,86.93.07,90.66A10,10,0,0,0,.07,93c.19,2.23.41,2.43,2.67,2.43H93.3c1.71,0,2.3-.57,2.34-2.28C95.66,92.53,95.51,91.86,95.58,91.21Zm-4.91-45a5,5,0,0,1-4,4.46A4.35,4.35,0,0,1,81.77,48c-1.16-2.57-.67-3.34,2.15-3.35.83,0,1.67.06,2.5.1V44.6c.93,0,1.85,0,2.77,0C90.34,44.55,90.74,45.08,90.67,46.21ZM84.28,84.1c0,1.54-.25,1.71-1.78,1.68-3,0-5.91-.08-8.87,0-1.72,0-1.85,0-1.85-1.67V66c0-3.89-1.77-5.7-5.64-5.71H29.68c-4,0-5.81,1.79-5.81,5.83,0,5.79.06,11.57.08,17.36,0,2.26-.07,2.25-2.29,2.21-2.87-.06-5.74,0-8.61,0-1.16,0-1.67-.27-1.67-1.55q.07-14.37,0-28.76c0-1,.26-1.57,1.31-1.78A4.66,4.66,0,0,0,15,52.16c.68-.68,1.19-.88,2.08-.1,3.47,3,7.38,2.95,10.86-.09.71-.62,1.09-.55,1.75,0a7.78,7.78,0,0,0,11.06-.13c.64-.61,1-.46,1.51,0,2.39,2.31,5.22,2.73,8.34,1.86A7.1,7.1,0,0,0,53.32,52c.63-.56,1.06-.61,1.77,0,3.4,3,7.29,3,10.78.11.77-.64,1.18-.78,2,0A7.86,7.86,0,0,0,78.78,52c.69-.65,1.06-.73,1.65,0A5.93,5.93,0,0,0,83,53.59a1.9,1.9,0,0,1,1.3,2C84.27,65.1,84.29,74.6,84.28,84.1Zm-34.75-19c0-1,.26-1.45,1.34-1.44,5.07,0,10.15,0,15.23,0,1.76,0,2.27.55,2.27,2.32,0,6.09,0,12.19,0,18.28,0,1.23-.48,1.5-1.56,1.48-5.16-.14-10.32-.15-15.48,0-1.68,0-1.81-.07-1.81-1.73V74.65C49.55,71.47,49.58,68.29,49.53,65.12Zm-3.39,7.22v2.42c0,.8,0,1.59,0,2.39,0,2.38,0,4.76,0,7.15,0,1.21-.49,1.51-1.56,1.5-4.77-.06-9.53-.08-14.3-.1-3,0-3,0-3-3.1,0-5.56,0-11.12.05-16.69,0-1.69.55-2.2,2.25-2.21,5.08,0,10.16,0,15.23,0,1.05,0,1.37.4,1.36,1.41C46.12,67.51,46.13,69.93,46.14,72.34Zm-27-27.72c.58,0,1.15,0,1.72,0h5c.93,0,1.31.45,1.3,1.39a4.92,4.92,0,0,1-4.89,4.74c-2.77,0-4.33-2.3-4.53-4.9C17.65,44.84,18.36,44.65,19.1,44.62Zm25.37,0c1.15,0,2.29,0,3.44,0h2.77c1.76,0,2,.29,1.76,2a4.72,4.72,0,0,1-4.85,4.15A5,5,0,0,1,43.16,46C43.14,45,43.58,44.62,44.47,44.61Zm-.84-4.55c.39-2.59.37-4.8.86-7,.18-.8.5-1.16,1.43-1.09a35.51,35.51,0,0,0,3.56-.13c1,0,1.68.31,1.78,1.56.17,2.19.5,4.37.83,6.55.15.95-.29,1.39-1.12,1.35-2.07-.09-4.13-.1-6.2,0C43.51,41.42,43.49,40.58,43.63,40.06ZM52,28.59l-4.18,0H45c-2.82,0-5.63,0-8.45,0-1.2,0-1.39-.5-1.38-1.51s.17-1.56,1.36-1.56c7.47,0,14.93,0,22.4,0,1,0,1.56.24,1.52,1.42s-.14,1.68-1.51,1.64C56.66,28.58,54.34,28.58,52,28.59Zm3.84,17.49c0-1,.38-1.48,1.36-1.48h3.3c1.06,0,2.12,0,3.18,0s1.62.48,1.5,1.68a4.78,4.78,0,0,1-4.67,4.51A4.94,4.94,0,0,1,55.86,46.08Zm12.66-.32a1.11,1.11,0,0,1,1.21-1.12c.83,0,1.67,0,2.33,0a25.57,25.57,0,0,0,4.39,0c1.12,0,1.55.48,1.49,1.62a4.72,4.72,0,1,1-9.42-.45ZM77.31,32a14.52,14.52,0,0,0,2,0V32l.92-.1c2.06-.24,3.61.28,4.64,2.35a59.78,59.78,0,0,0,3.68,5.94c.54.82.43,1.21-.58,1.18-2-.07-4-.13-6.08,0a1.67,1.67,0,0,1-1.67-1.07q-1.78-3.62-3.61-7.19C76.15,32.23,76.22,31.86,77.31,32ZM66,31.94A16.05,16.05,0,0,1,69,32c2.7-1,3.86,1,4.85,3.23q1.14,2.59,2.45,5.12c.38.72,0,.93-.52.94-2.29,0-4.58,0-6.87,0a1.29,1.29,0,0,1-1.2-1,56.63,56.63,0,0,0-2.66-6.75C64.66,32.55,64.82,32,66,31.94ZM64.1,40.53c.33.77-.37.78-.8.8-1.1.05-2.2,0-3.3,0v-.12c-1,.05-1.93.12-2.9.14S55.65,41,55.6,40a44.12,44.12,0,0,0-.9-6.14c-.27-1.43,0-1.69,1.39-1.9a37.35,37.35,0,0,1,4,0c.75,0,1,.61,1.28,1.15C62.55,35.49,63.06,38.11,64.1,40.53ZM25,22.23c-2,0-2.47-.49-2.48-2.52V6.05c0-2.24.39-2.64,2.59-2.64q11.34,0,22.67,0H70.47c2.32,0,2.68.36,2.68,2.69V19.75c0,2-.49,2.48-2.53,2.48Zm6.59,18.21c.88-2.34,1.72-4.71,2.59-7.06A1.81,1.81,0,0,1,36.28,32c1.18.1,2.37-.24,3.56-.1.87.1,1.31.41,1.12,1.47-.38,2.21-.66,4.45-.87,6.69a1.22,1.22,0,0,1-1.44,1.29c-1,0-2-.09-3-.13v.12c-1.11,0-2.21,0-3.31,0C31.8,41.31,31.32,41.2,31.61,40.44ZM32,44.61c1.1,0,2.2,0,3.29,0s2.29,0,3.43,0c.78,0,1.15.35,1.13,1.22a4.77,4.77,0,0,1-4.48,5,4.89,4.89,0,0,1-4.85-4.47C30.34,45,30.63,44.64,32,44.61Zm-9.28-11a2.53,2.53,0,0,1,2.81-1.65,31,31,0,0,0,4.09,0c1.13-.06,1.51.17,1,1.38-.87,2.06-1.66,4.16-2.34,6.29a2.15,2.15,0,0,1-2.65,1.73,30.3,30.3,0,0,0-5.13,0c-1.32,0-1.44-.23-.87-1.37C20.64,37.87,21.66,35.73,22.67,33.59ZM7.05,40.36c1.58-2.49,3.16-5,4.69-7.5.53-.87,1.37-.9,2.19-1,1.63-.16,3.25.3,4.88.1.62-.07.64.37.43.79C18,35.37,16.65,38,15.33,40.56a1.77,1.77,0,0,1-1.83.8c-1,0-1.94-.1-2.9-.15v.12c-1,0-2,0-3,0C6.8,41.32,6.61,41.05,7.05,40.36Zm-2,6c-.17-1.41.11-1.76,1.52-1.79,1.09,0,2.19,0,3.29,0h3.29c.93,0,1.32.42,1.23,1.41-.24,2.81-2.09,4.75-4.66,4.77A4.9,4.9,0,0,1,5.06,46.4ZM91.3,92.07c-.31,0-.62,0-.93,0H5c-.6,0-1.42.39-1.56-.66a1.85,1.85,0,0,1,1-2.08A3.18,3.18,0,0,1,6,89.11H89.57c1.83,0,2.59.57,2.66,1.87C92.27,91.65,92.11,92.13,91.3,92.07Z"/><path class="cls-1" d="M48,12.77v-3c0-1,0-2,0-3,0-1.38-.6-2-1.71-2s-1.66.69-1.68,2.08c0,1.06-.06,2.12,0,3.18s-.71,1.1-1.47,1.1-1.57.14-1.52-1.07,0-2.29,0-3.44S41.12,4.84,40,4.78s-1.75.61-1.76,1.85q0,6.17,0,12.33c0,1.24.67,1.91,1.75,1.86s1.62-.77,1.64-1.84,0-2.3,0-3.45c-.07-1.43,1-.88,1.66-1s1.35-.1,1.32.92,0,2.21,0,3.31c0,1.4.61,2,1.72,2s1.65-.69,1.67-2.08c0-.5,0-1,0-1.49C48,15.76,48,14.26,48,12.77Z"/><path class="cls-1" d="M32.67,11.14a5.26,5.26,0,0,1-.91-.12c-.73-.23-1.3-.67-1.2-1.51a1.33,1.33,0,0,1,1.16-1.27,1.41,1.41,0,0,1,1.61,1.07c.07.2.1.43.17.64a1.61,1.61,0,0,0,2,1.34c1-.2,1.4-.95,1.37-2a4.81,4.81,0,0,0-5-4.6A5,5,0,0,0,27.06,9a4.86,4.86,0,0,0,3.78,5.31,10.15,10.15,0,0,1,1.55.32,1.32,1.32,0,0,1,1,1.54,1.36,1.36,0,0,1-1.27,1.17c-1,.08-1.36-.65-1.6-1.45-.4-1.35-1.05-1.87-2.12-1.58s-1.38,1.26-1.24,2.3a4.75,4.75,0,0,0,5.1,4.17,4.7,4.7,0,0,0,4.6-4.41A4.82,4.82,0,0,0,32.67,11.14Z"/><path class="cls-1" d="M54.1,4.78a4.69,4.69,0,0,0-4.77,4.64c0,.27,0,.55,0,.82,0,.83,0,1.66,0,2.48,0,1.19,0,2.38,0,3.57a4.86,4.86,0,0,0,9.69.08c.09-2.37.09-4.76,0-7.13A4.65,4.65,0,0,0,54.1,4.78Zm1.54,11a1.45,1.45,0,1,1-2.89,0c0-2,0-4,0-6,0-.91.45-1.67,1.51-1.62S55.6,9,55.64,9.87s0,1.94,0,2.91S55.67,14.8,55.64,15.82Z"/><path class="cls-1" d="M49.33,12.72c0-.82,0-1.65,0-2.48,0,.83,0,1.66,0,2.48,0,1.19,0,2.38,0,3.57C49.28,15.1,49.33,13.91,49.33,12.72Z"/><path class="cls-1" d="M65.37,4.78c-.93,0-1.85,0-2.78,0-1.63,0-2.14.49-2.16,2.12,0,.49,0,1,0,1.46,0,1.46,0,2.91,0,4.37,0,1.94,0,3.88,0,5.82,0,1.6.57,2.3,1.75,2.27s1.63-.71,1.64-2.23c0-.4,0-.8,0-1.2,0-2.52,0-2.52,2.41-3a4.83,4.83,0,0,0,4-5.16A4.73,4.73,0,0,0,65.37,4.78Zm-.6,6.36c-1.25,0-.88-.91-.92-1.59s-.15-1.48,1-1.38c.94.09,1.78.32,1.89,1.43C66.81,10.42,65.86,11.13,64.77,11.14Z"/><path class="cls-1" d="M44.76,74.88c-.1-1-.47-1.79-1.65-1.82s-1.52.66-1.68,1.63A4.6,4.6,0,0,0,41.59,77a1.65,1.65,0,0,0,2.69.51,2.76,2.76,0,0,0,.48-2C44.76,75.32,44.78,75.09,44.76,74.88Z"/><path class="cls-1" d="M53.59,77.71a1.84,1.84,0,0,0,.71-1.82c.05-1.17.06-2-.76-2.57a1.64,1.64,0,0,0-2.17.25,4.06,4.06,0,0,0,0,3.87A1.66,1.66,0,0,0,53.59,77.71Z"/></g></g></svg>