<svg xmlns="http://www.w3.org/2000/svg" viewBox="0 0 150.67 33.18"><defs><style>.cls-1{fill:#052c69;}.cls-2{fill:#0d336e;}.cls-3{fill:#0d326d;}.cls-4{fill:#e74744;}.cls-5{fill:#09306b;}.cls-6{fill:#1a3e75;}.cls-7{fill:#0a306c;}.cls-8{fill:#0a306b;}.cls-9{fill:#10356f;}</style></defs><g id="레이어_2" data-name="레이어 2"><g id="레이어_1-2" data-name="레이어 1"><path class="cls-1" d="M111.81,12.6a3.38,3.38,0,0,0-3.22-3.26,3.49,3.49,0,0,0-4,2.57c-.47,1.61-.87,3.24-1.3,4.86l-2,7.65a2.61,2.61,0,0,1-.63-1.53c-1-3.64-2-7.33-3-11a3.45,3.45,0,0,0-3.85-2.53,3.34,3.34,0,0,0-3.27,2.91c-.82,6.68-1.61,13.34-2.41,20-.08.61,0,.91.75.91H93c.68,0,.87-.31.87-.9.14-1.62.33-3.25.5-4.87.23-2.14.45-4.29.68-6.44,1,2.93,1.85,5.85,2.67,8.77a2.76,2.76,0,0,0,.75,1.56,3.54,3.54,0,0,0,1.26.66,4,4,0,0,0,5-2.64c.78-2.82,1.57-5.63,2.36-8.45l.26.07c.31,3.24.63,6.49.94,9.74.23,2.45.22,2.45,2.73,2.45.73,0,1.46-.07,2.18,0,.93.08,1.11-.25,1-1.09C113.35,25.6,112.58,19.08,111.81,12.6Z"/><path class="cls-1" d="M127.78,14.55a12,12,0,0,0-4.18-.32,10,10,0,0,0-5,1.58,2.43,2.43,0,0,0,2.33,4.24,11.66,11.66,0,0,1,1.52-.59,4.56,4.56,0,0,1,3.55.19,1.3,1.3,0,0,1,.71,1.24c-.13.65-.74.32-1.13.32a15.72,15.72,0,0,0-5.37.6,5,5,0,0,0-3.59,4.66c-.17,2.49.45,4.65,2.83,5.85a7.62,7.62,0,0,0,6.82.11c.6-.26,1.34-1.41,1.86.13,0,.07.42.07.65.07,1,0,2-.06,3,0,.81.08,1-.25,1-1V26.27a60.33,60.33,0,0,0-.16-6.16A6.18,6.18,0,0,0,127.78,14.55Zm-1.91,13.56a4.11,4.11,0,0,1-.76.29,2.07,2.07,0,0,1-2.25-.45,1.19,1.19,0,0,1-.16-1.39c.37-.87,1.18-.86,1.94-.94h.76c.4.19,1.21-.43,1.4.49A1.7,1.7,0,0,1,125.87,28.11Z"/><path class="cls-1" d="M141.31,11.17a3.84,3.84,0,0,0,0-.48,2.75,2.75,0,0,0-3-2.41c-1.9,0-3.1,1-3.1,2.85v21.2c0,.64.23.85.87.85,1.45,0,2.9-.07,4.35,0,.84,0,1-.3,1-1.1V21.75h-.12C141.31,18.23,141.37,14.7,141.31,11.17Z"/><path class="cls-1" d="M150.54,11.09c-.06-2-1.29-2.92-3.23-2.84a2.18,2.18,0,0,0-.51,0h0a2.71,2.71,0,0,0-2.41,3V32.18c0,.85.32,1,1.05,1,1.36,0,2.72-.07,4.08,0,.89,0,1.15-.23,1.15-1.13V21.86l-.13,0C150.54,18.25,150.64,14.67,150.54,11.09Z"/><rect class="cls-2" x="33.92" y="20.35" width="6.53" height="12.79"/><path class="cls-3" d="M50.51.12V18.74h0c0,2.65.08,5.27.15,8,.06,2-.6,5,.44,5.85,1.21,1.09,4,.38,6,.61,1.89.21,2.25-.6,2.25-2.33V2.17c0-.66-.1-1.33-.15-2Z"/><path class="cls-4" d="M34.21,13.64v5.1H50.46c0-1.7,0-3.4,0-5.1Z"/><path class="cls-4" d="M50.51,13.64c0,1.7,0,3.4,0,5.1h0Z"/><rect class="cls-5" x="34.33" y="0.08" width="6.57" height="11.6"/><path class="cls-6" d="M30.13,31.69c0,1.68.9,1.6,2.11,1.24V.06H30.13Z"/><polygon class="cls-7" points="48.94 0 48.44 0.05 48.44 11.75 48.94 11.75 48.94 0"/><rect class="cls-7" x="48.08" y="20.7" width="0.5" height="11.6"/><path class="cls-8" d="M24.94,0h-9.2l.11,33.14a8.34,8.34,0,0,0,9.33-8.64c0-7.76-.06-15.51-.06-23.26C25.08.83,25,.42,24.94,0Z"/><path class="cls-9" d="M0,21.82c-.29,6.52,4.66,11.69,10.91,11.35l0-11.35Z"/><path class="cls-7" d="M73.71,16.92c-.27-3.25,1.74-5.62,6-7.23a2,2,0,0,0,1.1-1.38c.07-2.7,0-5.42,0-8.25A16,16,0,0,0,64.71,9.58a17,17,0,0,0,2.53,17.91c3.64,4.09,8,6.18,13.63,5.6V24.42c0-.3-.07-.6-.13-.9C76.38,22.8,74,20.49,73.71,16.92Z"/></g></g></svg>