<svg id="레이어_1" data-name="레이어 1" xmlns="http://www.w3.org/2000/svg" xmlns:xlink="http://www.w3.org/1999/xlink" viewBox="0 0 512 512"><defs><style>.cls-1,.cls-2{fill:none;stroke-width:20px;}.cls-1{stroke-linecap:round;stroke-linejoin:round;stroke:url(#무제_그라디언트_167);}.cls-2,.cls-3{stroke-miterlimit:10;}.cls-2{stroke:url(#무제_그라디언트_167-2);}.cls-3{stroke-width:10px;fill:url(#무제_그라디언트_167-3);stroke:url(#무제_그라디언트_167-4);}</style><linearGradient id="무제_그라디언트_167" x1="251.56" y1="387.32" x2="251.56" y2="503.33" gradientUnits="userSpaceOnUse"><stop offset="0.05" stop-color="#02bdff"/><stop offset="0.49" stop-color="#2e88ff"/><stop offset="1" stop-color="#3085ff"/></linearGradient><linearGradient id="무제_그라디언트_167-2" x1="253.95" y1="82.77" x2="253.95" y2="271.79" xlink:href="#무제_그라디언트_167"/><linearGradient id="무제_그라디언트_167-3" x1="253.95" y1="9.65" x2="253.95" y2="453.63" xlink:href="#무제_그라디언트_167"/><linearGradient id="무제_그라디언트_167-4" x1="253.95" y1="4.65" x2="253.95" y2="458.63" xlink:href="#무제_그라디언트_167"/></defs><polyline class="cls-1" points="194.82 397.32 61.91 397.32 13.33 493.33 489.78 493.33 445.2 397.32 314.77 397.32"/><circle class="cls-2" cx="253.95" cy="177.28" r="84.51"/><path class="cls-3" d="M247,453.63c-9.68-2.51-16.62-8.55-22.7-16.33q-55.09-70.55-103.19-146C106.33,268,93.45,243.75,87.83,216.48c-11.31-54.95.8-104.42,37-147.29,30.14-35.65,69.23-55.68,115.66-59,56.38-4.06,104,15.6,141.67,58,23.21,26.11,36.58,56.91,40.74,91.54,4,32.92-1.75,64.33-15.8,94.37-9.15,19.55-20.24,38-32.22,55.83-29.12,43.42-58.93,86.34-91.33,127.41-6.11,7.75-13.06,13.77-22.71,16.32ZM253,23c-5,.28-11,.1-17.1.87a162.37,162.37,0,0,0-53.63,16.06q-31.17,15.86-53.91,46c-26.15,34.81-35.47,74.23-29.46,117.3,3.48,24.91,13.7,47.29,26.11,68.78,17.58,30.42,38.14,58.88,58.22,87.65,17.36,24.86,35.38,49.25,54.37,72.9a20.07,20.07,0,0,0,17.78,8c6.34-.35,11.16-3.3,15.08-8.17,28.82-35.8,55.09-73.46,81-111.36,16.3-23.84,32.3-47.85,44.4-74.24,14.57-31.76,18.73-64.78,11.7-98.87C392.26,73.81,326.41,22.22,253,23Z"/></svg>