<svg xmlns="http://www.w3.org/2000/svg" viewBox="0 0 171.47 171.54"><defs><style>.cls-1{fill:#050505;}</style></defs><g id="레이어_2" data-name="레이어 2"><g id="레이어_1-2" data-name="레이어 1"><path class="cls-1" d="M144.91,75.83c0,9.45-3.1,21.74-10.06,32.86-2,3.17-1.48,4.91,1.07,7.39,10,9.73,19.87,19.68,29.73,29.61,7.13,7.17,7.73,15.53,1.66,21.58-6.27,6.25-14.65,5.6-22-1.74-9.91-9.88-19.87-19.7-29.64-29.71-2.29-2.34-3.77-3-7-1.1A72.28,72.28,0,1,1,64.42.45C107.51-4.28,144.62,28.8,144.91,75.83Zm-17.16-3.52C127.81,42,102.87,17,72.41,17,42.19,17,17,42.12,17.07,72.37s25.28,55.22,55.66,55.06A55.43,55.43,0,0,0,127.75,72.31Z"/></g></g></svg>