<svg id="레이어_1" data-name="레이어 1" xmlns="http://www.w3.org/2000/svg" xmlns:xlink="http://www.w3.org/1999/xlink" viewBox="0 0 512 512"><defs><style>.cls-1{fill:url(#무제_그라디언트_167);}.cls-2{fill:url(#무제_그라디언트_167-2);}.cls-3{fill:url(#무제_그라디언트_167-3);}</style><linearGradient id="무제_그라디언트_167" x1="176.12" y1="301.77" x2="176.12" y2="340.96" gradientUnits="userSpaceOnUse"><stop offset="0.05" stop-color="#02bdff"/><stop offset="0.49" stop-color="#2e88ff"/><stop offset="1" stop-color="#3085ff"/></linearGradient><linearGradient id="무제_그라디언트_167-2" x1="335.84" y1="301.77" x2="335.84" y2="340.96" xlink:href="#무제_그라디언트_167"/><linearGradient id="무제_그라디언트_167-3" x1="256" y1="106.9" x2="256" y2="442.99" xlink:href="#무제_그라디언트_167"/></defs><path class="cls-1" d="M176,341A19.88,19.88,0,0,1,156.27,321,19.85,19.85,0,1,1,176,341Zm7.23-19.46a7.28,7.28,0,0,0-7.12-7.49,7.33,7.33,0,0,0-.28,14.66A7.22,7.22,0,0,0,183.27,321.5Z"/><path class="cls-2" d="M336.08,301.77A19.6,19.6,0,1,1,316,321.32,19.68,19.68,0,0,1,336.08,301.77ZM343,321a7.2,7.2,0,1,0-14.39.41A7.2,7.2,0,1,0,343,321Z"/><path class="cls-3" d="M381.4,176.78c-3.48.37-4.14-1.32-4.09-4.36.13-8.9.08-17.81,0-26.71-.1-21.67-16.23-38.17-37.72-38.81H213.39c-.23,0-.46,0-.71,0H206c-8.82,0-17.64.27-26.44,0h-9.83a39.07,39.07,0,0,0-35.29,41.15c.36,6.15.05,12.33.05,18.5,0,9.87,0,9.87-9.68,10.22-6.27.23-10.74,4.43-10.86,10.57-.15,7.39-.15,14.8,0,22.19A10.64,10.64,0,0,0,124.11,220c1.64.13,3.3.06,4.94.07,5.47,0,5.48,0,5.48,5.36q0,59,0,118a45.4,45.4,0,0,0,.48,9c3.9,19.42,19.27,32.05,39.13,32.11,6.78,0,13.57,0,21,0-1.36,1.92-2.19,3.15-3.08,4.33q-16.23,21.5-32.46,43c-2.93,3.9-2.86,7.56.05,9.82s6.79,1.39,9.85-2.55c1.93-2.49,3.89-5,5.67-7.56a5.62,5.62,0,0,1,5.14-2.67q75.57.07,151.15,0a5.66,5.66,0,0,1,5.17,2.62c2,2.93,4.19,5.77,6.44,8.53,2.55,3.13,6.31,3.72,9.07,1.62s3.11-5.34.89-8.77c-.74-1.15-1.63-2.2-2.45-3.3l-34.1-45.07c4.25,0,7.53.05,10.8,0,5.89-.12,11.85.63,17.68-.42a38.69,38.69,0,0,0,32.31-38.52q.1-58.15,0-116.33c0-8.95,0-8.95,9.05-9.2,7.14-.2,11.43-4.5,11.53-11.66.06-4.94-.28-9.89.07-14.8C399,180.25,393.69,175.48,381.4,176.78Zm-252,31.3c-2.43-.18-3.44-.94-3.38-3.4.11-4.22.15-8.44,0-12.65-.12-3.41,2.08-3.16,4.34-3.2s4.43.07,4.19,3.35c-.15,2.16,0,4.35,0,6.52a35.36,35.36,0,0,0,0,4.49C135.14,207.34,133.16,208.35,129.4,208.08Zm235.91,44.11c0,3.47-1.17,4.41-4.52,4.4q-47.18-.16-94.34,0c-3.35,0-4.53-.93-4.51-4.4q.17-44,0-88c0-3.32,1.13-4.21,4.3-4.19,15.79.13,31.59.06,47.38.06s31.31.09,47-.07c3.56,0,4.75.93,4.74,4.61Q365.11,208.4,365.31,252.19ZM147.08,142.42c2.5-15,12.85-23.45,29-23.46q78.83,0,157.66,0a61.91,61.91,0,0,1,9.42.67,26.49,26.49,0,0,1,22.07,25.54c0,1.87-.61,2.86-2.57,2.81-1.1,0-2.19,0-3.29,0H151.86C146.35,148,146.19,147.78,147.08,142.42ZM151.2,160c15.79.12,31.58.06,47.37.06,15.52,0,31,.08,46.56-.07,3.42,0,4.85.69,4.83,4.51q-.21,43.79,0,87.58c0,3.33-.93,4.51-4.41,4.5q-47.37-.16-94.75,0c-3.33,0-4.21-1.13-4.2-4.3q.15-44,0-88C146.56,160.69,148,160,151.2,160ZM325.33,416.5H186.66c7.87-10.34,15.44-20.23,23-30.16,1.14-1.52,2.6-1.78,4.32-1.78q42,0,84,0c1.7,0,3.19.19,4.35,1.72C309.77,396.2,317.36,406.08,325.33,416.5Zm39.9-73.92c0,9.95-3,18.58-11.34,24.77-5.08,3.77-10.93,5.09-17.06,5.09q-80.91.09-161.81,0c-16.73,0-28.18-11.5-28.32-28.28-.19-23.83,0-47.67-.13-71.5,0-3.92,1.88-4.07,4.83-4.07q52.5.09,105,0c34.59,0,69.18.05,103.76-.08,3.86,0,5.21.94,5.18,5C365.14,296.56,365.26,319.57,365.23,342.58Zm15.53-134.5c-2.36-.19-3.5-.82-3.43-3.34.12-4.21.16-8.44,0-12.65-.12-3.35,2-3.25,4.29-3.26s4.47-.05,4.25,3.29c-.15,2.16,0,4.35,0,6.52a35.36,35.36,0,0,0,0,4.49C386.43,207.2,384.6,208.38,380.76,208.08Z"/></svg>