<svg id="레이어_1" data-name="레이어 1" xmlns="http://www.w3.org/2000/svg" xmlns:xlink="http://www.w3.org/1999/xlink" viewBox="0 0 512 512"><defs><style>.cls-1{fill:url(#무제_그라디언트_12);}</style><linearGradient id="무제_그라디언트_12" x1="249.96" y1="33.94" x2="249.96" y2="478.06" gradientUnits="userSpaceOnUse"><stop offset="0" stop-color="#02bdff"/><stop offset="0.8" stop-color="#2e88ff"/><stop offset="1" stop-color="#3085ff"/></linearGradient></defs><path class="cls-1" d="M330.54,478.06c-10.92-2-21.88-3.73-32.49-7.13-32.89-10.51-62.16-27.66-89.11-48.92C157.19,381.21,117,330.94,87.52,272.13,73,243.2,62.43,212.85,57.75,180.71c-4-27.65-3.2-55,7.33-81.37A99.39,99.39,0,0,1,95.23,58.23q11-8.85,22.07-17.47c13.62-10.53,28.55-8.79,39.22,4.67q29.58,37.35,59,74.85c11.29,14.4,9.42,29.09-4.94,40.42-5.33,4.21-10.4,8.8-16,12.53-11.74,7.77-15.32,19.44-16.2,32.38-1.55,22.79,5.91,43.27,17.23,62.48,12.73,21.59,28.54,40.67,49,55.47,15.84,11.48,33.13,19.36,53.26,19.1,8.31-.11,15.88-2.16,22.4-7.74,5.7-4.87,11.77-9.32,17.65-14,14.61-11.6,29.2-10,40.71,4.58q24.57,31.1,49.07,62.25c3.76,4.76,7.65,9.43,11.19,14.34,8.45,11.73,7.48,25.76-3.55,35-13.67,11.49-27,23.54-43.41,31.37-10.67,5.1-22,7.72-33.56,9.56Z"/></svg>