<svg xmlns="http://www.w3.org/2000/svg" viewBox="0 0 44.36 41.27"><defs><style>.cls-1,.cls-4{fill:#192f5c;}.cls-1{fill-rule:evenodd;}.cls-2{fill:#fff;}.cls-3{fill:none;}</style></defs><g id="레이어_2" data-name="레이어 2"><g id="Layer_1" data-name="Layer 1"><path class="cls-1" d="M30.3.47a7.17,7.17,0,0,0-5.12,0L13.4,5a3.55,3.55,0,0,0-2.29,3.32V24.07a3.55,3.55,0,0,0,2.29,3.32l11.78,4.54a7.17,7.17,0,0,0,5.12,0l11.78-4.54a3.56,3.56,0,0,0,1.66-1.31,3.51,3.51,0,0,0,.62-2L43.92,7.64l-2.07,1L42,24.07a1.13,1.13,0,0,1-.21.67,1.19,1.19,0,0,1-.55.44L29.44,29.71a5.08,5.08,0,0,1-.51.17V14.61l15-7c0-.72,0-1.52-.81-2L27.74,12.54,14.83,7l4.88-1.88,12.6,5.37L35.61,9,22.88,3.9,26,2.69a4.77,4.77,0,0,1,3.41,0h0L39.61,7.22l3.5-1.57ZM26.55,14.61V29.88a5.25,5.25,0,0,1-.52-.17L14.25,25.18a1.19,1.19,0,0,1-.55-.44,1.16,1.16,0,0,1-.21-.67V9Z"/><rect class="cls-2" x="2.04" y="22.26" width="6.17" height="14.83"/><polygon class="cls-2" points="29.04 31.15 10.19 34.95 10.19 21.48 29.43 26.31 29.04 31.15"/><polygon class="cls-2" points="23.92 39.72 40.26 35.42 37.82 30.92 14.76 35.53 23.92 39.72"/><polygon class="cls-2" points="22.18 37.62 33.35 31.46 22.43 30.62 10.19 34.12 22.18 37.62"/><path class="cls-3" d="M38.15,33a1.68,1.68,0,0,0-1-.35H26.75a17.22,17.22,0,0,1-2.78-.2,16.44,16.44,0,0,1-2.42-.55L17.5,30.62l1.1-2.9,3.65,1.2a13.59,13.59,0,0,0,2.37.55,30.39,30.39,0,0,0,3.58.15A3.17,3.17,0,0,0,28,28.45a1.46,1.46,0,0,0-.77-.83L15,23h-4.2v10.7l15.35,4.5,12.8-3.9A2.67,2.67,0,0,0,38.15,33Z"/><rect class="cls-3" x="3" y="22.97" width="4.7" height="13.7"/><path class="cls-4" d="M40.6,31.12a4.58,4.58,0,0,0-3.5-1.5H31.4a4.92,4.92,0,0,0-.93-3.22,5.28,5.28,0,0,0-2.27-1.63L15.45,20H0v19.7H10.75V36.82L26.3,41.27,42,36.47v-1.3A5.71,5.71,0,0,0,40.6,31.12ZM7.7,36.67H3V23H7.7Zm18.4,1.5-15.35-4.5V23H15L27.2,27.62a1.46,1.46,0,0,1,.77.83,3.17,3.17,0,0,1,.23,1.17,30.39,30.39,0,0,1-3.58-.15,13.59,13.59,0,0,1-2.37-.55l-3.65-1.2-1.1,2.9,4.05,1.25a16.44,16.44,0,0,0,2.42.55,17.22,17.22,0,0,0,2.78.2H37.1a1.68,1.68,0,0,1,1,.35,2.67,2.67,0,0,1,.75,1.3Z"/></g></g></svg>