<svg xmlns="http://www.w3.org/2000/svg" viewBox="0 0 40.47 40.47"><defs><style>.cls-1,.cls-2{fill:#192f5c;}.cls-1{fill-rule:evenodd;}.cls-2,.cls-3{stroke:#192f5c;stroke-miterlimit:10;}.cls-2{stroke-width:0.5px;}.cls-3{fill:none;stroke-width:4px;}</style></defs><g id="레이어_2" data-name="레이어 2"><g id="Layer_1" data-name="Layer 1"><path class="cls-1" d="M22,9.18a4.94,4.94,0,0,0-3.59,0l-8.29,3.18A2.54,2.54,0,0,0,8.54,14.7V25.77a2.54,2.54,0,0,0,1.61,2.33l8.29,3.19a4.94,4.94,0,0,0,3.59,0l8.29-3.19a2.51,2.51,0,0,0,1.6-2.33l-.31-11.56-1.46.68.1,10.88a.86.86,0,0,1-.14.47.85.85,0,0,1-.39.31l-8.29,3.18a2.53,2.53,0,0,1-.36.12V19.12l10.54-4.91c0-.5,0-1.06-.57-1.39L20.23,17.66l-9.07-3.89,3.43-1.32,8.86,3.77,2.32-1-8.95-3.59L19,10.73a3.39,3.39,0,0,1,2.39,0h0l7.15,3.19L31,12.82ZM19.4,19.12V29.85a2.53,2.53,0,0,1-.36-.12l-8.29-3.18a.85.85,0,0,1-.39-.31.9.9,0,0,1-.15-.47V15.18Z"/><path class="cls-2" d="M38.64,12.44A19.79,19.79,0,0,0,34.35,6.1,20.6,20.6,0,0,0,28,1.82,19.24,19.24,0,0,0,20.23.25a19.44,19.44,0,0,0-7.79,1.57A20.09,20.09,0,0,0,1.82,12.44,19.44,19.44,0,0,0,.25,20.23,19.31,19.31,0,0,0,1.82,28,20.57,20.57,0,0,0,6.1,34.35a19.79,19.79,0,0,0,6.34,4.29,19.44,19.44,0,0,0,7.79,1.58A19.24,19.24,0,0,0,28,38.64,20.1,20.1,0,0,0,38.64,28a19.32,19.32,0,0,0,1.58-7.75A19.44,19.44,0,0,0,38.64,12.44ZM32.25,32.25a16.38,16.38,0,0,1-12,5,16.36,16.36,0,0,1-12-5,16.43,16.43,0,0,1-4.94-12,16.41,16.41,0,0,1,4.94-12,16.41,16.41,0,0,1,12-4.94,16.43,16.43,0,0,1,12,4.94,16.36,16.36,0,0,1,5,12A16.38,16.38,0,0,1,32.25,32.25Z"/><line class="cls-3" x1="7.95" y1="32.37" x2="33.41" y2="8.37"/></g></g></svg>