<svg xmlns="http://www.w3.org/2000/svg" viewBox="0 0 40 40"><defs><style>.cls-1{fill:#192f5c;}</style></defs><g id="레이어_2" data-name="레이어 2"><g id="Layer_1" data-name="Layer 1"><path class="cls-1" d="M20,40a19.29,19.29,0,0,1-7.8-1.58,19.81,19.81,0,0,1-6.35-4.3,20.43,20.43,0,0,1-4.27-6.37A19.36,19.36,0,0,1,0,20a19.62,19.62,0,0,1,1.57-7.8A20,20,0,0,1,12.2,1.58,19.46,19.46,0,0,1,20,0a19.41,19.41,0,0,1,7.77,1.57,20.48,20.48,0,0,1,6.35,4.28,19.81,19.81,0,0,1,4.3,6.35A19.29,19.29,0,0,1,40,20a19.19,19.19,0,0,1-1.58,7.75A20.23,20.23,0,0,1,27.77,38.42,19.08,19.08,0,0,1,20,40Zm0-3a16.42,16.42,0,0,0,12-5,16.42,16.42,0,0,0,5-12A16.38,16.38,0,0,0,32,8,16.44,16.44,0,0,0,20,3,16.41,16.41,0,0,0,8,8,16.41,16.41,0,0,0,3,20,16.44,16.44,0,0,0,8,32,16.38,16.38,0,0,0,20,37Zm3.65-19.55.7-.4a2.69,2.69,0,0,0,5.35-.4,2.58,2.58,0,0,0-.28-1.2,2.81,2.81,0,0,0-.77-.95L30,13.75,29,12l-6.35,3.65Zm-7.3,0,1-1.8L11,12l-1,1.75,1.35.75a2.81,2.81,0,0,0-.77.95,2.58,2.58,0,0,0-.28,1.2,2.69,2.69,0,0,0,4.45,2.05,2.61,2.61,0,0,0,.9-1.65ZM20,22.15A8.89,8.89,0,0,0,14,24.43,14.21,14.21,0,0,0,10.05,30H30A15,15,0,0,0,26,24.45,8.75,8.75,0,0,0,20,22.15Z"/></g></g></svg>